G04 #@! TF.GenerationSoftware,KiCad,Pcbnew,(5.1.7)-1*
G04 #@! TF.CreationDate,2022-10-23T01:23:33-04:00*
G04 #@! TF.ProjectId,plc_14in_14out,706c635f-3134-4696-9e5f-31346f75742e,rev?*
G04 #@! TF.SameCoordinates,Original*
G04 #@! TF.FileFunction,Paste,Top*
G04 #@! TF.FilePolarity,Positive*
%FSLAX46Y46*%
G04 Gerber Fmt 4.6, Leading zero omitted, Abs format (unit mm)*
G04 Created by KiCad (PCBNEW (5.1.7)-1) date 2022-10-23 01:23:33*
%MOMM*%
%LPD*%
G01*
G04 APERTURE LIST*
%ADD10R,1.800000X3.500000*%
%ADD11R,1.200000X0.800000*%
%ADD12R,3.050000X2.750000*%
%ADD13R,2.200000X1.200000*%
%ADD14R,0.450000X1.750000*%
%ADD15R,2.000000X1.500000*%
%ADD16R,2.000000X3.800000*%
%ADD17R,1.500000X0.600000*%
G04 APERTURE END LIST*
G04 #@! TO.C,R92*
G36*
G01*
X34174000Y-22596001D02*
X34174000Y-21345999D01*
G75*
G02*
X34423999Y-21096000I249999J0D01*
G01*
X35049001Y-21096000D01*
G75*
G02*
X35299000Y-21345999I0J-249999D01*
G01*
X35299000Y-22596001D01*
G75*
G02*
X35049001Y-22846000I-249999J0D01*
G01*
X34423999Y-22846000D01*
G75*
G02*
X34174000Y-22596001I0J249999D01*
G01*
G37*
G36*
G01*
X31249000Y-22596001D02*
X31249000Y-21345999D01*
G75*
G02*
X31498999Y-21096000I249999J0D01*
G01*
X32124001Y-21096000D01*
G75*
G02*
X32374000Y-21345999I0J-249999D01*
G01*
X32374000Y-22596001D01*
G75*
G02*
X32124001Y-22846000I-249999J0D01*
G01*
X31498999Y-22846000D01*
G75*
G02*
X31249000Y-22596001I0J249999D01*
G01*
G37*
G04 #@! TD*
G04 #@! TO.C,R91*
G36*
G01*
X77460001Y-24307500D02*
X76209999Y-24307500D01*
G75*
G02*
X75960000Y-24057501I0J249999D01*
G01*
X75960000Y-23432499D01*
G75*
G02*
X76209999Y-23182500I249999J0D01*
G01*
X77460001Y-23182500D01*
G75*
G02*
X77710000Y-23432499I0J-249999D01*
G01*
X77710000Y-24057501D01*
G75*
G02*
X77460001Y-24307500I-249999J0D01*
G01*
G37*
G36*
G01*
X77460001Y-27232500D02*
X76209999Y-27232500D01*
G75*
G02*
X75960000Y-26982501I0J249999D01*
G01*
X75960000Y-26357499D01*
G75*
G02*
X76209999Y-26107500I249999J0D01*
G01*
X77460001Y-26107500D01*
G75*
G02*
X77710000Y-26357499I0J-249999D01*
G01*
X77710000Y-26982501D01*
G75*
G02*
X77460001Y-27232500I-249999J0D01*
G01*
G37*
G04 #@! TD*
G04 #@! TO.C,R89*
G36*
G01*
X43888499Y-19886500D02*
X45138501Y-19886500D01*
G75*
G02*
X45388500Y-20136499I0J-249999D01*
G01*
X45388500Y-20761501D01*
G75*
G02*
X45138501Y-21011500I-249999J0D01*
G01*
X43888499Y-21011500D01*
G75*
G02*
X43638500Y-20761501I0J249999D01*
G01*
X43638500Y-20136499D01*
G75*
G02*
X43888499Y-19886500I249999J0D01*
G01*
G37*
G36*
G01*
X43888499Y-16961500D02*
X45138501Y-16961500D01*
G75*
G02*
X45388500Y-17211499I0J-249999D01*
G01*
X45388500Y-17836501D01*
G75*
G02*
X45138501Y-18086500I-249999J0D01*
G01*
X43888499Y-18086500D01*
G75*
G02*
X43638500Y-17836501I0J249999D01*
G01*
X43638500Y-17211499D01*
G75*
G02*
X43888499Y-16961500I249999J0D01*
G01*
G37*
G04 #@! TD*
G04 #@! TO.C,R88*
G36*
G01*
X70474000Y-23123999D02*
X70474000Y-24374001D01*
G75*
G02*
X70224001Y-24624000I-249999J0D01*
G01*
X69598999Y-24624000D01*
G75*
G02*
X69349000Y-24374001I0J249999D01*
G01*
X69349000Y-23123999D01*
G75*
G02*
X69598999Y-22874000I249999J0D01*
G01*
X70224001Y-22874000D01*
G75*
G02*
X70474000Y-23123999I0J-249999D01*
G01*
G37*
G36*
G01*
X73399000Y-23123999D02*
X73399000Y-24374001D01*
G75*
G02*
X73149001Y-24624000I-249999J0D01*
G01*
X72523999Y-24624000D01*
G75*
G02*
X72274000Y-24374001I0J249999D01*
G01*
X72274000Y-23123999D01*
G75*
G02*
X72523999Y-22874000I249999J0D01*
G01*
X73149001Y-22874000D01*
G75*
G02*
X73399000Y-23123999I0J-249999D01*
G01*
G37*
G04 #@! TD*
G04 #@! TO.C,C27*
G36*
G01*
X50607000Y-28617000D02*
X50607000Y-27517000D01*
G75*
G02*
X50857000Y-27267000I250000J0D01*
G01*
X53857000Y-27267000D01*
G75*
G02*
X54107000Y-27517000I0J-250000D01*
G01*
X54107000Y-28617000D01*
G75*
G02*
X53857000Y-28867000I-250000J0D01*
G01*
X50857000Y-28867000D01*
G75*
G02*
X50607000Y-28617000I0J250000D01*
G01*
G37*
G36*
G01*
X45207000Y-28617000D02*
X45207000Y-27517000D01*
G75*
G02*
X45457000Y-27267000I250000J0D01*
G01*
X48457000Y-27267000D01*
G75*
G02*
X48707000Y-27517000I0J-250000D01*
G01*
X48707000Y-28617000D01*
G75*
G02*
X48457000Y-28867000I-250000J0D01*
G01*
X45457000Y-28867000D01*
G75*
G02*
X45207000Y-28617000I0J250000D01*
G01*
G37*
G04 #@! TD*
G04 #@! TO.C,C26*
G36*
G01*
X43703001Y-32960000D02*
X42402999Y-32960000D01*
G75*
G02*
X42153000Y-32710001I0J249999D01*
G01*
X42153000Y-32059999D01*
G75*
G02*
X42402999Y-31810000I249999J0D01*
G01*
X43703001Y-31810000D01*
G75*
G02*
X43953000Y-32059999I0J-249999D01*
G01*
X43953000Y-32710001D01*
G75*
G02*
X43703001Y-32960000I-249999J0D01*
G01*
G37*
G36*
G01*
X43703001Y-35910000D02*
X42402999Y-35910000D01*
G75*
G02*
X42153000Y-35660001I0J249999D01*
G01*
X42153000Y-35009999D01*
G75*
G02*
X42402999Y-34760000I249999J0D01*
G01*
X43703001Y-34760000D01*
G75*
G02*
X43953000Y-35009999I0J-249999D01*
G01*
X43953000Y-35660001D01*
G75*
G02*
X43703001Y-35910000I-249999J0D01*
G01*
G37*
G04 #@! TD*
G04 #@! TO.C,C24*
G36*
G01*
X74660999Y-35141000D02*
X75961001Y-35141000D01*
G75*
G02*
X76211000Y-35390999I0J-249999D01*
G01*
X76211000Y-36041001D01*
G75*
G02*
X75961001Y-36291000I-249999J0D01*
G01*
X74660999Y-36291000D01*
G75*
G02*
X74411000Y-36041001I0J249999D01*
G01*
X74411000Y-35390999D01*
G75*
G02*
X74660999Y-35141000I249999J0D01*
G01*
G37*
G36*
G01*
X74660999Y-32191000D02*
X75961001Y-32191000D01*
G75*
G02*
X76211000Y-32440999I0J-249999D01*
G01*
X76211000Y-33091001D01*
G75*
G02*
X75961001Y-33341000I-249999J0D01*
G01*
X74660999Y-33341000D01*
G75*
G02*
X74411000Y-33091001I0J249999D01*
G01*
X74411000Y-32440999D01*
G75*
G02*
X74660999Y-32191000I249999J0D01*
G01*
G37*
G04 #@! TD*
D10*
G04 #@! TO.C,D31*
X38862000Y-36529000D03*
X38862000Y-41529000D03*
G04 #@! TD*
D11*
G04 #@! TO.C,U35*
X175158000Y-31115000D03*
X181458000Y-33655000D03*
X175158000Y-33655000D03*
X181458000Y-31115000D03*
G04 #@! TD*
G04 #@! TO.C,R87*
G36*
G01*
X184969999Y-35468000D02*
X185870001Y-35468000D01*
G75*
G02*
X186120000Y-35717999I0J-249999D01*
G01*
X186120000Y-36418001D01*
G75*
G02*
X185870001Y-36668000I-249999J0D01*
G01*
X184969999Y-36668000D01*
G75*
G02*
X184720000Y-36418001I0J249999D01*
G01*
X184720000Y-35717999D01*
G75*
G02*
X184969999Y-35468000I249999J0D01*
G01*
G37*
G36*
G01*
X184969999Y-33468000D02*
X185870001Y-33468000D01*
G75*
G02*
X186120000Y-33717999I0J-249999D01*
G01*
X186120000Y-34418001D01*
G75*
G02*
X185870001Y-34668000I-249999J0D01*
G01*
X184969999Y-34668000D01*
G75*
G02*
X184720000Y-34418001I0J249999D01*
G01*
X184720000Y-33717999D01*
G75*
G02*
X184969999Y-33468000I249999J0D01*
G01*
G37*
G04 #@! TD*
G04 #@! TO.C,R86*
G36*
G01*
X187763999Y-32928000D02*
X188664001Y-32928000D01*
G75*
G02*
X188914000Y-33177999I0J-249999D01*
G01*
X188914000Y-33878001D01*
G75*
G02*
X188664001Y-34128000I-249999J0D01*
G01*
X187763999Y-34128000D01*
G75*
G02*
X187514000Y-33878001I0J249999D01*
G01*
X187514000Y-33177999D01*
G75*
G02*
X187763999Y-32928000I249999J0D01*
G01*
G37*
G36*
G01*
X187763999Y-30928000D02*
X188664001Y-30928000D01*
G75*
G02*
X188914000Y-31177999I0J-249999D01*
G01*
X188914000Y-31878001D01*
G75*
G02*
X188664001Y-32128000I-249999J0D01*
G01*
X187763999Y-32128000D01*
G75*
G02*
X187514000Y-31878001I0J249999D01*
G01*
X187514000Y-31177999D01*
G75*
G02*
X187763999Y-30928000I249999J0D01*
G01*
G37*
G04 #@! TD*
G04 #@! TO.C,R85*
G36*
G01*
X184004000Y-30791999D02*
X184004000Y-31692001D01*
G75*
G02*
X183754001Y-31942000I-249999J0D01*
G01*
X183053999Y-31942000D01*
G75*
G02*
X182804000Y-31692001I0J249999D01*
G01*
X182804000Y-30791999D01*
G75*
G02*
X183053999Y-30542000I249999J0D01*
G01*
X183754001Y-30542000D01*
G75*
G02*
X184004000Y-30791999I0J-249999D01*
G01*
G37*
G36*
G01*
X186004000Y-30791999D02*
X186004000Y-31692001D01*
G75*
G02*
X185754001Y-31942000I-249999J0D01*
G01*
X185053999Y-31942000D01*
G75*
G02*
X184804000Y-31692001I0J249999D01*
G01*
X184804000Y-30791999D01*
G75*
G02*
X185053999Y-30542000I249999J0D01*
G01*
X185754001Y-30542000D01*
G75*
G02*
X186004000Y-30791999I0J-249999D01*
G01*
G37*
G04 #@! TD*
G04 #@! TO.C,R84*
G36*
G01*
X169628000Y-30877500D02*
X169628000Y-31352500D01*
G75*
G02*
X169390500Y-31590000I-237500J0D01*
G01*
X168890500Y-31590000D01*
G75*
G02*
X168653000Y-31352500I0J237500D01*
G01*
X168653000Y-30877500D01*
G75*
G02*
X168890500Y-30640000I237500J0D01*
G01*
X169390500Y-30640000D01*
G75*
G02*
X169628000Y-30877500I0J-237500D01*
G01*
G37*
G36*
G01*
X171453000Y-30877500D02*
X171453000Y-31352500D01*
G75*
G02*
X171215500Y-31590000I-237500J0D01*
G01*
X170715500Y-31590000D01*
G75*
G02*
X170478000Y-31352500I0J237500D01*
G01*
X170478000Y-30877500D01*
G75*
G02*
X170715500Y-30640000I237500J0D01*
G01*
X171215500Y-30640000D01*
G75*
G02*
X171453000Y-30877500I0J-237500D01*
G01*
G37*
G04 #@! TD*
G04 #@! TO.C,R83*
G36*
G01*
X164952000Y-33191000D02*
X165502000Y-33191000D01*
G75*
G02*
X165702000Y-33391000I0J-200000D01*
G01*
X165702000Y-33791000D01*
G75*
G02*
X165502000Y-33991000I-200000J0D01*
G01*
X164952000Y-33991000D01*
G75*
G02*
X164752000Y-33791000I0J200000D01*
G01*
X164752000Y-33391000D01*
G75*
G02*
X164952000Y-33191000I200000J0D01*
G01*
G37*
G36*
G01*
X164952000Y-31541000D02*
X165502000Y-31541000D01*
G75*
G02*
X165702000Y-31741000I0J-200000D01*
G01*
X165702000Y-32141000D01*
G75*
G02*
X165502000Y-32341000I-200000J0D01*
G01*
X164952000Y-32341000D01*
G75*
G02*
X164752000Y-32141000I0J200000D01*
G01*
X164752000Y-31741000D01*
G75*
G02*
X164952000Y-31541000I200000J0D01*
G01*
G37*
G04 #@! TD*
D12*
G04 #@! TO.C,Q7*
X196259000Y-35307000D03*
X199609000Y-32257000D03*
X196259000Y-32257000D03*
X199609000Y-35307000D03*
D13*
X191634000Y-36062000D03*
X191634000Y-31502000D03*
G04 #@! TD*
G04 #@! TO.C,D30*
G36*
G01*
X169428000Y-33080000D02*
X169428000Y-34230000D01*
G75*
G02*
X169178000Y-34480000I-250000J0D01*
G01*
X168078000Y-34480000D01*
G75*
G02*
X167828000Y-34230000I0J250000D01*
G01*
X167828000Y-33080000D01*
G75*
G02*
X168078000Y-32830000I250000J0D01*
G01*
X169178000Y-32830000D01*
G75*
G02*
X169428000Y-33080000I0J-250000D01*
G01*
G37*
G36*
G01*
X172278000Y-33080000D02*
X172278000Y-34230000D01*
G75*
G02*
X172028000Y-34480000I-250000J0D01*
G01*
X170928000Y-34480000D01*
G75*
G02*
X170678000Y-34230000I0J250000D01*
G01*
X170678000Y-33080000D01*
G75*
G02*
X170928000Y-32830000I250000J0D01*
G01*
X172028000Y-32830000D01*
G75*
G02*
X172278000Y-33080000I0J-250000D01*
G01*
G37*
G04 #@! TD*
G04 #@! TO.C,F1*
G36*
G01*
X42303001Y-142886000D02*
X37452999Y-142886000D01*
G75*
G02*
X37203000Y-142636001I0J249999D01*
G01*
X37203000Y-140860999D01*
G75*
G02*
X37452999Y-140611000I249999J0D01*
G01*
X42303001Y-140611000D01*
G75*
G02*
X42553000Y-140860999I0J-249999D01*
G01*
X42553000Y-142636001D01*
G75*
G02*
X42303001Y-142886000I-249999J0D01*
G01*
G37*
G36*
G01*
X42303001Y-149711000D02*
X37452999Y-149711000D01*
G75*
G02*
X37203000Y-149461001I0J249999D01*
G01*
X37203000Y-147685999D01*
G75*
G02*
X37452999Y-147436000I249999J0D01*
G01*
X42303001Y-147436000D01*
G75*
G02*
X42553000Y-147685999I0J-249999D01*
G01*
X42553000Y-149461001D01*
G75*
G02*
X42303001Y-149711000I-249999J0D01*
G01*
G37*
G04 #@! TD*
D11*
G04 #@! TO.C,U34*
X53111000Y-122936000D03*
X59411000Y-125476000D03*
X53111000Y-125476000D03*
X59411000Y-122936000D03*
G04 #@! TD*
G04 #@! TO.C,R82*
G36*
G01*
X69640000Y-122068000D02*
X69640000Y-121518000D01*
G75*
G02*
X69840000Y-121318000I200000J0D01*
G01*
X70240000Y-121318000D01*
G75*
G02*
X70440000Y-121518000I0J-200000D01*
G01*
X70440000Y-122068000D01*
G75*
G02*
X70240000Y-122268000I-200000J0D01*
G01*
X69840000Y-122268000D01*
G75*
G02*
X69640000Y-122068000I0J200000D01*
G01*
G37*
G36*
G01*
X67990000Y-122068000D02*
X67990000Y-121518000D01*
G75*
G02*
X68190000Y-121318000I200000J0D01*
G01*
X68590000Y-121318000D01*
G75*
G02*
X68790000Y-121518000I0J-200000D01*
G01*
X68790000Y-122068000D01*
G75*
G02*
X68590000Y-122268000I-200000J0D01*
G01*
X68190000Y-122268000D01*
G75*
G02*
X67990000Y-122068000I0J200000D01*
G01*
G37*
G04 #@! TD*
G04 #@! TO.C,R81*
G36*
G01*
X38851000Y-118374000D02*
X38851000Y-119624000D01*
G75*
G02*
X38601000Y-119874000I-250000J0D01*
G01*
X37801000Y-119874000D01*
G75*
G02*
X37551000Y-119624000I0J250000D01*
G01*
X37551000Y-118374000D01*
G75*
G02*
X37801000Y-118124000I250000J0D01*
G01*
X38601000Y-118124000D01*
G75*
G02*
X38851000Y-118374000I0J-250000D01*
G01*
G37*
G36*
G01*
X41951000Y-118374000D02*
X41951000Y-119624000D01*
G75*
G02*
X41701000Y-119874000I-250000J0D01*
G01*
X40901000Y-119874000D01*
G75*
G02*
X40651000Y-119624000I0J250000D01*
G01*
X40651000Y-118374000D01*
G75*
G02*
X40901000Y-118124000I250000J0D01*
G01*
X41701000Y-118124000D01*
G75*
G02*
X41951000Y-118374000I0J-250000D01*
G01*
G37*
G04 #@! TD*
G04 #@! TO.C,D29*
G36*
G01*
X47234000Y-121479000D02*
X47234000Y-120329000D01*
G75*
G02*
X47484000Y-120079000I250000J0D01*
G01*
X48584000Y-120079000D01*
G75*
G02*
X48834000Y-120329000I0J-250000D01*
G01*
X48834000Y-121479000D01*
G75*
G02*
X48584000Y-121729000I-250000J0D01*
G01*
X47484000Y-121729000D01*
G75*
G02*
X47234000Y-121479000I0J250000D01*
G01*
G37*
G36*
G01*
X44384000Y-121479000D02*
X44384000Y-120329000D01*
G75*
G02*
X44634000Y-120079000I250000J0D01*
G01*
X45734000Y-120079000D01*
G75*
G02*
X45984000Y-120329000I0J-250000D01*
G01*
X45984000Y-121479000D01*
G75*
G02*
X45734000Y-121729000I-250000J0D01*
G01*
X44634000Y-121729000D01*
G75*
G02*
X44384000Y-121479000I0J250000D01*
G01*
G37*
G04 #@! TD*
G04 #@! TO.C,C23*
G36*
G01*
X62784983Y-122985776D02*
X63704224Y-123905017D01*
G75*
G02*
X63704224Y-124258569I-176776J-176776D01*
G01*
X63244603Y-124718190D01*
G75*
G02*
X62891051Y-124718190I-176776J176776D01*
G01*
X61971810Y-123798949D01*
G75*
G02*
X61971810Y-123445397I176776J176776D01*
G01*
X62431431Y-122985776D01*
G75*
G02*
X62784983Y-122985776I176776J-176776D01*
G01*
G37*
G36*
G01*
X64870949Y-120899810D02*
X65790190Y-121819051D01*
G75*
G02*
X65790190Y-122172603I-176776J-176776D01*
G01*
X65330569Y-122632224D01*
G75*
G02*
X64977017Y-122632224I-176776J176776D01*
G01*
X64057776Y-121712983D01*
G75*
G02*
X64057776Y-121359431I176776J176776D01*
G01*
X64517397Y-120899810D01*
G75*
G02*
X64870949Y-120899810I176776J-176776D01*
G01*
G37*
G04 #@! TD*
D14*
G04 #@! TO.C,U24*
X117001000Y-140125000D03*
X116351000Y-140125000D03*
X115701000Y-140125000D03*
X115051000Y-140125000D03*
X114401000Y-140125000D03*
X113751000Y-140125000D03*
X113101000Y-140125000D03*
X112451000Y-140125000D03*
X111801000Y-140125000D03*
X111151000Y-140125000D03*
X110501000Y-140125000D03*
X109851000Y-140125000D03*
X109201000Y-140125000D03*
X108551000Y-140125000D03*
X108551000Y-132925000D03*
X109201000Y-132925000D03*
X109851000Y-132925000D03*
X110501000Y-132925000D03*
X111151000Y-132925000D03*
X111801000Y-132925000D03*
X112451000Y-132925000D03*
X113101000Y-132925000D03*
X113751000Y-132925000D03*
X114401000Y-132925000D03*
X115051000Y-132925000D03*
X115701000Y-132925000D03*
X116351000Y-132925000D03*
X117001000Y-132925000D03*
G04 #@! TD*
D12*
G04 #@! TO.C,Q3*
X195834000Y-76200000D03*
X199184000Y-73150000D03*
X195834000Y-73150000D03*
X199184000Y-76200000D03*
D13*
X191209000Y-76955000D03*
X191209000Y-72395000D03*
G04 #@! TD*
G04 #@! TO.C,R54*
G36*
G01*
X187382999Y-92348000D02*
X188283001Y-92348000D01*
G75*
G02*
X188533000Y-92597999I0J-249999D01*
G01*
X188533000Y-93298001D01*
G75*
G02*
X188283001Y-93548000I-249999J0D01*
G01*
X187382999Y-93548000D01*
G75*
G02*
X187133000Y-93298001I0J249999D01*
G01*
X187133000Y-92597999D01*
G75*
G02*
X187382999Y-92348000I249999J0D01*
G01*
G37*
G36*
G01*
X187382999Y-90348000D02*
X188283001Y-90348000D01*
G75*
G02*
X188533000Y-90597999I0J-249999D01*
G01*
X188533000Y-91298001D01*
G75*
G02*
X188283001Y-91548000I-249999J0D01*
G01*
X187382999Y-91548000D01*
G75*
G02*
X187133000Y-91298001I0J249999D01*
G01*
X187133000Y-90597999D01*
G75*
G02*
X187382999Y-90348000I249999J0D01*
G01*
G37*
G04 #@! TD*
D11*
G04 #@! TO.C,U33*
X174904000Y-81153000D03*
X181204000Y-83693000D03*
X174904000Y-83693000D03*
X181204000Y-81153000D03*
G04 #@! TD*
G04 #@! TO.C,U32*
X174904000Y-71882000D03*
X181204000Y-74422000D03*
X174904000Y-74422000D03*
X181204000Y-71882000D03*
G04 #@! TD*
G04 #@! TO.C,U31*
X174904000Y-62611000D03*
X181204000Y-65151000D03*
X174904000Y-65151000D03*
X181204000Y-62611000D03*
G04 #@! TD*
G04 #@! TO.C,U30*
X175031000Y-50292000D03*
X181331000Y-52832000D03*
X175031000Y-52832000D03*
X181331000Y-50292000D03*
G04 #@! TD*
G04 #@! TO.C,U29*
X175158000Y-40386000D03*
X181458000Y-42926000D03*
X175158000Y-42926000D03*
X181458000Y-40386000D03*
G04 #@! TD*
G04 #@! TO.C,R80*
G36*
G01*
X184842999Y-85109000D02*
X185743001Y-85109000D01*
G75*
G02*
X185993000Y-85358999I0J-249999D01*
G01*
X185993000Y-86059001D01*
G75*
G02*
X185743001Y-86309000I-249999J0D01*
G01*
X184842999Y-86309000D01*
G75*
G02*
X184593000Y-86059001I0J249999D01*
G01*
X184593000Y-85358999D01*
G75*
G02*
X184842999Y-85109000I249999J0D01*
G01*
G37*
G36*
G01*
X184842999Y-83109000D02*
X185743001Y-83109000D01*
G75*
G02*
X185993000Y-83358999I0J-249999D01*
G01*
X185993000Y-84059001D01*
G75*
G02*
X185743001Y-84309000I-249999J0D01*
G01*
X184842999Y-84309000D01*
G75*
G02*
X184593000Y-84059001I0J249999D01*
G01*
X184593000Y-83358999D01*
G75*
G02*
X184842999Y-83109000I249999J0D01*
G01*
G37*
G04 #@! TD*
G04 #@! TO.C,R79*
G36*
G01*
X187382999Y-82696000D02*
X188283001Y-82696000D01*
G75*
G02*
X188533000Y-82945999I0J-249999D01*
G01*
X188533000Y-83646001D01*
G75*
G02*
X188283001Y-83896000I-249999J0D01*
G01*
X187382999Y-83896000D01*
G75*
G02*
X187133000Y-83646001I0J249999D01*
G01*
X187133000Y-82945999D01*
G75*
G02*
X187382999Y-82696000I249999J0D01*
G01*
G37*
G36*
G01*
X187382999Y-80696000D02*
X188283001Y-80696000D01*
G75*
G02*
X188533000Y-80945999I0J-249999D01*
G01*
X188533000Y-81646001D01*
G75*
G02*
X188283001Y-81896000I-249999J0D01*
G01*
X187382999Y-81896000D01*
G75*
G02*
X187133000Y-81646001I0J249999D01*
G01*
X187133000Y-80945999D01*
G75*
G02*
X187382999Y-80696000I249999J0D01*
G01*
G37*
G04 #@! TD*
G04 #@! TO.C,R78*
G36*
G01*
X184131000Y-80702999D02*
X184131000Y-81603001D01*
G75*
G02*
X183881001Y-81853000I-249999J0D01*
G01*
X183180999Y-81853000D01*
G75*
G02*
X182931000Y-81603001I0J249999D01*
G01*
X182931000Y-80702999D01*
G75*
G02*
X183180999Y-80453000I249999J0D01*
G01*
X183881001Y-80453000D01*
G75*
G02*
X184131000Y-80702999I0J-249999D01*
G01*
G37*
G36*
G01*
X186131000Y-80702999D02*
X186131000Y-81603001D01*
G75*
G02*
X185881001Y-81853000I-249999J0D01*
G01*
X185180999Y-81853000D01*
G75*
G02*
X184931000Y-81603001I0J249999D01*
G01*
X184931000Y-80702999D01*
G75*
G02*
X185180999Y-80453000I249999J0D01*
G01*
X185881001Y-80453000D01*
G75*
G02*
X186131000Y-80702999I0J-249999D01*
G01*
G37*
G04 #@! TD*
G04 #@! TO.C,R77*
G36*
G01*
X184715999Y-76346000D02*
X185616001Y-76346000D01*
G75*
G02*
X185866000Y-76595999I0J-249999D01*
G01*
X185866000Y-77296001D01*
G75*
G02*
X185616001Y-77546000I-249999J0D01*
G01*
X184715999Y-77546000D01*
G75*
G02*
X184466000Y-77296001I0J249999D01*
G01*
X184466000Y-76595999D01*
G75*
G02*
X184715999Y-76346000I249999J0D01*
G01*
G37*
G36*
G01*
X184715999Y-74346000D02*
X185616001Y-74346000D01*
G75*
G02*
X185866000Y-74595999I0J-249999D01*
G01*
X185866000Y-75296001D01*
G75*
G02*
X185616001Y-75546000I-249999J0D01*
G01*
X184715999Y-75546000D01*
G75*
G02*
X184466000Y-75296001I0J249999D01*
G01*
X184466000Y-74595999D01*
G75*
G02*
X184715999Y-74346000I249999J0D01*
G01*
G37*
G04 #@! TD*
G04 #@! TO.C,R76*
G36*
G01*
X187382999Y-74314000D02*
X188283001Y-74314000D01*
G75*
G02*
X188533000Y-74563999I0J-249999D01*
G01*
X188533000Y-75264001D01*
G75*
G02*
X188283001Y-75514000I-249999J0D01*
G01*
X187382999Y-75514000D01*
G75*
G02*
X187133000Y-75264001I0J249999D01*
G01*
X187133000Y-74563999D01*
G75*
G02*
X187382999Y-74314000I249999J0D01*
G01*
G37*
G36*
G01*
X187382999Y-72314000D02*
X188283001Y-72314000D01*
G75*
G02*
X188533000Y-72563999I0J-249999D01*
G01*
X188533000Y-73264001D01*
G75*
G02*
X188283001Y-73514000I-249999J0D01*
G01*
X187382999Y-73514000D01*
G75*
G02*
X187133000Y-73264001I0J249999D01*
G01*
X187133000Y-72563999D01*
G75*
G02*
X187382999Y-72314000I249999J0D01*
G01*
G37*
G04 #@! TD*
G04 #@! TO.C,R75*
G36*
G01*
X183877000Y-71177999D02*
X183877000Y-72078001D01*
G75*
G02*
X183627001Y-72328000I-249999J0D01*
G01*
X182926999Y-72328000D01*
G75*
G02*
X182677000Y-72078001I0J249999D01*
G01*
X182677000Y-71177999D01*
G75*
G02*
X182926999Y-70928000I249999J0D01*
G01*
X183627001Y-70928000D01*
G75*
G02*
X183877000Y-71177999I0J-249999D01*
G01*
G37*
G36*
G01*
X185877000Y-71177999D02*
X185877000Y-72078001D01*
G75*
G02*
X185627001Y-72328000I-249999J0D01*
G01*
X184926999Y-72328000D01*
G75*
G02*
X184677000Y-72078001I0J249999D01*
G01*
X184677000Y-71177999D01*
G75*
G02*
X184926999Y-70928000I249999J0D01*
G01*
X185627001Y-70928000D01*
G75*
G02*
X185877000Y-71177999I0J-249999D01*
G01*
G37*
G04 #@! TD*
G04 #@! TO.C,R74*
G36*
G01*
X184588999Y-66805000D02*
X185489001Y-66805000D01*
G75*
G02*
X185739000Y-67054999I0J-249999D01*
G01*
X185739000Y-67755001D01*
G75*
G02*
X185489001Y-68005000I-249999J0D01*
G01*
X184588999Y-68005000D01*
G75*
G02*
X184339000Y-67755001I0J249999D01*
G01*
X184339000Y-67054999D01*
G75*
G02*
X184588999Y-66805000I249999J0D01*
G01*
G37*
G36*
G01*
X184588999Y-64805000D02*
X185489001Y-64805000D01*
G75*
G02*
X185739000Y-65054999I0J-249999D01*
G01*
X185739000Y-65755001D01*
G75*
G02*
X185489001Y-66005000I-249999J0D01*
G01*
X184588999Y-66005000D01*
G75*
G02*
X184339000Y-65755001I0J249999D01*
G01*
X184339000Y-65054999D01*
G75*
G02*
X184588999Y-64805000I249999J0D01*
G01*
G37*
G04 #@! TD*
G04 #@! TO.C,R73*
G36*
G01*
X187255999Y-64789000D02*
X188156001Y-64789000D01*
G75*
G02*
X188406000Y-65038999I0J-249999D01*
G01*
X188406000Y-65739001D01*
G75*
G02*
X188156001Y-65989000I-249999J0D01*
G01*
X187255999Y-65989000D01*
G75*
G02*
X187006000Y-65739001I0J249999D01*
G01*
X187006000Y-65038999D01*
G75*
G02*
X187255999Y-64789000I249999J0D01*
G01*
G37*
G36*
G01*
X187255999Y-62789000D02*
X188156001Y-62789000D01*
G75*
G02*
X188406000Y-63038999I0J-249999D01*
G01*
X188406000Y-63739001D01*
G75*
G02*
X188156001Y-63989000I-249999J0D01*
G01*
X187255999Y-63989000D01*
G75*
G02*
X187006000Y-63739001I0J249999D01*
G01*
X187006000Y-63038999D01*
G75*
G02*
X187255999Y-62789000I249999J0D01*
G01*
G37*
G04 #@! TD*
G04 #@! TO.C,R72*
G36*
G01*
X183877000Y-62160999D02*
X183877000Y-63061001D01*
G75*
G02*
X183627001Y-63311000I-249999J0D01*
G01*
X182926999Y-63311000D01*
G75*
G02*
X182677000Y-63061001I0J249999D01*
G01*
X182677000Y-62160999D01*
G75*
G02*
X182926999Y-61911000I249999J0D01*
G01*
X183627001Y-61911000D01*
G75*
G02*
X183877000Y-62160999I0J-249999D01*
G01*
G37*
G36*
G01*
X185877000Y-62160999D02*
X185877000Y-63061001D01*
G75*
G02*
X185627001Y-63311000I-249999J0D01*
G01*
X184926999Y-63311000D01*
G75*
G02*
X184677000Y-63061001I0J249999D01*
G01*
X184677000Y-62160999D01*
G75*
G02*
X184926999Y-61911000I249999J0D01*
G01*
X185627001Y-61911000D01*
G75*
G02*
X185877000Y-62160999I0J-249999D01*
G01*
G37*
G04 #@! TD*
G04 #@! TO.C,R71*
G36*
G01*
X184715999Y-54756000D02*
X185616001Y-54756000D01*
G75*
G02*
X185866000Y-55005999I0J-249999D01*
G01*
X185866000Y-55706001D01*
G75*
G02*
X185616001Y-55956000I-249999J0D01*
G01*
X184715999Y-55956000D01*
G75*
G02*
X184466000Y-55706001I0J249999D01*
G01*
X184466000Y-55005999D01*
G75*
G02*
X184715999Y-54756000I249999J0D01*
G01*
G37*
G36*
G01*
X184715999Y-52756000D02*
X185616001Y-52756000D01*
G75*
G02*
X185866000Y-53005999I0J-249999D01*
G01*
X185866000Y-53706001D01*
G75*
G02*
X185616001Y-53956000I-249999J0D01*
G01*
X184715999Y-53956000D01*
G75*
G02*
X184466000Y-53706001I0J249999D01*
G01*
X184466000Y-53005999D01*
G75*
G02*
X184715999Y-52756000I249999J0D01*
G01*
G37*
G04 #@! TD*
G04 #@! TO.C,R70*
G36*
G01*
X187255999Y-52597000D02*
X188156001Y-52597000D01*
G75*
G02*
X188406000Y-52846999I0J-249999D01*
G01*
X188406000Y-53547001D01*
G75*
G02*
X188156001Y-53797000I-249999J0D01*
G01*
X187255999Y-53797000D01*
G75*
G02*
X187006000Y-53547001I0J249999D01*
G01*
X187006000Y-52846999D01*
G75*
G02*
X187255999Y-52597000I249999J0D01*
G01*
G37*
G36*
G01*
X187255999Y-50597000D02*
X188156001Y-50597000D01*
G75*
G02*
X188406000Y-50846999I0J-249999D01*
G01*
X188406000Y-51547001D01*
G75*
G02*
X188156001Y-51797000I-249999J0D01*
G01*
X187255999Y-51797000D01*
G75*
G02*
X187006000Y-51547001I0J249999D01*
G01*
X187006000Y-50846999D01*
G75*
G02*
X187255999Y-50597000I249999J0D01*
G01*
G37*
G04 #@! TD*
G04 #@! TO.C,R69*
G36*
G01*
X184004000Y-49841999D02*
X184004000Y-50742001D01*
G75*
G02*
X183754001Y-50992000I-249999J0D01*
G01*
X183053999Y-50992000D01*
G75*
G02*
X182804000Y-50742001I0J249999D01*
G01*
X182804000Y-49841999D01*
G75*
G02*
X183053999Y-49592000I249999J0D01*
G01*
X183754001Y-49592000D01*
G75*
G02*
X184004000Y-49841999I0J-249999D01*
G01*
G37*
G36*
G01*
X186004000Y-49841999D02*
X186004000Y-50742001D01*
G75*
G02*
X185754001Y-50992000I-249999J0D01*
G01*
X185053999Y-50992000D01*
G75*
G02*
X184804000Y-50742001I0J249999D01*
G01*
X184804000Y-49841999D01*
G75*
G02*
X185053999Y-49592000I249999J0D01*
G01*
X185754001Y-49592000D01*
G75*
G02*
X186004000Y-49841999I0J-249999D01*
G01*
G37*
G04 #@! TD*
G04 #@! TO.C,R68*
G36*
G01*
X184842999Y-45215000D02*
X185743001Y-45215000D01*
G75*
G02*
X185993000Y-45464999I0J-249999D01*
G01*
X185993000Y-46165001D01*
G75*
G02*
X185743001Y-46415000I-249999J0D01*
G01*
X184842999Y-46415000D01*
G75*
G02*
X184593000Y-46165001I0J249999D01*
G01*
X184593000Y-45464999D01*
G75*
G02*
X184842999Y-45215000I249999J0D01*
G01*
G37*
G36*
G01*
X184842999Y-43215000D02*
X185743001Y-43215000D01*
G75*
G02*
X185993000Y-43464999I0J-249999D01*
G01*
X185993000Y-44165001D01*
G75*
G02*
X185743001Y-44415000I-249999J0D01*
G01*
X184842999Y-44415000D01*
G75*
G02*
X184593000Y-44165001I0J249999D01*
G01*
X184593000Y-43464999D01*
G75*
G02*
X184842999Y-43215000I249999J0D01*
G01*
G37*
G04 #@! TD*
G04 #@! TO.C,R67*
G36*
G01*
X187763999Y-43072000D02*
X188664001Y-43072000D01*
G75*
G02*
X188914000Y-43321999I0J-249999D01*
G01*
X188914000Y-44022001D01*
G75*
G02*
X188664001Y-44272000I-249999J0D01*
G01*
X187763999Y-44272000D01*
G75*
G02*
X187514000Y-44022001I0J249999D01*
G01*
X187514000Y-43321999D01*
G75*
G02*
X187763999Y-43072000I249999J0D01*
G01*
G37*
G36*
G01*
X187763999Y-41072000D02*
X188664001Y-41072000D01*
G75*
G02*
X188914000Y-41321999I0J-249999D01*
G01*
X188914000Y-42022001D01*
G75*
G02*
X188664001Y-42272000I-249999J0D01*
G01*
X187763999Y-42272000D01*
G75*
G02*
X187514000Y-42022001I0J249999D01*
G01*
X187514000Y-41321999D01*
G75*
G02*
X187763999Y-41072000I249999J0D01*
G01*
G37*
G04 #@! TD*
G04 #@! TO.C,R66*
G36*
G01*
X184004000Y-40062999D02*
X184004000Y-40963001D01*
G75*
G02*
X183754001Y-41213000I-249999J0D01*
G01*
X183053999Y-41213000D01*
G75*
G02*
X182804000Y-40963001I0J249999D01*
G01*
X182804000Y-40062999D01*
G75*
G02*
X183053999Y-39813000I249999J0D01*
G01*
X183754001Y-39813000D01*
G75*
G02*
X184004000Y-40062999I0J-249999D01*
G01*
G37*
G36*
G01*
X186004000Y-40062999D02*
X186004000Y-40963001D01*
G75*
G02*
X185754001Y-41213000I-249999J0D01*
G01*
X185053999Y-41213000D01*
G75*
G02*
X184804000Y-40963001I0J249999D01*
G01*
X184804000Y-40062999D01*
G75*
G02*
X185053999Y-39813000I249999J0D01*
G01*
X185754001Y-39813000D01*
G75*
G02*
X186004000Y-40062999I0J-249999D01*
G01*
G37*
G04 #@! TD*
G04 #@! TO.C,R65*
G36*
G01*
X170009000Y-80915500D02*
X170009000Y-81390500D01*
G75*
G02*
X169771500Y-81628000I-237500J0D01*
G01*
X169271500Y-81628000D01*
G75*
G02*
X169034000Y-81390500I0J237500D01*
G01*
X169034000Y-80915500D01*
G75*
G02*
X169271500Y-80678000I237500J0D01*
G01*
X169771500Y-80678000D01*
G75*
G02*
X170009000Y-80915500I0J-237500D01*
G01*
G37*
G36*
G01*
X171834000Y-80915500D02*
X171834000Y-81390500D01*
G75*
G02*
X171596500Y-81628000I-237500J0D01*
G01*
X171096500Y-81628000D01*
G75*
G02*
X170859000Y-81390500I0J237500D01*
G01*
X170859000Y-80915500D01*
G75*
G02*
X171096500Y-80678000I237500J0D01*
G01*
X171596500Y-80678000D01*
G75*
G02*
X171834000Y-80915500I0J-237500D01*
G01*
G37*
G04 #@! TD*
G04 #@! TO.C,R64*
G36*
G01*
X169397500Y-71644500D02*
X169397500Y-72119500D01*
G75*
G02*
X169160000Y-72357000I-237500J0D01*
G01*
X168660000Y-72357000D01*
G75*
G02*
X168422500Y-72119500I0J237500D01*
G01*
X168422500Y-71644500D01*
G75*
G02*
X168660000Y-71407000I237500J0D01*
G01*
X169160000Y-71407000D01*
G75*
G02*
X169397500Y-71644500I0J-237500D01*
G01*
G37*
G36*
G01*
X171222500Y-71644500D02*
X171222500Y-72119500D01*
G75*
G02*
X170985000Y-72357000I-237500J0D01*
G01*
X170485000Y-72357000D01*
G75*
G02*
X170247500Y-72119500I0J237500D01*
G01*
X170247500Y-71644500D01*
G75*
G02*
X170485000Y-71407000I237500J0D01*
G01*
X170985000Y-71407000D01*
G75*
G02*
X171222500Y-71644500I0J-237500D01*
G01*
G37*
G04 #@! TD*
G04 #@! TO.C,R63*
G36*
G01*
X169604500Y-62373500D02*
X169604500Y-62848500D01*
G75*
G02*
X169367000Y-63086000I-237500J0D01*
G01*
X168867000Y-63086000D01*
G75*
G02*
X168629500Y-62848500I0J237500D01*
G01*
X168629500Y-62373500D01*
G75*
G02*
X168867000Y-62136000I237500J0D01*
G01*
X169367000Y-62136000D01*
G75*
G02*
X169604500Y-62373500I0J-237500D01*
G01*
G37*
G36*
G01*
X171429500Y-62373500D02*
X171429500Y-62848500D01*
G75*
G02*
X171192000Y-63086000I-237500J0D01*
G01*
X170692000Y-63086000D01*
G75*
G02*
X170454500Y-62848500I0J237500D01*
G01*
X170454500Y-62373500D01*
G75*
G02*
X170692000Y-62136000I237500J0D01*
G01*
X171192000Y-62136000D01*
G75*
G02*
X171429500Y-62373500I0J-237500D01*
G01*
G37*
G04 #@! TD*
G04 #@! TO.C,R62*
G36*
G01*
X169501000Y-50054500D02*
X169501000Y-50529500D01*
G75*
G02*
X169263500Y-50767000I-237500J0D01*
G01*
X168763500Y-50767000D01*
G75*
G02*
X168526000Y-50529500I0J237500D01*
G01*
X168526000Y-50054500D01*
G75*
G02*
X168763500Y-49817000I237500J0D01*
G01*
X169263500Y-49817000D01*
G75*
G02*
X169501000Y-50054500I0J-237500D01*
G01*
G37*
G36*
G01*
X171326000Y-50054500D02*
X171326000Y-50529500D01*
G75*
G02*
X171088500Y-50767000I-237500J0D01*
G01*
X170588500Y-50767000D01*
G75*
G02*
X170351000Y-50529500I0J237500D01*
G01*
X170351000Y-50054500D01*
G75*
G02*
X170588500Y-49817000I237500J0D01*
G01*
X171088500Y-49817000D01*
G75*
G02*
X171326000Y-50054500I0J-237500D01*
G01*
G37*
G04 #@! TD*
G04 #@! TO.C,R61*
G36*
G01*
X169628000Y-40148500D02*
X169628000Y-40623500D01*
G75*
G02*
X169390500Y-40861000I-237500J0D01*
G01*
X168890500Y-40861000D01*
G75*
G02*
X168653000Y-40623500I0J237500D01*
G01*
X168653000Y-40148500D01*
G75*
G02*
X168890500Y-39911000I237500J0D01*
G01*
X169390500Y-39911000D01*
G75*
G02*
X169628000Y-40148500I0J-237500D01*
G01*
G37*
G36*
G01*
X171453000Y-40148500D02*
X171453000Y-40623500D01*
G75*
G02*
X171215500Y-40861000I-237500J0D01*
G01*
X170715500Y-40861000D01*
G75*
G02*
X170478000Y-40623500I0J237500D01*
G01*
X170478000Y-40148500D01*
G75*
G02*
X170715500Y-39911000I237500J0D01*
G01*
X171215500Y-39911000D01*
G75*
G02*
X171453000Y-40148500I0J-237500D01*
G01*
G37*
G04 #@! TD*
G04 #@! TO.C,R60*
G36*
G01*
X165079000Y-83229000D02*
X165629000Y-83229000D01*
G75*
G02*
X165829000Y-83429000I0J-200000D01*
G01*
X165829000Y-83829000D01*
G75*
G02*
X165629000Y-84029000I-200000J0D01*
G01*
X165079000Y-84029000D01*
G75*
G02*
X164879000Y-83829000I0J200000D01*
G01*
X164879000Y-83429000D01*
G75*
G02*
X165079000Y-83229000I200000J0D01*
G01*
G37*
G36*
G01*
X165079000Y-81579000D02*
X165629000Y-81579000D01*
G75*
G02*
X165829000Y-81779000I0J-200000D01*
G01*
X165829000Y-82179000D01*
G75*
G02*
X165629000Y-82379000I-200000J0D01*
G01*
X165079000Y-82379000D01*
G75*
G02*
X164879000Y-82179000I0J200000D01*
G01*
X164879000Y-81779000D01*
G75*
G02*
X165079000Y-81579000I200000J0D01*
G01*
G37*
G04 #@! TD*
G04 #@! TO.C,R59*
G36*
G01*
X165079000Y-74085000D02*
X165629000Y-74085000D01*
G75*
G02*
X165829000Y-74285000I0J-200000D01*
G01*
X165829000Y-74685000D01*
G75*
G02*
X165629000Y-74885000I-200000J0D01*
G01*
X165079000Y-74885000D01*
G75*
G02*
X164879000Y-74685000I0J200000D01*
G01*
X164879000Y-74285000D01*
G75*
G02*
X165079000Y-74085000I200000J0D01*
G01*
G37*
G36*
G01*
X165079000Y-72435000D02*
X165629000Y-72435000D01*
G75*
G02*
X165829000Y-72635000I0J-200000D01*
G01*
X165829000Y-73035000D01*
G75*
G02*
X165629000Y-73235000I-200000J0D01*
G01*
X165079000Y-73235000D01*
G75*
G02*
X164879000Y-73035000I0J200000D01*
G01*
X164879000Y-72635000D01*
G75*
G02*
X165079000Y-72435000I200000J0D01*
G01*
G37*
G04 #@! TD*
G04 #@! TO.C,R58*
G36*
G01*
X165079000Y-64941000D02*
X165629000Y-64941000D01*
G75*
G02*
X165829000Y-65141000I0J-200000D01*
G01*
X165829000Y-65541000D01*
G75*
G02*
X165629000Y-65741000I-200000J0D01*
G01*
X165079000Y-65741000D01*
G75*
G02*
X164879000Y-65541000I0J200000D01*
G01*
X164879000Y-65141000D01*
G75*
G02*
X165079000Y-64941000I200000J0D01*
G01*
G37*
G36*
G01*
X165079000Y-63291000D02*
X165629000Y-63291000D01*
G75*
G02*
X165829000Y-63491000I0J-200000D01*
G01*
X165829000Y-63891000D01*
G75*
G02*
X165629000Y-64091000I-200000J0D01*
G01*
X165079000Y-64091000D01*
G75*
G02*
X164879000Y-63891000I0J200000D01*
G01*
X164879000Y-63491000D01*
G75*
G02*
X165079000Y-63291000I200000J0D01*
G01*
G37*
G04 #@! TD*
G04 #@! TO.C,R57*
G36*
G01*
X165079000Y-52431000D02*
X165629000Y-52431000D01*
G75*
G02*
X165829000Y-52631000I0J-200000D01*
G01*
X165829000Y-53031000D01*
G75*
G02*
X165629000Y-53231000I-200000J0D01*
G01*
X165079000Y-53231000D01*
G75*
G02*
X164879000Y-53031000I0J200000D01*
G01*
X164879000Y-52631000D01*
G75*
G02*
X165079000Y-52431000I200000J0D01*
G01*
G37*
G36*
G01*
X165079000Y-50781000D02*
X165629000Y-50781000D01*
G75*
G02*
X165829000Y-50981000I0J-200000D01*
G01*
X165829000Y-51381000D01*
G75*
G02*
X165629000Y-51581000I-200000J0D01*
G01*
X165079000Y-51581000D01*
G75*
G02*
X164879000Y-51381000I0J200000D01*
G01*
X164879000Y-50981000D01*
G75*
G02*
X165079000Y-50781000I200000J0D01*
G01*
G37*
G04 #@! TD*
G04 #@! TO.C,R56*
G36*
G01*
X165079000Y-42589000D02*
X165629000Y-42589000D01*
G75*
G02*
X165829000Y-42789000I0J-200000D01*
G01*
X165829000Y-43189000D01*
G75*
G02*
X165629000Y-43389000I-200000J0D01*
G01*
X165079000Y-43389000D01*
G75*
G02*
X164879000Y-43189000I0J200000D01*
G01*
X164879000Y-42789000D01*
G75*
G02*
X165079000Y-42589000I200000J0D01*
G01*
G37*
G36*
G01*
X165079000Y-40939000D02*
X165629000Y-40939000D01*
G75*
G02*
X165829000Y-41139000I0J-200000D01*
G01*
X165829000Y-41539000D01*
G75*
G02*
X165629000Y-41739000I-200000J0D01*
G01*
X165079000Y-41739000D01*
G75*
G02*
X164879000Y-41539000I0J200000D01*
G01*
X164879000Y-41139000D01*
G75*
G02*
X165079000Y-40939000I200000J0D01*
G01*
G37*
G04 #@! TD*
D12*
G04 #@! TO.C,Q2*
X195834000Y-85473000D03*
X199184000Y-82423000D03*
X195834000Y-82423000D03*
X199184000Y-85473000D03*
D13*
X191209000Y-86228000D03*
X191209000Y-81668000D03*
G04 #@! TD*
D12*
G04 #@! TO.C,Q4*
X195878000Y-66676000D03*
X199228000Y-63626000D03*
X195878000Y-63626000D03*
X199228000Y-66676000D03*
D13*
X191253000Y-67431000D03*
X191253000Y-62871000D03*
G04 #@! TD*
D12*
G04 #@! TO.C,Q5*
X196215000Y-54356000D03*
X199565000Y-51306000D03*
X196215000Y-51306000D03*
X199565000Y-54356000D03*
D13*
X191590000Y-55111000D03*
X191590000Y-50551000D03*
G04 #@! TD*
D12*
G04 #@! TO.C,Q6*
X196215000Y-44958000D03*
X199565000Y-41908000D03*
X196215000Y-41908000D03*
X199565000Y-44958000D03*
D13*
X191590000Y-45713000D03*
X191590000Y-41153000D03*
G04 #@! TD*
G04 #@! TO.C,D28*
G36*
G01*
X169428000Y-83118000D02*
X169428000Y-84268000D01*
G75*
G02*
X169178000Y-84518000I-250000J0D01*
G01*
X168078000Y-84518000D01*
G75*
G02*
X167828000Y-84268000I0J250000D01*
G01*
X167828000Y-83118000D01*
G75*
G02*
X168078000Y-82868000I250000J0D01*
G01*
X169178000Y-82868000D01*
G75*
G02*
X169428000Y-83118000I0J-250000D01*
G01*
G37*
G36*
G01*
X172278000Y-83118000D02*
X172278000Y-84268000D01*
G75*
G02*
X172028000Y-84518000I-250000J0D01*
G01*
X170928000Y-84518000D01*
G75*
G02*
X170678000Y-84268000I0J250000D01*
G01*
X170678000Y-83118000D01*
G75*
G02*
X170928000Y-82868000I250000J0D01*
G01*
X172028000Y-82868000D01*
G75*
G02*
X172278000Y-83118000I0J-250000D01*
G01*
G37*
G04 #@! TD*
G04 #@! TO.C,D27*
G36*
G01*
X169428000Y-73847000D02*
X169428000Y-74997000D01*
G75*
G02*
X169178000Y-75247000I-250000J0D01*
G01*
X168078000Y-75247000D01*
G75*
G02*
X167828000Y-74997000I0J250000D01*
G01*
X167828000Y-73847000D01*
G75*
G02*
X168078000Y-73597000I250000J0D01*
G01*
X169178000Y-73597000D01*
G75*
G02*
X169428000Y-73847000I0J-250000D01*
G01*
G37*
G36*
G01*
X172278000Y-73847000D02*
X172278000Y-74997000D01*
G75*
G02*
X172028000Y-75247000I-250000J0D01*
G01*
X170928000Y-75247000D01*
G75*
G02*
X170678000Y-74997000I0J250000D01*
G01*
X170678000Y-73847000D01*
G75*
G02*
X170928000Y-73597000I250000J0D01*
G01*
X172028000Y-73597000D01*
G75*
G02*
X172278000Y-73847000I0J-250000D01*
G01*
G37*
G04 #@! TD*
G04 #@! TO.C,D26*
G36*
G01*
X169428000Y-64576000D02*
X169428000Y-65726000D01*
G75*
G02*
X169178000Y-65976000I-250000J0D01*
G01*
X168078000Y-65976000D01*
G75*
G02*
X167828000Y-65726000I0J250000D01*
G01*
X167828000Y-64576000D01*
G75*
G02*
X168078000Y-64326000I250000J0D01*
G01*
X169178000Y-64326000D01*
G75*
G02*
X169428000Y-64576000I0J-250000D01*
G01*
G37*
G36*
G01*
X172278000Y-64576000D02*
X172278000Y-65726000D01*
G75*
G02*
X172028000Y-65976000I-250000J0D01*
G01*
X170928000Y-65976000D01*
G75*
G02*
X170678000Y-65726000I0J250000D01*
G01*
X170678000Y-64576000D01*
G75*
G02*
X170928000Y-64326000I250000J0D01*
G01*
X172028000Y-64326000D01*
G75*
G02*
X172278000Y-64576000I0J-250000D01*
G01*
G37*
G04 #@! TD*
G04 #@! TO.C,D25*
G36*
G01*
X169329000Y-52257000D02*
X169329000Y-53407000D01*
G75*
G02*
X169079000Y-53657000I-250000J0D01*
G01*
X167979000Y-53657000D01*
G75*
G02*
X167729000Y-53407000I0J250000D01*
G01*
X167729000Y-52257000D01*
G75*
G02*
X167979000Y-52007000I250000J0D01*
G01*
X169079000Y-52007000D01*
G75*
G02*
X169329000Y-52257000I0J-250000D01*
G01*
G37*
G36*
G01*
X172179000Y-52257000D02*
X172179000Y-53407000D01*
G75*
G02*
X171929000Y-53657000I-250000J0D01*
G01*
X170829000Y-53657000D01*
G75*
G02*
X170579000Y-53407000I0J250000D01*
G01*
X170579000Y-52257000D01*
G75*
G02*
X170829000Y-52007000I250000J0D01*
G01*
X171929000Y-52007000D01*
G75*
G02*
X172179000Y-52257000I0J-250000D01*
G01*
G37*
G04 #@! TD*
G04 #@! TO.C,D24*
G36*
G01*
X169301000Y-42351000D02*
X169301000Y-43501000D01*
G75*
G02*
X169051000Y-43751000I-250000J0D01*
G01*
X167951000Y-43751000D01*
G75*
G02*
X167701000Y-43501000I0J250000D01*
G01*
X167701000Y-42351000D01*
G75*
G02*
X167951000Y-42101000I250000J0D01*
G01*
X169051000Y-42101000D01*
G75*
G02*
X169301000Y-42351000I0J-250000D01*
G01*
G37*
G36*
G01*
X172151000Y-42351000D02*
X172151000Y-43501000D01*
G75*
G02*
X171901000Y-43751000I-250000J0D01*
G01*
X170801000Y-43751000D01*
G75*
G02*
X170551000Y-43501000I0J250000D01*
G01*
X170551000Y-42351000D01*
G75*
G02*
X170801000Y-42101000I250000J0D01*
G01*
X171901000Y-42101000D01*
G75*
G02*
X172151000Y-42351000I0J-250000D01*
G01*
G37*
G04 #@! TD*
D11*
G04 #@! TO.C,U28*
X174904000Y-90932000D03*
X181204000Y-93472000D03*
X174904000Y-93472000D03*
X181204000Y-90932000D03*
G04 #@! TD*
G04 #@! TO.C,D23*
G36*
G01*
X169428000Y-92897000D02*
X169428000Y-94047000D01*
G75*
G02*
X169178000Y-94297000I-250000J0D01*
G01*
X168078000Y-94297000D01*
G75*
G02*
X167828000Y-94047000I0J250000D01*
G01*
X167828000Y-92897000D01*
G75*
G02*
X168078000Y-92647000I250000J0D01*
G01*
X169178000Y-92647000D01*
G75*
G02*
X169428000Y-92897000I0J-250000D01*
G01*
G37*
G36*
G01*
X172278000Y-92897000D02*
X172278000Y-94047000D01*
G75*
G02*
X172028000Y-94297000I-250000J0D01*
G01*
X170928000Y-94297000D01*
G75*
G02*
X170678000Y-94047000I0J250000D01*
G01*
X170678000Y-92897000D01*
G75*
G02*
X170928000Y-92647000I250000J0D01*
G01*
X172028000Y-92647000D01*
G75*
G02*
X172278000Y-92897000I0J-250000D01*
G01*
G37*
G04 #@! TD*
G04 #@! TO.C,U27*
G36*
G01*
X157710000Y-54887000D02*
X157710000Y-54587000D01*
G75*
G02*
X157860000Y-54437000I150000J0D01*
G01*
X159510000Y-54437000D01*
G75*
G02*
X159660000Y-54587000I0J-150000D01*
G01*
X159660000Y-54887000D01*
G75*
G02*
X159510000Y-55037000I-150000J0D01*
G01*
X157860000Y-55037000D01*
G75*
G02*
X157710000Y-54887000I0J150000D01*
G01*
G37*
G36*
G01*
X157710000Y-56157000D02*
X157710000Y-55857000D01*
G75*
G02*
X157860000Y-55707000I150000J0D01*
G01*
X159510000Y-55707000D01*
G75*
G02*
X159660000Y-55857000I0J-150000D01*
G01*
X159660000Y-56157000D01*
G75*
G02*
X159510000Y-56307000I-150000J0D01*
G01*
X157860000Y-56307000D01*
G75*
G02*
X157710000Y-56157000I0J150000D01*
G01*
G37*
G36*
G01*
X157710000Y-57427000D02*
X157710000Y-57127000D01*
G75*
G02*
X157860000Y-56977000I150000J0D01*
G01*
X159510000Y-56977000D01*
G75*
G02*
X159660000Y-57127000I0J-150000D01*
G01*
X159660000Y-57427000D01*
G75*
G02*
X159510000Y-57577000I-150000J0D01*
G01*
X157860000Y-57577000D01*
G75*
G02*
X157710000Y-57427000I0J150000D01*
G01*
G37*
G36*
G01*
X157710000Y-58697000D02*
X157710000Y-58397000D01*
G75*
G02*
X157860000Y-58247000I150000J0D01*
G01*
X159510000Y-58247000D01*
G75*
G02*
X159660000Y-58397000I0J-150000D01*
G01*
X159660000Y-58697000D01*
G75*
G02*
X159510000Y-58847000I-150000J0D01*
G01*
X157860000Y-58847000D01*
G75*
G02*
X157710000Y-58697000I0J150000D01*
G01*
G37*
G36*
G01*
X157710000Y-59967000D02*
X157710000Y-59667000D01*
G75*
G02*
X157860000Y-59517000I150000J0D01*
G01*
X159510000Y-59517000D01*
G75*
G02*
X159660000Y-59667000I0J-150000D01*
G01*
X159660000Y-59967000D01*
G75*
G02*
X159510000Y-60117000I-150000J0D01*
G01*
X157860000Y-60117000D01*
G75*
G02*
X157710000Y-59967000I0J150000D01*
G01*
G37*
G36*
G01*
X157710000Y-61237000D02*
X157710000Y-60937000D01*
G75*
G02*
X157860000Y-60787000I150000J0D01*
G01*
X159510000Y-60787000D01*
G75*
G02*
X159660000Y-60937000I0J-150000D01*
G01*
X159660000Y-61237000D01*
G75*
G02*
X159510000Y-61387000I-150000J0D01*
G01*
X157860000Y-61387000D01*
G75*
G02*
X157710000Y-61237000I0J150000D01*
G01*
G37*
G36*
G01*
X157710000Y-62507000D02*
X157710000Y-62207000D01*
G75*
G02*
X157860000Y-62057000I150000J0D01*
G01*
X159510000Y-62057000D01*
G75*
G02*
X159660000Y-62207000I0J-150000D01*
G01*
X159660000Y-62507000D01*
G75*
G02*
X159510000Y-62657000I-150000J0D01*
G01*
X157860000Y-62657000D01*
G75*
G02*
X157710000Y-62507000I0J150000D01*
G01*
G37*
G36*
G01*
X152760000Y-62507000D02*
X152760000Y-62207000D01*
G75*
G02*
X152910000Y-62057000I150000J0D01*
G01*
X154560000Y-62057000D01*
G75*
G02*
X154710000Y-62207000I0J-150000D01*
G01*
X154710000Y-62507000D01*
G75*
G02*
X154560000Y-62657000I-150000J0D01*
G01*
X152910000Y-62657000D01*
G75*
G02*
X152760000Y-62507000I0J150000D01*
G01*
G37*
G36*
G01*
X152760000Y-61237000D02*
X152760000Y-60937000D01*
G75*
G02*
X152910000Y-60787000I150000J0D01*
G01*
X154560000Y-60787000D01*
G75*
G02*
X154710000Y-60937000I0J-150000D01*
G01*
X154710000Y-61237000D01*
G75*
G02*
X154560000Y-61387000I-150000J0D01*
G01*
X152910000Y-61387000D01*
G75*
G02*
X152760000Y-61237000I0J150000D01*
G01*
G37*
G36*
G01*
X152760000Y-59967000D02*
X152760000Y-59667000D01*
G75*
G02*
X152910000Y-59517000I150000J0D01*
G01*
X154560000Y-59517000D01*
G75*
G02*
X154710000Y-59667000I0J-150000D01*
G01*
X154710000Y-59967000D01*
G75*
G02*
X154560000Y-60117000I-150000J0D01*
G01*
X152910000Y-60117000D01*
G75*
G02*
X152760000Y-59967000I0J150000D01*
G01*
G37*
G36*
G01*
X152760000Y-58697000D02*
X152760000Y-58397000D01*
G75*
G02*
X152910000Y-58247000I150000J0D01*
G01*
X154560000Y-58247000D01*
G75*
G02*
X154710000Y-58397000I0J-150000D01*
G01*
X154710000Y-58697000D01*
G75*
G02*
X154560000Y-58847000I-150000J0D01*
G01*
X152910000Y-58847000D01*
G75*
G02*
X152760000Y-58697000I0J150000D01*
G01*
G37*
G36*
G01*
X152760000Y-57427000D02*
X152760000Y-57127000D01*
G75*
G02*
X152910000Y-56977000I150000J0D01*
G01*
X154560000Y-56977000D01*
G75*
G02*
X154710000Y-57127000I0J-150000D01*
G01*
X154710000Y-57427000D01*
G75*
G02*
X154560000Y-57577000I-150000J0D01*
G01*
X152910000Y-57577000D01*
G75*
G02*
X152760000Y-57427000I0J150000D01*
G01*
G37*
G36*
G01*
X152760000Y-56157000D02*
X152760000Y-55857000D01*
G75*
G02*
X152910000Y-55707000I150000J0D01*
G01*
X154560000Y-55707000D01*
G75*
G02*
X154710000Y-55857000I0J-150000D01*
G01*
X154710000Y-56157000D01*
G75*
G02*
X154560000Y-56307000I-150000J0D01*
G01*
X152910000Y-56307000D01*
G75*
G02*
X152760000Y-56157000I0J150000D01*
G01*
G37*
G36*
G01*
X152760000Y-54887000D02*
X152760000Y-54587000D01*
G75*
G02*
X152910000Y-54437000I150000J0D01*
G01*
X154560000Y-54437000D01*
G75*
G02*
X154710000Y-54587000I0J-150000D01*
G01*
X154710000Y-54887000D01*
G75*
G02*
X154560000Y-55037000I-150000J0D01*
G01*
X152910000Y-55037000D01*
G75*
G02*
X152760000Y-54887000I0J150000D01*
G01*
G37*
G04 #@! TD*
G04 #@! TO.C,U26*
G36*
G01*
X156440000Y-79271000D02*
X156440000Y-78971000D01*
G75*
G02*
X156590000Y-78821000I150000J0D01*
G01*
X158240000Y-78821000D01*
G75*
G02*
X158390000Y-78971000I0J-150000D01*
G01*
X158390000Y-79271000D01*
G75*
G02*
X158240000Y-79421000I-150000J0D01*
G01*
X156590000Y-79421000D01*
G75*
G02*
X156440000Y-79271000I0J150000D01*
G01*
G37*
G36*
G01*
X156440000Y-80541000D02*
X156440000Y-80241000D01*
G75*
G02*
X156590000Y-80091000I150000J0D01*
G01*
X158240000Y-80091000D01*
G75*
G02*
X158390000Y-80241000I0J-150000D01*
G01*
X158390000Y-80541000D01*
G75*
G02*
X158240000Y-80691000I-150000J0D01*
G01*
X156590000Y-80691000D01*
G75*
G02*
X156440000Y-80541000I0J150000D01*
G01*
G37*
G36*
G01*
X156440000Y-81811000D02*
X156440000Y-81511000D01*
G75*
G02*
X156590000Y-81361000I150000J0D01*
G01*
X158240000Y-81361000D01*
G75*
G02*
X158390000Y-81511000I0J-150000D01*
G01*
X158390000Y-81811000D01*
G75*
G02*
X158240000Y-81961000I-150000J0D01*
G01*
X156590000Y-81961000D01*
G75*
G02*
X156440000Y-81811000I0J150000D01*
G01*
G37*
G36*
G01*
X156440000Y-83081000D02*
X156440000Y-82781000D01*
G75*
G02*
X156590000Y-82631000I150000J0D01*
G01*
X158240000Y-82631000D01*
G75*
G02*
X158390000Y-82781000I0J-150000D01*
G01*
X158390000Y-83081000D01*
G75*
G02*
X158240000Y-83231000I-150000J0D01*
G01*
X156590000Y-83231000D01*
G75*
G02*
X156440000Y-83081000I0J150000D01*
G01*
G37*
G36*
G01*
X156440000Y-84351000D02*
X156440000Y-84051000D01*
G75*
G02*
X156590000Y-83901000I150000J0D01*
G01*
X158240000Y-83901000D01*
G75*
G02*
X158390000Y-84051000I0J-150000D01*
G01*
X158390000Y-84351000D01*
G75*
G02*
X158240000Y-84501000I-150000J0D01*
G01*
X156590000Y-84501000D01*
G75*
G02*
X156440000Y-84351000I0J150000D01*
G01*
G37*
G36*
G01*
X156440000Y-85621000D02*
X156440000Y-85321000D01*
G75*
G02*
X156590000Y-85171000I150000J0D01*
G01*
X158240000Y-85171000D01*
G75*
G02*
X158390000Y-85321000I0J-150000D01*
G01*
X158390000Y-85621000D01*
G75*
G02*
X158240000Y-85771000I-150000J0D01*
G01*
X156590000Y-85771000D01*
G75*
G02*
X156440000Y-85621000I0J150000D01*
G01*
G37*
G36*
G01*
X156440000Y-86891000D02*
X156440000Y-86591000D01*
G75*
G02*
X156590000Y-86441000I150000J0D01*
G01*
X158240000Y-86441000D01*
G75*
G02*
X158390000Y-86591000I0J-150000D01*
G01*
X158390000Y-86891000D01*
G75*
G02*
X158240000Y-87041000I-150000J0D01*
G01*
X156590000Y-87041000D01*
G75*
G02*
X156440000Y-86891000I0J150000D01*
G01*
G37*
G36*
G01*
X151490000Y-86891000D02*
X151490000Y-86591000D01*
G75*
G02*
X151640000Y-86441000I150000J0D01*
G01*
X153290000Y-86441000D01*
G75*
G02*
X153440000Y-86591000I0J-150000D01*
G01*
X153440000Y-86891000D01*
G75*
G02*
X153290000Y-87041000I-150000J0D01*
G01*
X151640000Y-87041000D01*
G75*
G02*
X151490000Y-86891000I0J150000D01*
G01*
G37*
G36*
G01*
X151490000Y-85621000D02*
X151490000Y-85321000D01*
G75*
G02*
X151640000Y-85171000I150000J0D01*
G01*
X153290000Y-85171000D01*
G75*
G02*
X153440000Y-85321000I0J-150000D01*
G01*
X153440000Y-85621000D01*
G75*
G02*
X153290000Y-85771000I-150000J0D01*
G01*
X151640000Y-85771000D01*
G75*
G02*
X151490000Y-85621000I0J150000D01*
G01*
G37*
G36*
G01*
X151490000Y-84351000D02*
X151490000Y-84051000D01*
G75*
G02*
X151640000Y-83901000I150000J0D01*
G01*
X153290000Y-83901000D01*
G75*
G02*
X153440000Y-84051000I0J-150000D01*
G01*
X153440000Y-84351000D01*
G75*
G02*
X153290000Y-84501000I-150000J0D01*
G01*
X151640000Y-84501000D01*
G75*
G02*
X151490000Y-84351000I0J150000D01*
G01*
G37*
G36*
G01*
X151490000Y-83081000D02*
X151490000Y-82781000D01*
G75*
G02*
X151640000Y-82631000I150000J0D01*
G01*
X153290000Y-82631000D01*
G75*
G02*
X153440000Y-82781000I0J-150000D01*
G01*
X153440000Y-83081000D01*
G75*
G02*
X153290000Y-83231000I-150000J0D01*
G01*
X151640000Y-83231000D01*
G75*
G02*
X151490000Y-83081000I0J150000D01*
G01*
G37*
G36*
G01*
X151490000Y-81811000D02*
X151490000Y-81511000D01*
G75*
G02*
X151640000Y-81361000I150000J0D01*
G01*
X153290000Y-81361000D01*
G75*
G02*
X153440000Y-81511000I0J-150000D01*
G01*
X153440000Y-81811000D01*
G75*
G02*
X153290000Y-81961000I-150000J0D01*
G01*
X151640000Y-81961000D01*
G75*
G02*
X151490000Y-81811000I0J150000D01*
G01*
G37*
G36*
G01*
X151490000Y-80541000D02*
X151490000Y-80241000D01*
G75*
G02*
X151640000Y-80091000I150000J0D01*
G01*
X153290000Y-80091000D01*
G75*
G02*
X153440000Y-80241000I0J-150000D01*
G01*
X153440000Y-80541000D01*
G75*
G02*
X153290000Y-80691000I-150000J0D01*
G01*
X151640000Y-80691000D01*
G75*
G02*
X151490000Y-80541000I0J150000D01*
G01*
G37*
G36*
G01*
X151490000Y-79271000D02*
X151490000Y-78971000D01*
G75*
G02*
X151640000Y-78821000I150000J0D01*
G01*
X153290000Y-78821000D01*
G75*
G02*
X153440000Y-78971000I0J-150000D01*
G01*
X153440000Y-79271000D01*
G75*
G02*
X153290000Y-79421000I-150000J0D01*
G01*
X151640000Y-79421000D01*
G75*
G02*
X151490000Y-79271000I0J150000D01*
G01*
G37*
G04 #@! TD*
G04 #@! TO.C,R55*
G36*
G01*
X184842999Y-94904000D02*
X185743001Y-94904000D01*
G75*
G02*
X185993000Y-95153999I0J-249999D01*
G01*
X185993000Y-95854001D01*
G75*
G02*
X185743001Y-96104000I-249999J0D01*
G01*
X184842999Y-96104000D01*
G75*
G02*
X184593000Y-95854001I0J249999D01*
G01*
X184593000Y-95153999D01*
G75*
G02*
X184842999Y-94904000I249999J0D01*
G01*
G37*
G36*
G01*
X184842999Y-92904000D02*
X185743001Y-92904000D01*
G75*
G02*
X185993000Y-93153999I0J-249999D01*
G01*
X185993000Y-93854001D01*
G75*
G02*
X185743001Y-94104000I-249999J0D01*
G01*
X184842999Y-94104000D01*
G75*
G02*
X184593000Y-93854001I0J249999D01*
G01*
X184593000Y-93153999D01*
G75*
G02*
X184842999Y-92904000I249999J0D01*
G01*
G37*
G04 #@! TD*
G04 #@! TO.C,R53*
G36*
G01*
X184131000Y-90481999D02*
X184131000Y-91382001D01*
G75*
G02*
X183881001Y-91632000I-249999J0D01*
G01*
X183180999Y-91632000D01*
G75*
G02*
X182931000Y-91382001I0J249999D01*
G01*
X182931000Y-90481999D01*
G75*
G02*
X183180999Y-90232000I249999J0D01*
G01*
X183881001Y-90232000D01*
G75*
G02*
X184131000Y-90481999I0J-249999D01*
G01*
G37*
G36*
G01*
X186131000Y-90481999D02*
X186131000Y-91382001D01*
G75*
G02*
X185881001Y-91632000I-249999J0D01*
G01*
X185180999Y-91632000D01*
G75*
G02*
X184931000Y-91382001I0J249999D01*
G01*
X184931000Y-90481999D01*
G75*
G02*
X185180999Y-90232000I249999J0D01*
G01*
X185881001Y-90232000D01*
G75*
G02*
X186131000Y-90481999I0J-249999D01*
G01*
G37*
G04 #@! TD*
G04 #@! TO.C,R52*
G36*
G01*
X169501000Y-90694500D02*
X169501000Y-91169500D01*
G75*
G02*
X169263500Y-91407000I-237500J0D01*
G01*
X168763500Y-91407000D01*
G75*
G02*
X168526000Y-91169500I0J237500D01*
G01*
X168526000Y-90694500D01*
G75*
G02*
X168763500Y-90457000I237500J0D01*
G01*
X169263500Y-90457000D01*
G75*
G02*
X169501000Y-90694500I0J-237500D01*
G01*
G37*
G36*
G01*
X171326000Y-90694500D02*
X171326000Y-91169500D01*
G75*
G02*
X171088500Y-91407000I-237500J0D01*
G01*
X170588500Y-91407000D01*
G75*
G02*
X170351000Y-91169500I0J237500D01*
G01*
X170351000Y-90694500D01*
G75*
G02*
X170588500Y-90457000I237500J0D01*
G01*
X171088500Y-90457000D01*
G75*
G02*
X171326000Y-90694500I0J-237500D01*
G01*
G37*
G04 #@! TD*
G04 #@! TO.C,R51*
G36*
G01*
X164952000Y-93135000D02*
X165502000Y-93135000D01*
G75*
G02*
X165702000Y-93335000I0J-200000D01*
G01*
X165702000Y-93735000D01*
G75*
G02*
X165502000Y-93935000I-200000J0D01*
G01*
X164952000Y-93935000D01*
G75*
G02*
X164752000Y-93735000I0J200000D01*
G01*
X164752000Y-93335000D01*
G75*
G02*
X164952000Y-93135000I200000J0D01*
G01*
G37*
G36*
G01*
X164952000Y-91485000D02*
X165502000Y-91485000D01*
G75*
G02*
X165702000Y-91685000I0J-200000D01*
G01*
X165702000Y-92085000D01*
G75*
G02*
X165502000Y-92285000I-200000J0D01*
G01*
X164952000Y-92285000D01*
G75*
G02*
X164752000Y-92085000I0J200000D01*
G01*
X164752000Y-91685000D01*
G75*
G02*
X164952000Y-91485000I200000J0D01*
G01*
G37*
G04 #@! TD*
G04 #@! TO.C,R50*
G36*
G01*
X152008000Y-67320000D02*
X152008000Y-68570000D01*
G75*
G02*
X151758000Y-68820000I-250000J0D01*
G01*
X150958000Y-68820000D01*
G75*
G02*
X150708000Y-68570000I0J250000D01*
G01*
X150708000Y-67320000D01*
G75*
G02*
X150958000Y-67070000I250000J0D01*
G01*
X151758000Y-67070000D01*
G75*
G02*
X152008000Y-67320000I0J-250000D01*
G01*
G37*
G36*
G01*
X155108000Y-67320000D02*
X155108000Y-68570000D01*
G75*
G02*
X154858000Y-68820000I-250000J0D01*
G01*
X154058000Y-68820000D01*
G75*
G02*
X153808000Y-68570000I0J250000D01*
G01*
X153808000Y-67320000D01*
G75*
G02*
X154058000Y-67070000I250000J0D01*
G01*
X154858000Y-67070000D01*
G75*
G02*
X155108000Y-67320000I0J-250000D01*
G01*
G37*
G04 #@! TD*
D12*
G04 #@! TO.C,Q1*
X195878000Y-94743000D03*
X199228000Y-91693000D03*
X195878000Y-91693000D03*
X199228000Y-94743000D03*
D13*
X191253000Y-95498000D03*
X191253000Y-90938000D03*
G04 #@! TD*
D15*
G04 #@! TO.C,U25*
X83337000Y-131431000D03*
X83337000Y-136031000D03*
X83337000Y-133731000D03*
D16*
X89637000Y-133731000D03*
G04 #@! TD*
G04 #@! TO.C,C22*
G36*
G01*
X86992000Y-150528000D02*
X86992000Y-151478000D01*
G75*
G02*
X86742000Y-151728000I-250000J0D01*
G01*
X86242000Y-151728000D01*
G75*
G02*
X85992000Y-151478000I0J250000D01*
G01*
X85992000Y-150528000D01*
G75*
G02*
X86242000Y-150278000I250000J0D01*
G01*
X86742000Y-150278000D01*
G75*
G02*
X86992000Y-150528000I0J-250000D01*
G01*
G37*
G36*
G01*
X88892000Y-150528000D02*
X88892000Y-151478000D01*
G75*
G02*
X88642000Y-151728000I-250000J0D01*
G01*
X88142000Y-151728000D01*
G75*
G02*
X87892000Y-151478000I0J250000D01*
G01*
X87892000Y-150528000D01*
G75*
G02*
X88142000Y-150278000I250000J0D01*
G01*
X88642000Y-150278000D01*
G75*
G02*
X88892000Y-150528000I0J-250000D01*
G01*
G37*
G04 #@! TD*
G04 #@! TO.C,C21*
G36*
G01*
X86045000Y-142833000D02*
X86045000Y-143933000D01*
G75*
G02*
X85795000Y-144183000I-250000J0D01*
G01*
X82795000Y-144183000D01*
G75*
G02*
X82545000Y-143933000I0J250000D01*
G01*
X82545000Y-142833000D01*
G75*
G02*
X82795000Y-142583000I250000J0D01*
G01*
X85795000Y-142583000D01*
G75*
G02*
X86045000Y-142833000I0J-250000D01*
G01*
G37*
G36*
G01*
X91445000Y-142833000D02*
X91445000Y-143933000D01*
G75*
G02*
X91195000Y-144183000I-250000J0D01*
G01*
X88195000Y-144183000D01*
G75*
G02*
X87945000Y-143933000I0J250000D01*
G01*
X87945000Y-142833000D01*
G75*
G02*
X88195000Y-142583000I250000J0D01*
G01*
X91195000Y-142583000D01*
G75*
G02*
X91445000Y-142833000I0J-250000D01*
G01*
G37*
G04 #@! TD*
G04 #@! TO.C,R49*
G36*
G01*
X99117999Y-134401000D02*
X100018001Y-134401000D01*
G75*
G02*
X100268000Y-134650999I0J-249999D01*
G01*
X100268000Y-135351001D01*
G75*
G02*
X100018001Y-135601000I-249999J0D01*
G01*
X99117999Y-135601000D01*
G75*
G02*
X98868000Y-135351001I0J249999D01*
G01*
X98868000Y-134650999D01*
G75*
G02*
X99117999Y-134401000I249999J0D01*
G01*
G37*
G36*
G01*
X99117999Y-132401000D02*
X100018001Y-132401000D01*
G75*
G02*
X100268000Y-132650999I0J-249999D01*
G01*
X100268000Y-133351001D01*
G75*
G02*
X100018001Y-133601000I-249999J0D01*
G01*
X99117999Y-133601000D01*
G75*
G02*
X98868000Y-133351001I0J249999D01*
G01*
X98868000Y-132650999D01*
G75*
G02*
X99117999Y-132401000I249999J0D01*
G01*
G37*
G04 #@! TD*
G04 #@! TO.C,R48*
G36*
G01*
X103701001Y-145777000D02*
X102800999Y-145777000D01*
G75*
G02*
X102551000Y-145527001I0J249999D01*
G01*
X102551000Y-144826999D01*
G75*
G02*
X102800999Y-144577000I249999J0D01*
G01*
X103701001Y-144577000D01*
G75*
G02*
X103951000Y-144826999I0J-249999D01*
G01*
X103951000Y-145527001D01*
G75*
G02*
X103701001Y-145777000I-249999J0D01*
G01*
G37*
G36*
G01*
X103701001Y-147777000D02*
X102800999Y-147777000D01*
G75*
G02*
X102551000Y-147527001I0J249999D01*
G01*
X102551000Y-146826999D01*
G75*
G02*
X102800999Y-146577000I249999J0D01*
G01*
X103701001Y-146577000D01*
G75*
G02*
X103951000Y-146826999I0J-249999D01*
G01*
X103951000Y-147527001D01*
G75*
G02*
X103701001Y-147777000I-249999J0D01*
G01*
G37*
G04 #@! TD*
G04 #@! TO.C,R47*
G36*
G01*
X102292999Y-134385000D02*
X103193001Y-134385000D01*
G75*
G02*
X103443000Y-134634999I0J-249999D01*
G01*
X103443000Y-135335001D01*
G75*
G02*
X103193001Y-135585000I-249999J0D01*
G01*
X102292999Y-135585000D01*
G75*
G02*
X102043000Y-135335001I0J249999D01*
G01*
X102043000Y-134634999D01*
G75*
G02*
X102292999Y-134385000I249999J0D01*
G01*
G37*
G36*
G01*
X102292999Y-132385000D02*
X103193001Y-132385000D01*
G75*
G02*
X103443000Y-132634999I0J-249999D01*
G01*
X103443000Y-133335001D01*
G75*
G02*
X103193001Y-133585000I-249999J0D01*
G01*
X102292999Y-133585000D01*
G75*
G02*
X102043000Y-133335001I0J249999D01*
G01*
X102043000Y-132634999D01*
G75*
G02*
X102292999Y-132385000I249999J0D01*
G01*
G37*
G04 #@! TD*
G04 #@! TO.C,R46*
G36*
G01*
X97847999Y-146831000D02*
X98748001Y-146831000D01*
G75*
G02*
X98998000Y-147080999I0J-249999D01*
G01*
X98998000Y-147781001D01*
G75*
G02*
X98748001Y-148031000I-249999J0D01*
G01*
X97847999Y-148031000D01*
G75*
G02*
X97598000Y-147781001I0J249999D01*
G01*
X97598000Y-147080999D01*
G75*
G02*
X97847999Y-146831000I249999J0D01*
G01*
G37*
G36*
G01*
X97847999Y-144831000D02*
X98748001Y-144831000D01*
G75*
G02*
X98998000Y-145080999I0J-249999D01*
G01*
X98998000Y-145781001D01*
G75*
G02*
X98748001Y-146031000I-249999J0D01*
G01*
X97847999Y-146031000D01*
G75*
G02*
X97598000Y-145781001I0J249999D01*
G01*
X97598000Y-145080999D01*
G75*
G02*
X97847999Y-144831000I249999J0D01*
G01*
G37*
G04 #@! TD*
G04 #@! TO.C,R45*
G36*
G01*
X124185000Y-155619000D02*
X124735000Y-155619000D01*
G75*
G02*
X124935000Y-155819000I0J-200000D01*
G01*
X124935000Y-156219000D01*
G75*
G02*
X124735000Y-156419000I-200000J0D01*
G01*
X124185000Y-156419000D01*
G75*
G02*
X123985000Y-156219000I0J200000D01*
G01*
X123985000Y-155819000D01*
G75*
G02*
X124185000Y-155619000I200000J0D01*
G01*
G37*
G36*
G01*
X124185000Y-153969000D02*
X124735000Y-153969000D01*
G75*
G02*
X124935000Y-154169000I0J-200000D01*
G01*
X124935000Y-154569000D01*
G75*
G02*
X124735000Y-154769000I-200000J0D01*
G01*
X124185000Y-154769000D01*
G75*
G02*
X123985000Y-154569000I0J200000D01*
G01*
X123985000Y-154169000D01*
G75*
G02*
X124185000Y-153969000I200000J0D01*
G01*
G37*
G04 #@! TD*
G04 #@! TO.C,R44*
G36*
G01*
X101367000Y-154896000D02*
X100817000Y-154896000D01*
G75*
G02*
X100617000Y-154696000I0J200000D01*
G01*
X100617000Y-154296000D01*
G75*
G02*
X100817000Y-154096000I200000J0D01*
G01*
X101367000Y-154096000D01*
G75*
G02*
X101567000Y-154296000I0J-200000D01*
G01*
X101567000Y-154696000D01*
G75*
G02*
X101367000Y-154896000I-200000J0D01*
G01*
G37*
G36*
G01*
X101367000Y-156546000D02*
X100817000Y-156546000D01*
G75*
G02*
X100617000Y-156346000I0J200000D01*
G01*
X100617000Y-155946000D01*
G75*
G02*
X100817000Y-155746000I200000J0D01*
G01*
X101367000Y-155746000D01*
G75*
G02*
X101567000Y-155946000I0J-200000D01*
G01*
X101567000Y-156346000D01*
G75*
G02*
X101367000Y-156546000I-200000J0D01*
G01*
G37*
G04 #@! TD*
G04 #@! TO.C,R40*
G36*
G01*
X105304000Y-133306000D02*
X104754000Y-133306000D01*
G75*
G02*
X104554000Y-133106000I0J200000D01*
G01*
X104554000Y-132706000D01*
G75*
G02*
X104754000Y-132506000I200000J0D01*
G01*
X105304000Y-132506000D01*
G75*
G02*
X105504000Y-132706000I0J-200000D01*
G01*
X105504000Y-133106000D01*
G75*
G02*
X105304000Y-133306000I-200000J0D01*
G01*
G37*
G36*
G01*
X105304000Y-134956000D02*
X104754000Y-134956000D01*
G75*
G02*
X104554000Y-134756000I0J200000D01*
G01*
X104554000Y-134356000D01*
G75*
G02*
X104754000Y-134156000I200000J0D01*
G01*
X105304000Y-134156000D01*
G75*
G02*
X105504000Y-134356000I0J-200000D01*
G01*
X105504000Y-134756000D01*
G75*
G02*
X105304000Y-134956000I-200000J0D01*
G01*
G37*
G04 #@! TD*
G04 #@! TO.C,L1*
G36*
G01*
X94291999Y-145484000D02*
X95192001Y-145484000D01*
G75*
G02*
X95442000Y-145733999I0J-249999D01*
G01*
X95442000Y-146384001D01*
G75*
G02*
X95192001Y-146634000I-249999J0D01*
G01*
X94291999Y-146634000D01*
G75*
G02*
X94042000Y-146384001I0J249999D01*
G01*
X94042000Y-145733999D01*
G75*
G02*
X94291999Y-145484000I249999J0D01*
G01*
G37*
G36*
G01*
X94291999Y-143434000D02*
X95192001Y-143434000D01*
G75*
G02*
X95442000Y-143683999I0J-249999D01*
G01*
X95442000Y-144334001D01*
G75*
G02*
X95192001Y-144584000I-249999J0D01*
G01*
X94291999Y-144584000D01*
G75*
G02*
X94042000Y-144334001I0J249999D01*
G01*
X94042000Y-143683999D01*
G75*
G02*
X94291999Y-143434000I249999J0D01*
G01*
G37*
G04 #@! TD*
G04 #@! TO.C,C20*
G36*
G01*
X94267000Y-150585500D02*
X95217000Y-150585500D01*
G75*
G02*
X95467000Y-150835500I0J-250000D01*
G01*
X95467000Y-151510500D01*
G75*
G02*
X95217000Y-151760500I-250000J0D01*
G01*
X94267000Y-151760500D01*
G75*
G02*
X94017000Y-151510500I0J250000D01*
G01*
X94017000Y-150835500D01*
G75*
G02*
X94267000Y-150585500I250000J0D01*
G01*
G37*
G36*
G01*
X94267000Y-148510500D02*
X95217000Y-148510500D01*
G75*
G02*
X95467000Y-148760500I0J-250000D01*
G01*
X95467000Y-149435500D01*
G75*
G02*
X95217000Y-149685500I-250000J0D01*
G01*
X94267000Y-149685500D01*
G75*
G02*
X94017000Y-149435500I0J250000D01*
G01*
X94017000Y-148760500D01*
G75*
G02*
X94267000Y-148510500I250000J0D01*
G01*
G37*
G04 #@! TD*
G04 #@! TO.C,C19*
G36*
G01*
X100363000Y-140277000D02*
X101313000Y-140277000D01*
G75*
G02*
X101563000Y-140527000I0J-250000D01*
G01*
X101563000Y-141202000D01*
G75*
G02*
X101313000Y-141452000I-250000J0D01*
G01*
X100363000Y-141452000D01*
G75*
G02*
X100113000Y-141202000I0J250000D01*
G01*
X100113000Y-140527000D01*
G75*
G02*
X100363000Y-140277000I250000J0D01*
G01*
G37*
G36*
G01*
X100363000Y-138202000D02*
X101313000Y-138202000D01*
G75*
G02*
X101563000Y-138452000I0J-250000D01*
G01*
X101563000Y-139127000D01*
G75*
G02*
X101313000Y-139377000I-250000J0D01*
G01*
X100363000Y-139377000D01*
G75*
G02*
X100113000Y-139127000I0J250000D01*
G01*
X100113000Y-138452000D01*
G75*
G02*
X100363000Y-138202000I250000J0D01*
G01*
G37*
G04 #@! TD*
G04 #@! TO.C,C18*
G36*
G01*
X129290000Y-137104000D02*
X129790000Y-137104000D01*
G75*
G02*
X130015000Y-137329000I0J-225000D01*
G01*
X130015000Y-137779000D01*
G75*
G02*
X129790000Y-138004000I-225000J0D01*
G01*
X129290000Y-138004000D01*
G75*
G02*
X129065000Y-137779000I0J225000D01*
G01*
X129065000Y-137329000D01*
G75*
G02*
X129290000Y-137104000I225000J0D01*
G01*
G37*
G36*
G01*
X129290000Y-135554000D02*
X129790000Y-135554000D01*
G75*
G02*
X130015000Y-135779000I0J-225000D01*
G01*
X130015000Y-136229000D01*
G75*
G02*
X129790000Y-136454000I-225000J0D01*
G01*
X129290000Y-136454000D01*
G75*
G02*
X129065000Y-136229000I0J225000D01*
G01*
X129065000Y-135779000D01*
G75*
G02*
X129290000Y-135554000I225000J0D01*
G01*
G37*
G04 #@! TD*
G04 #@! TO.C,C17*
G36*
G01*
X129790000Y-129850000D02*
X129290000Y-129850000D01*
G75*
G02*
X129065000Y-129625000I0J225000D01*
G01*
X129065000Y-129175000D01*
G75*
G02*
X129290000Y-128950000I225000J0D01*
G01*
X129790000Y-128950000D01*
G75*
G02*
X130015000Y-129175000I0J-225000D01*
G01*
X130015000Y-129625000D01*
G75*
G02*
X129790000Y-129850000I-225000J0D01*
G01*
G37*
G36*
G01*
X129790000Y-131400000D02*
X129290000Y-131400000D01*
G75*
G02*
X129065000Y-131175000I0J225000D01*
G01*
X129065000Y-130725000D01*
G75*
G02*
X129290000Y-130500000I225000J0D01*
G01*
X129790000Y-130500000D01*
G75*
G02*
X130015000Y-130725000I0J-225000D01*
G01*
X130015000Y-131175000D01*
G75*
G02*
X129790000Y-131400000I-225000J0D01*
G01*
G37*
G04 #@! TD*
G04 #@! TO.C,C16*
G36*
G01*
X87051000Y-155210500D02*
X87051000Y-155685500D01*
G75*
G02*
X86813500Y-155923000I-237500J0D01*
G01*
X86213500Y-155923000D01*
G75*
G02*
X85976000Y-155685500I0J237500D01*
G01*
X85976000Y-155210500D01*
G75*
G02*
X86213500Y-154973000I237500J0D01*
G01*
X86813500Y-154973000D01*
G75*
G02*
X87051000Y-155210500I0J-237500D01*
G01*
G37*
G36*
G01*
X88776000Y-155210500D02*
X88776000Y-155685500D01*
G75*
G02*
X88538500Y-155923000I-237500J0D01*
G01*
X87938500Y-155923000D01*
G75*
G02*
X87701000Y-155685500I0J237500D01*
G01*
X87701000Y-155210500D01*
G75*
G02*
X87938500Y-154973000I237500J0D01*
G01*
X88538500Y-154973000D01*
G75*
G02*
X88776000Y-155210500I0J-237500D01*
G01*
G37*
G04 #@! TD*
G04 #@! TO.C,C15*
G36*
G01*
X118966000Y-126444500D02*
X118016000Y-126444500D01*
G75*
G02*
X117766000Y-126194500I0J250000D01*
G01*
X117766000Y-125519500D01*
G75*
G02*
X118016000Y-125269500I250000J0D01*
G01*
X118966000Y-125269500D01*
G75*
G02*
X119216000Y-125519500I0J-250000D01*
G01*
X119216000Y-126194500D01*
G75*
G02*
X118966000Y-126444500I-250000J0D01*
G01*
G37*
G36*
G01*
X118966000Y-128519500D02*
X118016000Y-128519500D01*
G75*
G02*
X117766000Y-128269500I0J250000D01*
G01*
X117766000Y-127594500D01*
G75*
G02*
X118016000Y-127344500I250000J0D01*
G01*
X118966000Y-127344500D01*
G75*
G02*
X119216000Y-127594500I0J-250000D01*
G01*
X119216000Y-128269500D01*
G75*
G02*
X118966000Y-128519500I-250000J0D01*
G01*
G37*
G04 #@! TD*
G04 #@! TO.C,R43*
G36*
G01*
X96626000Y-138347000D02*
X97176000Y-138347000D01*
G75*
G02*
X97376000Y-138547000I0J-200000D01*
G01*
X97376000Y-138947000D01*
G75*
G02*
X97176000Y-139147000I-200000J0D01*
G01*
X96626000Y-139147000D01*
G75*
G02*
X96426000Y-138947000I0J200000D01*
G01*
X96426000Y-138547000D01*
G75*
G02*
X96626000Y-138347000I200000J0D01*
G01*
G37*
G36*
G01*
X96626000Y-136697000D02*
X97176000Y-136697000D01*
G75*
G02*
X97376000Y-136897000I0J-200000D01*
G01*
X97376000Y-137297000D01*
G75*
G02*
X97176000Y-137497000I-200000J0D01*
G01*
X96626000Y-137497000D01*
G75*
G02*
X96426000Y-137297000I0J200000D01*
G01*
X96426000Y-136897000D01*
G75*
G02*
X96626000Y-136697000I200000J0D01*
G01*
G37*
G04 #@! TD*
G04 #@! TO.C,R42*
G36*
G01*
X94594000Y-138347000D02*
X95144000Y-138347000D01*
G75*
G02*
X95344000Y-138547000I0J-200000D01*
G01*
X95344000Y-138947000D01*
G75*
G02*
X95144000Y-139147000I-200000J0D01*
G01*
X94594000Y-139147000D01*
G75*
G02*
X94394000Y-138947000I0J200000D01*
G01*
X94394000Y-138547000D01*
G75*
G02*
X94594000Y-138347000I200000J0D01*
G01*
G37*
G36*
G01*
X94594000Y-136697000D02*
X95144000Y-136697000D01*
G75*
G02*
X95344000Y-136897000I0J-200000D01*
G01*
X95344000Y-137297000D01*
G75*
G02*
X95144000Y-137497000I-200000J0D01*
G01*
X94594000Y-137497000D01*
G75*
G02*
X94394000Y-137297000I0J200000D01*
G01*
X94394000Y-136897000D01*
G75*
G02*
X94594000Y-136697000I200000J0D01*
G01*
G37*
G04 #@! TD*
G04 #@! TO.C,R41*
G36*
G01*
X92308000Y-138347000D02*
X92858000Y-138347000D01*
G75*
G02*
X93058000Y-138547000I0J-200000D01*
G01*
X93058000Y-138947000D01*
G75*
G02*
X92858000Y-139147000I-200000J0D01*
G01*
X92308000Y-139147000D01*
G75*
G02*
X92108000Y-138947000I0J200000D01*
G01*
X92108000Y-138547000D01*
G75*
G02*
X92308000Y-138347000I200000J0D01*
G01*
G37*
G36*
G01*
X92308000Y-136697000D02*
X92858000Y-136697000D01*
G75*
G02*
X93058000Y-136897000I0J-200000D01*
G01*
X93058000Y-137297000D01*
G75*
G02*
X92858000Y-137497000I-200000J0D01*
G01*
X92308000Y-137497000D01*
G75*
G02*
X92108000Y-137297000I0J200000D01*
G01*
X92108000Y-136897000D01*
G75*
G02*
X92308000Y-136697000I200000J0D01*
G01*
G37*
G04 #@! TD*
G04 #@! TO.C,U23*
G36*
G01*
X151995000Y-111021000D02*
X151995000Y-110721000D01*
G75*
G02*
X152145000Y-110571000I150000J0D01*
G01*
X153795000Y-110571000D01*
G75*
G02*
X153945000Y-110721000I0J-150000D01*
G01*
X153945000Y-111021000D01*
G75*
G02*
X153795000Y-111171000I-150000J0D01*
G01*
X152145000Y-111171000D01*
G75*
G02*
X151995000Y-111021000I0J150000D01*
G01*
G37*
G36*
G01*
X151995000Y-112291000D02*
X151995000Y-111991000D01*
G75*
G02*
X152145000Y-111841000I150000J0D01*
G01*
X153795000Y-111841000D01*
G75*
G02*
X153945000Y-111991000I0J-150000D01*
G01*
X153945000Y-112291000D01*
G75*
G02*
X153795000Y-112441000I-150000J0D01*
G01*
X152145000Y-112441000D01*
G75*
G02*
X151995000Y-112291000I0J150000D01*
G01*
G37*
G36*
G01*
X151995000Y-113561000D02*
X151995000Y-113261000D01*
G75*
G02*
X152145000Y-113111000I150000J0D01*
G01*
X153795000Y-113111000D01*
G75*
G02*
X153945000Y-113261000I0J-150000D01*
G01*
X153945000Y-113561000D01*
G75*
G02*
X153795000Y-113711000I-150000J0D01*
G01*
X152145000Y-113711000D01*
G75*
G02*
X151995000Y-113561000I0J150000D01*
G01*
G37*
G36*
G01*
X151995000Y-114831000D02*
X151995000Y-114531000D01*
G75*
G02*
X152145000Y-114381000I150000J0D01*
G01*
X153795000Y-114381000D01*
G75*
G02*
X153945000Y-114531000I0J-150000D01*
G01*
X153945000Y-114831000D01*
G75*
G02*
X153795000Y-114981000I-150000J0D01*
G01*
X152145000Y-114981000D01*
G75*
G02*
X151995000Y-114831000I0J150000D01*
G01*
G37*
G36*
G01*
X151995000Y-116101000D02*
X151995000Y-115801000D01*
G75*
G02*
X152145000Y-115651000I150000J0D01*
G01*
X153795000Y-115651000D01*
G75*
G02*
X153945000Y-115801000I0J-150000D01*
G01*
X153945000Y-116101000D01*
G75*
G02*
X153795000Y-116251000I-150000J0D01*
G01*
X152145000Y-116251000D01*
G75*
G02*
X151995000Y-116101000I0J150000D01*
G01*
G37*
G36*
G01*
X151995000Y-117371000D02*
X151995000Y-117071000D01*
G75*
G02*
X152145000Y-116921000I150000J0D01*
G01*
X153795000Y-116921000D01*
G75*
G02*
X153945000Y-117071000I0J-150000D01*
G01*
X153945000Y-117371000D01*
G75*
G02*
X153795000Y-117521000I-150000J0D01*
G01*
X152145000Y-117521000D01*
G75*
G02*
X151995000Y-117371000I0J150000D01*
G01*
G37*
G36*
G01*
X151995000Y-118641000D02*
X151995000Y-118341000D01*
G75*
G02*
X152145000Y-118191000I150000J0D01*
G01*
X153795000Y-118191000D01*
G75*
G02*
X153945000Y-118341000I0J-150000D01*
G01*
X153945000Y-118641000D01*
G75*
G02*
X153795000Y-118791000I-150000J0D01*
G01*
X152145000Y-118791000D01*
G75*
G02*
X151995000Y-118641000I0J150000D01*
G01*
G37*
G36*
G01*
X147045000Y-118641000D02*
X147045000Y-118341000D01*
G75*
G02*
X147195000Y-118191000I150000J0D01*
G01*
X148845000Y-118191000D01*
G75*
G02*
X148995000Y-118341000I0J-150000D01*
G01*
X148995000Y-118641000D01*
G75*
G02*
X148845000Y-118791000I-150000J0D01*
G01*
X147195000Y-118791000D01*
G75*
G02*
X147045000Y-118641000I0J150000D01*
G01*
G37*
G36*
G01*
X147045000Y-117371000D02*
X147045000Y-117071000D01*
G75*
G02*
X147195000Y-116921000I150000J0D01*
G01*
X148845000Y-116921000D01*
G75*
G02*
X148995000Y-117071000I0J-150000D01*
G01*
X148995000Y-117371000D01*
G75*
G02*
X148845000Y-117521000I-150000J0D01*
G01*
X147195000Y-117521000D01*
G75*
G02*
X147045000Y-117371000I0J150000D01*
G01*
G37*
G36*
G01*
X147045000Y-116101000D02*
X147045000Y-115801000D01*
G75*
G02*
X147195000Y-115651000I150000J0D01*
G01*
X148845000Y-115651000D01*
G75*
G02*
X148995000Y-115801000I0J-150000D01*
G01*
X148995000Y-116101000D01*
G75*
G02*
X148845000Y-116251000I-150000J0D01*
G01*
X147195000Y-116251000D01*
G75*
G02*
X147045000Y-116101000I0J150000D01*
G01*
G37*
G36*
G01*
X147045000Y-114831000D02*
X147045000Y-114531000D01*
G75*
G02*
X147195000Y-114381000I150000J0D01*
G01*
X148845000Y-114381000D01*
G75*
G02*
X148995000Y-114531000I0J-150000D01*
G01*
X148995000Y-114831000D01*
G75*
G02*
X148845000Y-114981000I-150000J0D01*
G01*
X147195000Y-114981000D01*
G75*
G02*
X147045000Y-114831000I0J150000D01*
G01*
G37*
G36*
G01*
X147045000Y-113561000D02*
X147045000Y-113261000D01*
G75*
G02*
X147195000Y-113111000I150000J0D01*
G01*
X148845000Y-113111000D01*
G75*
G02*
X148995000Y-113261000I0J-150000D01*
G01*
X148995000Y-113561000D01*
G75*
G02*
X148845000Y-113711000I-150000J0D01*
G01*
X147195000Y-113711000D01*
G75*
G02*
X147045000Y-113561000I0J150000D01*
G01*
G37*
G36*
G01*
X147045000Y-112291000D02*
X147045000Y-111991000D01*
G75*
G02*
X147195000Y-111841000I150000J0D01*
G01*
X148845000Y-111841000D01*
G75*
G02*
X148995000Y-111991000I0J-150000D01*
G01*
X148995000Y-112291000D01*
G75*
G02*
X148845000Y-112441000I-150000J0D01*
G01*
X147195000Y-112441000D01*
G75*
G02*
X147045000Y-112291000I0J150000D01*
G01*
G37*
G36*
G01*
X147045000Y-111021000D02*
X147045000Y-110721000D01*
G75*
G02*
X147195000Y-110571000I150000J0D01*
G01*
X148845000Y-110571000D01*
G75*
G02*
X148995000Y-110721000I0J-150000D01*
G01*
X148995000Y-111021000D01*
G75*
G02*
X148845000Y-111171000I-150000J0D01*
G01*
X147195000Y-111171000D01*
G75*
G02*
X147045000Y-111021000I0J150000D01*
G01*
G37*
G04 #@! TD*
G04 #@! TO.C,R39*
G36*
G01*
X174255000Y-106670000D02*
X174255000Y-105420000D01*
G75*
G02*
X174505000Y-105170000I250000J0D01*
G01*
X175305000Y-105170000D01*
G75*
G02*
X175555000Y-105420000I0J-250000D01*
G01*
X175555000Y-106670000D01*
G75*
G02*
X175305000Y-106920000I-250000J0D01*
G01*
X174505000Y-106920000D01*
G75*
G02*
X174255000Y-106670000I0J250000D01*
G01*
G37*
G36*
G01*
X171155000Y-106670000D02*
X171155000Y-105420000D01*
G75*
G02*
X171405000Y-105170000I250000J0D01*
G01*
X172205000Y-105170000D01*
G75*
G02*
X172455000Y-105420000I0J-250000D01*
G01*
X172455000Y-106670000D01*
G75*
G02*
X172205000Y-106920000I-250000J0D01*
G01*
X171405000Y-106920000D01*
G75*
G02*
X171155000Y-106670000I0J250000D01*
G01*
G37*
G04 #@! TD*
G04 #@! TO.C,R38*
G36*
G01*
X174255000Y-113909000D02*
X174255000Y-112659000D01*
G75*
G02*
X174505000Y-112409000I250000J0D01*
G01*
X175305000Y-112409000D01*
G75*
G02*
X175555000Y-112659000I0J-250000D01*
G01*
X175555000Y-113909000D01*
G75*
G02*
X175305000Y-114159000I-250000J0D01*
G01*
X174505000Y-114159000D01*
G75*
G02*
X174255000Y-113909000I0J250000D01*
G01*
G37*
G36*
G01*
X171155000Y-113909000D02*
X171155000Y-112659000D01*
G75*
G02*
X171405000Y-112409000I250000J0D01*
G01*
X172205000Y-112409000D01*
G75*
G02*
X172455000Y-112659000I0J-250000D01*
G01*
X172455000Y-113909000D01*
G75*
G02*
X172205000Y-114159000I-250000J0D01*
G01*
X171405000Y-114159000D01*
G75*
G02*
X171155000Y-113909000I0J250000D01*
G01*
G37*
G04 #@! TD*
G04 #@! TO.C,R37*
G36*
G01*
X174255000Y-121275000D02*
X174255000Y-120025000D01*
G75*
G02*
X174505000Y-119775000I250000J0D01*
G01*
X175305000Y-119775000D01*
G75*
G02*
X175555000Y-120025000I0J-250000D01*
G01*
X175555000Y-121275000D01*
G75*
G02*
X175305000Y-121525000I-250000J0D01*
G01*
X174505000Y-121525000D01*
G75*
G02*
X174255000Y-121275000I0J250000D01*
G01*
G37*
G36*
G01*
X171155000Y-121275000D02*
X171155000Y-120025000D01*
G75*
G02*
X171405000Y-119775000I250000J0D01*
G01*
X172205000Y-119775000D01*
G75*
G02*
X172455000Y-120025000I0J-250000D01*
G01*
X172455000Y-121275000D01*
G75*
G02*
X172205000Y-121525000I-250000J0D01*
G01*
X171405000Y-121525000D01*
G75*
G02*
X171155000Y-121275000I0J250000D01*
G01*
G37*
G04 #@! TD*
G04 #@! TO.C,R36*
G36*
G01*
X174255000Y-128641000D02*
X174255000Y-127391000D01*
G75*
G02*
X174505000Y-127141000I250000J0D01*
G01*
X175305000Y-127141000D01*
G75*
G02*
X175555000Y-127391000I0J-250000D01*
G01*
X175555000Y-128641000D01*
G75*
G02*
X175305000Y-128891000I-250000J0D01*
G01*
X174505000Y-128891000D01*
G75*
G02*
X174255000Y-128641000I0J250000D01*
G01*
G37*
G36*
G01*
X171155000Y-128641000D02*
X171155000Y-127391000D01*
G75*
G02*
X171405000Y-127141000I250000J0D01*
G01*
X172205000Y-127141000D01*
G75*
G02*
X172455000Y-127391000I0J-250000D01*
G01*
X172455000Y-128641000D01*
G75*
G02*
X172205000Y-128891000I-250000J0D01*
G01*
X171405000Y-128891000D01*
G75*
G02*
X171155000Y-128641000I0J250000D01*
G01*
G37*
G04 #@! TD*
G04 #@! TO.C,R35*
G36*
G01*
X174255000Y-136007000D02*
X174255000Y-134757000D01*
G75*
G02*
X174505000Y-134507000I250000J0D01*
G01*
X175305000Y-134507000D01*
G75*
G02*
X175555000Y-134757000I0J-250000D01*
G01*
X175555000Y-136007000D01*
G75*
G02*
X175305000Y-136257000I-250000J0D01*
G01*
X174505000Y-136257000D01*
G75*
G02*
X174255000Y-136007000I0J250000D01*
G01*
G37*
G36*
G01*
X171155000Y-136007000D02*
X171155000Y-134757000D01*
G75*
G02*
X171405000Y-134507000I250000J0D01*
G01*
X172205000Y-134507000D01*
G75*
G02*
X172455000Y-134757000I0J-250000D01*
G01*
X172455000Y-136007000D01*
G75*
G02*
X172205000Y-136257000I-250000J0D01*
G01*
X171405000Y-136257000D01*
G75*
G02*
X171155000Y-136007000I0J250000D01*
G01*
G37*
G04 #@! TD*
G04 #@! TO.C,R34*
G36*
G01*
X174255000Y-143373000D02*
X174255000Y-142123000D01*
G75*
G02*
X174505000Y-141873000I250000J0D01*
G01*
X175305000Y-141873000D01*
G75*
G02*
X175555000Y-142123000I0J-250000D01*
G01*
X175555000Y-143373000D01*
G75*
G02*
X175305000Y-143623000I-250000J0D01*
G01*
X174505000Y-143623000D01*
G75*
G02*
X174255000Y-143373000I0J250000D01*
G01*
G37*
G36*
G01*
X171155000Y-143373000D02*
X171155000Y-142123000D01*
G75*
G02*
X171405000Y-141873000I250000J0D01*
G01*
X172205000Y-141873000D01*
G75*
G02*
X172455000Y-142123000I0J-250000D01*
G01*
X172455000Y-143373000D01*
G75*
G02*
X172205000Y-143623000I-250000J0D01*
G01*
X171405000Y-143623000D01*
G75*
G02*
X171155000Y-143373000I0J250000D01*
G01*
G37*
G04 #@! TD*
G04 #@! TO.C,R33*
G36*
G01*
X174255000Y-150612000D02*
X174255000Y-149362000D01*
G75*
G02*
X174505000Y-149112000I250000J0D01*
G01*
X175305000Y-149112000D01*
G75*
G02*
X175555000Y-149362000I0J-250000D01*
G01*
X175555000Y-150612000D01*
G75*
G02*
X175305000Y-150862000I-250000J0D01*
G01*
X174505000Y-150862000D01*
G75*
G02*
X174255000Y-150612000I0J250000D01*
G01*
G37*
G36*
G01*
X171155000Y-150612000D02*
X171155000Y-149362000D01*
G75*
G02*
X171405000Y-149112000I250000J0D01*
G01*
X172205000Y-149112000D01*
G75*
G02*
X172455000Y-149362000I0J-250000D01*
G01*
X172455000Y-150612000D01*
G75*
G02*
X172205000Y-150862000I-250000J0D01*
G01*
X171405000Y-150862000D01*
G75*
G02*
X171155000Y-150612000I0J250000D01*
G01*
G37*
G04 #@! TD*
G04 #@! TO.C,R32*
G36*
G01*
X174255000Y-158105000D02*
X174255000Y-156855000D01*
G75*
G02*
X174505000Y-156605000I250000J0D01*
G01*
X175305000Y-156605000D01*
G75*
G02*
X175555000Y-156855000I0J-250000D01*
G01*
X175555000Y-158105000D01*
G75*
G02*
X175305000Y-158355000I-250000J0D01*
G01*
X174505000Y-158355000D01*
G75*
G02*
X174255000Y-158105000I0J250000D01*
G01*
G37*
G36*
G01*
X171155000Y-158105000D02*
X171155000Y-156855000D01*
G75*
G02*
X171405000Y-156605000I250000J0D01*
G01*
X172205000Y-156605000D01*
G75*
G02*
X172455000Y-156855000I0J-250000D01*
G01*
X172455000Y-158105000D01*
G75*
G02*
X172205000Y-158355000I-250000J0D01*
G01*
X171405000Y-158355000D01*
G75*
G02*
X171155000Y-158105000I0J250000D01*
G01*
G37*
G04 #@! TD*
G04 #@! TO.C,R31*
G36*
G01*
X138293000Y-123433000D02*
X137043000Y-123433000D01*
G75*
G02*
X136793000Y-123183000I0J250000D01*
G01*
X136793000Y-122383000D01*
G75*
G02*
X137043000Y-122133000I250000J0D01*
G01*
X138293000Y-122133000D01*
G75*
G02*
X138543000Y-122383000I0J-250000D01*
G01*
X138543000Y-123183000D01*
G75*
G02*
X138293000Y-123433000I-250000J0D01*
G01*
G37*
G36*
G01*
X138293000Y-126533000D02*
X137043000Y-126533000D01*
G75*
G02*
X136793000Y-126283000I0J250000D01*
G01*
X136793000Y-125483000D01*
G75*
G02*
X137043000Y-125233000I250000J0D01*
G01*
X138293000Y-125233000D01*
G75*
G02*
X138543000Y-125483000I0J-250000D01*
G01*
X138543000Y-126283000D01*
G75*
G02*
X138293000Y-126533000I-250000J0D01*
G01*
G37*
G04 #@! TD*
G04 #@! TO.C,R30*
G36*
G01*
X76348000Y-104223000D02*
X75798000Y-104223000D01*
G75*
G02*
X75598000Y-104023000I0J200000D01*
G01*
X75598000Y-103623000D01*
G75*
G02*
X75798000Y-103423000I200000J0D01*
G01*
X76348000Y-103423000D01*
G75*
G02*
X76548000Y-103623000I0J-200000D01*
G01*
X76548000Y-104023000D01*
G75*
G02*
X76348000Y-104223000I-200000J0D01*
G01*
G37*
G36*
G01*
X76348000Y-105873000D02*
X75798000Y-105873000D01*
G75*
G02*
X75598000Y-105673000I0J200000D01*
G01*
X75598000Y-105273000D01*
G75*
G02*
X75798000Y-105073000I200000J0D01*
G01*
X76348000Y-105073000D01*
G75*
G02*
X76548000Y-105273000I0J-200000D01*
G01*
X76548000Y-105673000D01*
G75*
G02*
X76348000Y-105873000I-200000J0D01*
G01*
G37*
G04 #@! TD*
G04 #@! TO.C,D22*
G36*
G01*
X167954000Y-105400000D02*
X169104000Y-105400000D01*
G75*
G02*
X169354000Y-105650000I0J-250000D01*
G01*
X169354000Y-106750000D01*
G75*
G02*
X169104000Y-107000000I-250000J0D01*
G01*
X167954000Y-107000000D01*
G75*
G02*
X167704000Y-106750000I0J250000D01*
G01*
X167704000Y-105650000D01*
G75*
G02*
X167954000Y-105400000I250000J0D01*
G01*
G37*
G36*
G01*
X167954000Y-102550000D02*
X169104000Y-102550000D01*
G75*
G02*
X169354000Y-102800000I0J-250000D01*
G01*
X169354000Y-103900000D01*
G75*
G02*
X169104000Y-104150000I-250000J0D01*
G01*
X167954000Y-104150000D01*
G75*
G02*
X167704000Y-103900000I0J250000D01*
G01*
X167704000Y-102800000D01*
G75*
G02*
X167954000Y-102550000I250000J0D01*
G01*
G37*
G04 #@! TD*
G04 #@! TO.C,D21*
G36*
G01*
X167954000Y-112639000D02*
X169104000Y-112639000D01*
G75*
G02*
X169354000Y-112889000I0J-250000D01*
G01*
X169354000Y-113989000D01*
G75*
G02*
X169104000Y-114239000I-250000J0D01*
G01*
X167954000Y-114239000D01*
G75*
G02*
X167704000Y-113989000I0J250000D01*
G01*
X167704000Y-112889000D01*
G75*
G02*
X167954000Y-112639000I250000J0D01*
G01*
G37*
G36*
G01*
X167954000Y-109789000D02*
X169104000Y-109789000D01*
G75*
G02*
X169354000Y-110039000I0J-250000D01*
G01*
X169354000Y-111139000D01*
G75*
G02*
X169104000Y-111389000I-250000J0D01*
G01*
X167954000Y-111389000D01*
G75*
G02*
X167704000Y-111139000I0J250000D01*
G01*
X167704000Y-110039000D01*
G75*
G02*
X167954000Y-109789000I250000J0D01*
G01*
G37*
G04 #@! TD*
G04 #@! TO.C,D20*
G36*
G01*
X167954000Y-119878000D02*
X169104000Y-119878000D01*
G75*
G02*
X169354000Y-120128000I0J-250000D01*
G01*
X169354000Y-121228000D01*
G75*
G02*
X169104000Y-121478000I-250000J0D01*
G01*
X167954000Y-121478000D01*
G75*
G02*
X167704000Y-121228000I0J250000D01*
G01*
X167704000Y-120128000D01*
G75*
G02*
X167954000Y-119878000I250000J0D01*
G01*
G37*
G36*
G01*
X167954000Y-117028000D02*
X169104000Y-117028000D01*
G75*
G02*
X169354000Y-117278000I0J-250000D01*
G01*
X169354000Y-118378000D01*
G75*
G02*
X169104000Y-118628000I-250000J0D01*
G01*
X167954000Y-118628000D01*
G75*
G02*
X167704000Y-118378000I0J250000D01*
G01*
X167704000Y-117278000D01*
G75*
G02*
X167954000Y-117028000I250000J0D01*
G01*
G37*
G04 #@! TD*
G04 #@! TO.C,D19*
G36*
G01*
X167954000Y-127244000D02*
X169104000Y-127244000D01*
G75*
G02*
X169354000Y-127494000I0J-250000D01*
G01*
X169354000Y-128594000D01*
G75*
G02*
X169104000Y-128844000I-250000J0D01*
G01*
X167954000Y-128844000D01*
G75*
G02*
X167704000Y-128594000I0J250000D01*
G01*
X167704000Y-127494000D01*
G75*
G02*
X167954000Y-127244000I250000J0D01*
G01*
G37*
G36*
G01*
X167954000Y-124394000D02*
X169104000Y-124394000D01*
G75*
G02*
X169354000Y-124644000I0J-250000D01*
G01*
X169354000Y-125744000D01*
G75*
G02*
X169104000Y-125994000I-250000J0D01*
G01*
X167954000Y-125994000D01*
G75*
G02*
X167704000Y-125744000I0J250000D01*
G01*
X167704000Y-124644000D01*
G75*
G02*
X167954000Y-124394000I250000J0D01*
G01*
G37*
G04 #@! TD*
G04 #@! TO.C,D18*
G36*
G01*
X167954000Y-134610000D02*
X169104000Y-134610000D01*
G75*
G02*
X169354000Y-134860000I0J-250000D01*
G01*
X169354000Y-135960000D01*
G75*
G02*
X169104000Y-136210000I-250000J0D01*
G01*
X167954000Y-136210000D01*
G75*
G02*
X167704000Y-135960000I0J250000D01*
G01*
X167704000Y-134860000D01*
G75*
G02*
X167954000Y-134610000I250000J0D01*
G01*
G37*
G36*
G01*
X167954000Y-131760000D02*
X169104000Y-131760000D01*
G75*
G02*
X169354000Y-132010000I0J-250000D01*
G01*
X169354000Y-133110000D01*
G75*
G02*
X169104000Y-133360000I-250000J0D01*
G01*
X167954000Y-133360000D01*
G75*
G02*
X167704000Y-133110000I0J250000D01*
G01*
X167704000Y-132010000D01*
G75*
G02*
X167954000Y-131760000I250000J0D01*
G01*
G37*
G04 #@! TD*
G04 #@! TO.C,D17*
G36*
G01*
X167954000Y-141976000D02*
X169104000Y-141976000D01*
G75*
G02*
X169354000Y-142226000I0J-250000D01*
G01*
X169354000Y-143326000D01*
G75*
G02*
X169104000Y-143576000I-250000J0D01*
G01*
X167954000Y-143576000D01*
G75*
G02*
X167704000Y-143326000I0J250000D01*
G01*
X167704000Y-142226000D01*
G75*
G02*
X167954000Y-141976000I250000J0D01*
G01*
G37*
G36*
G01*
X167954000Y-139126000D02*
X169104000Y-139126000D01*
G75*
G02*
X169354000Y-139376000I0J-250000D01*
G01*
X169354000Y-140476000D01*
G75*
G02*
X169104000Y-140726000I-250000J0D01*
G01*
X167954000Y-140726000D01*
G75*
G02*
X167704000Y-140476000I0J250000D01*
G01*
X167704000Y-139376000D01*
G75*
G02*
X167954000Y-139126000I250000J0D01*
G01*
G37*
G04 #@! TD*
G04 #@! TO.C,D16*
G36*
G01*
X167954000Y-149215000D02*
X169104000Y-149215000D01*
G75*
G02*
X169354000Y-149465000I0J-250000D01*
G01*
X169354000Y-150565000D01*
G75*
G02*
X169104000Y-150815000I-250000J0D01*
G01*
X167954000Y-150815000D01*
G75*
G02*
X167704000Y-150565000I0J250000D01*
G01*
X167704000Y-149465000D01*
G75*
G02*
X167954000Y-149215000I250000J0D01*
G01*
G37*
G36*
G01*
X167954000Y-146365000D02*
X169104000Y-146365000D01*
G75*
G02*
X169354000Y-146615000I0J-250000D01*
G01*
X169354000Y-147715000D01*
G75*
G02*
X169104000Y-147965000I-250000J0D01*
G01*
X167954000Y-147965000D01*
G75*
G02*
X167704000Y-147715000I0J250000D01*
G01*
X167704000Y-146615000D01*
G75*
G02*
X167954000Y-146365000I250000J0D01*
G01*
G37*
G04 #@! TD*
G04 #@! TO.C,D15*
G36*
G01*
X167954000Y-156708000D02*
X169104000Y-156708000D01*
G75*
G02*
X169354000Y-156958000I0J-250000D01*
G01*
X169354000Y-158058000D01*
G75*
G02*
X169104000Y-158308000I-250000J0D01*
G01*
X167954000Y-158308000D01*
G75*
G02*
X167704000Y-158058000I0J250000D01*
G01*
X167704000Y-156958000D01*
G75*
G02*
X167954000Y-156708000I250000J0D01*
G01*
G37*
G36*
G01*
X167954000Y-153858000D02*
X169104000Y-153858000D01*
G75*
G02*
X169354000Y-154108000I0J-250000D01*
G01*
X169354000Y-155208000D01*
G75*
G02*
X169104000Y-155458000I-250000J0D01*
G01*
X167954000Y-155458000D01*
G75*
G02*
X167704000Y-155208000I0J250000D01*
G01*
X167704000Y-154108000D01*
G75*
G02*
X167954000Y-153858000I250000J0D01*
G01*
G37*
G04 #@! TD*
G04 #@! TO.C,U22*
G36*
G01*
X148933000Y-149456000D02*
X148933000Y-149756000D01*
G75*
G02*
X148783000Y-149906000I-150000J0D01*
G01*
X147133000Y-149906000D01*
G75*
G02*
X146983000Y-149756000I0J150000D01*
G01*
X146983000Y-149456000D01*
G75*
G02*
X147133000Y-149306000I150000J0D01*
G01*
X148783000Y-149306000D01*
G75*
G02*
X148933000Y-149456000I0J-150000D01*
G01*
G37*
G36*
G01*
X148933000Y-148186000D02*
X148933000Y-148486000D01*
G75*
G02*
X148783000Y-148636000I-150000J0D01*
G01*
X147133000Y-148636000D01*
G75*
G02*
X146983000Y-148486000I0J150000D01*
G01*
X146983000Y-148186000D01*
G75*
G02*
X147133000Y-148036000I150000J0D01*
G01*
X148783000Y-148036000D01*
G75*
G02*
X148933000Y-148186000I0J-150000D01*
G01*
G37*
G36*
G01*
X148933000Y-146916000D02*
X148933000Y-147216000D01*
G75*
G02*
X148783000Y-147366000I-150000J0D01*
G01*
X147133000Y-147366000D01*
G75*
G02*
X146983000Y-147216000I0J150000D01*
G01*
X146983000Y-146916000D01*
G75*
G02*
X147133000Y-146766000I150000J0D01*
G01*
X148783000Y-146766000D01*
G75*
G02*
X148933000Y-146916000I0J-150000D01*
G01*
G37*
G36*
G01*
X148933000Y-145646000D02*
X148933000Y-145946000D01*
G75*
G02*
X148783000Y-146096000I-150000J0D01*
G01*
X147133000Y-146096000D01*
G75*
G02*
X146983000Y-145946000I0J150000D01*
G01*
X146983000Y-145646000D01*
G75*
G02*
X147133000Y-145496000I150000J0D01*
G01*
X148783000Y-145496000D01*
G75*
G02*
X148933000Y-145646000I0J-150000D01*
G01*
G37*
G36*
G01*
X148933000Y-144376000D02*
X148933000Y-144676000D01*
G75*
G02*
X148783000Y-144826000I-150000J0D01*
G01*
X147133000Y-144826000D01*
G75*
G02*
X146983000Y-144676000I0J150000D01*
G01*
X146983000Y-144376000D01*
G75*
G02*
X147133000Y-144226000I150000J0D01*
G01*
X148783000Y-144226000D01*
G75*
G02*
X148933000Y-144376000I0J-150000D01*
G01*
G37*
G36*
G01*
X148933000Y-143106000D02*
X148933000Y-143406000D01*
G75*
G02*
X148783000Y-143556000I-150000J0D01*
G01*
X147133000Y-143556000D01*
G75*
G02*
X146983000Y-143406000I0J150000D01*
G01*
X146983000Y-143106000D01*
G75*
G02*
X147133000Y-142956000I150000J0D01*
G01*
X148783000Y-142956000D01*
G75*
G02*
X148933000Y-143106000I0J-150000D01*
G01*
G37*
G36*
G01*
X148933000Y-141836000D02*
X148933000Y-142136000D01*
G75*
G02*
X148783000Y-142286000I-150000J0D01*
G01*
X147133000Y-142286000D01*
G75*
G02*
X146983000Y-142136000I0J150000D01*
G01*
X146983000Y-141836000D01*
G75*
G02*
X147133000Y-141686000I150000J0D01*
G01*
X148783000Y-141686000D01*
G75*
G02*
X148933000Y-141836000I0J-150000D01*
G01*
G37*
G36*
G01*
X153883000Y-141836000D02*
X153883000Y-142136000D01*
G75*
G02*
X153733000Y-142286000I-150000J0D01*
G01*
X152083000Y-142286000D01*
G75*
G02*
X151933000Y-142136000I0J150000D01*
G01*
X151933000Y-141836000D01*
G75*
G02*
X152083000Y-141686000I150000J0D01*
G01*
X153733000Y-141686000D01*
G75*
G02*
X153883000Y-141836000I0J-150000D01*
G01*
G37*
G36*
G01*
X153883000Y-143106000D02*
X153883000Y-143406000D01*
G75*
G02*
X153733000Y-143556000I-150000J0D01*
G01*
X152083000Y-143556000D01*
G75*
G02*
X151933000Y-143406000I0J150000D01*
G01*
X151933000Y-143106000D01*
G75*
G02*
X152083000Y-142956000I150000J0D01*
G01*
X153733000Y-142956000D01*
G75*
G02*
X153883000Y-143106000I0J-150000D01*
G01*
G37*
G36*
G01*
X153883000Y-144376000D02*
X153883000Y-144676000D01*
G75*
G02*
X153733000Y-144826000I-150000J0D01*
G01*
X152083000Y-144826000D01*
G75*
G02*
X151933000Y-144676000I0J150000D01*
G01*
X151933000Y-144376000D01*
G75*
G02*
X152083000Y-144226000I150000J0D01*
G01*
X153733000Y-144226000D01*
G75*
G02*
X153883000Y-144376000I0J-150000D01*
G01*
G37*
G36*
G01*
X153883000Y-145646000D02*
X153883000Y-145946000D01*
G75*
G02*
X153733000Y-146096000I-150000J0D01*
G01*
X152083000Y-146096000D01*
G75*
G02*
X151933000Y-145946000I0J150000D01*
G01*
X151933000Y-145646000D01*
G75*
G02*
X152083000Y-145496000I150000J0D01*
G01*
X153733000Y-145496000D01*
G75*
G02*
X153883000Y-145646000I0J-150000D01*
G01*
G37*
G36*
G01*
X153883000Y-146916000D02*
X153883000Y-147216000D01*
G75*
G02*
X153733000Y-147366000I-150000J0D01*
G01*
X152083000Y-147366000D01*
G75*
G02*
X151933000Y-147216000I0J150000D01*
G01*
X151933000Y-146916000D01*
G75*
G02*
X152083000Y-146766000I150000J0D01*
G01*
X153733000Y-146766000D01*
G75*
G02*
X153883000Y-146916000I0J-150000D01*
G01*
G37*
G36*
G01*
X153883000Y-148186000D02*
X153883000Y-148486000D01*
G75*
G02*
X153733000Y-148636000I-150000J0D01*
G01*
X152083000Y-148636000D01*
G75*
G02*
X151933000Y-148486000I0J150000D01*
G01*
X151933000Y-148186000D01*
G75*
G02*
X152083000Y-148036000I150000J0D01*
G01*
X153733000Y-148036000D01*
G75*
G02*
X153883000Y-148186000I0J-150000D01*
G01*
G37*
G36*
G01*
X153883000Y-149456000D02*
X153883000Y-149756000D01*
G75*
G02*
X153733000Y-149906000I-150000J0D01*
G01*
X152083000Y-149906000D01*
G75*
G02*
X151933000Y-149756000I0J150000D01*
G01*
X151933000Y-149456000D01*
G75*
G02*
X152083000Y-149306000I150000J0D01*
G01*
X153733000Y-149306000D01*
G75*
G02*
X153883000Y-149456000I0J-150000D01*
G01*
G37*
G04 #@! TD*
G04 #@! TO.C,R29*
G36*
G01*
X76348000Y-69933000D02*
X75798000Y-69933000D01*
G75*
G02*
X75598000Y-69733000I0J200000D01*
G01*
X75598000Y-69333000D01*
G75*
G02*
X75798000Y-69133000I200000J0D01*
G01*
X76348000Y-69133000D01*
G75*
G02*
X76548000Y-69333000I0J-200000D01*
G01*
X76548000Y-69733000D01*
G75*
G02*
X76348000Y-69933000I-200000J0D01*
G01*
G37*
G36*
G01*
X76348000Y-71583000D02*
X75798000Y-71583000D01*
G75*
G02*
X75598000Y-71383000I0J200000D01*
G01*
X75598000Y-70983000D01*
G75*
G02*
X75798000Y-70783000I200000J0D01*
G01*
X76348000Y-70783000D01*
G75*
G02*
X76548000Y-70983000I0J-200000D01*
G01*
X76548000Y-71383000D01*
G75*
G02*
X76348000Y-71583000I-200000J0D01*
G01*
G37*
G04 #@! TD*
G04 #@! TO.C,U21*
G36*
G01*
X154395000Y-125372000D02*
X154395000Y-125072000D01*
G75*
G02*
X154545000Y-124922000I150000J0D01*
G01*
X155995000Y-124922000D01*
G75*
G02*
X156145000Y-125072000I0J-150000D01*
G01*
X156145000Y-125372000D01*
G75*
G02*
X155995000Y-125522000I-150000J0D01*
G01*
X154545000Y-125522000D01*
G75*
G02*
X154395000Y-125372000I0J150000D01*
G01*
G37*
G36*
G01*
X154395000Y-126642000D02*
X154395000Y-126342000D01*
G75*
G02*
X154545000Y-126192000I150000J0D01*
G01*
X155995000Y-126192000D01*
G75*
G02*
X156145000Y-126342000I0J-150000D01*
G01*
X156145000Y-126642000D01*
G75*
G02*
X155995000Y-126792000I-150000J0D01*
G01*
X154545000Y-126792000D01*
G75*
G02*
X154395000Y-126642000I0J150000D01*
G01*
G37*
G36*
G01*
X154395000Y-127912000D02*
X154395000Y-127612000D01*
G75*
G02*
X154545000Y-127462000I150000J0D01*
G01*
X155995000Y-127462000D01*
G75*
G02*
X156145000Y-127612000I0J-150000D01*
G01*
X156145000Y-127912000D01*
G75*
G02*
X155995000Y-128062000I-150000J0D01*
G01*
X154545000Y-128062000D01*
G75*
G02*
X154395000Y-127912000I0J150000D01*
G01*
G37*
G36*
G01*
X154395000Y-129182000D02*
X154395000Y-128882000D01*
G75*
G02*
X154545000Y-128732000I150000J0D01*
G01*
X155995000Y-128732000D01*
G75*
G02*
X156145000Y-128882000I0J-150000D01*
G01*
X156145000Y-129182000D01*
G75*
G02*
X155995000Y-129332000I-150000J0D01*
G01*
X154545000Y-129332000D01*
G75*
G02*
X154395000Y-129182000I0J150000D01*
G01*
G37*
G36*
G01*
X154395000Y-130452000D02*
X154395000Y-130152000D01*
G75*
G02*
X154545000Y-130002000I150000J0D01*
G01*
X155995000Y-130002000D01*
G75*
G02*
X156145000Y-130152000I0J-150000D01*
G01*
X156145000Y-130452000D01*
G75*
G02*
X155995000Y-130602000I-150000J0D01*
G01*
X154545000Y-130602000D01*
G75*
G02*
X154395000Y-130452000I0J150000D01*
G01*
G37*
G36*
G01*
X154395000Y-131722000D02*
X154395000Y-131422000D01*
G75*
G02*
X154545000Y-131272000I150000J0D01*
G01*
X155995000Y-131272000D01*
G75*
G02*
X156145000Y-131422000I0J-150000D01*
G01*
X156145000Y-131722000D01*
G75*
G02*
X155995000Y-131872000I-150000J0D01*
G01*
X154545000Y-131872000D01*
G75*
G02*
X154395000Y-131722000I0J150000D01*
G01*
G37*
G36*
G01*
X154395000Y-132992000D02*
X154395000Y-132692000D01*
G75*
G02*
X154545000Y-132542000I150000J0D01*
G01*
X155995000Y-132542000D01*
G75*
G02*
X156145000Y-132692000I0J-150000D01*
G01*
X156145000Y-132992000D01*
G75*
G02*
X155995000Y-133142000I-150000J0D01*
G01*
X154545000Y-133142000D01*
G75*
G02*
X154395000Y-132992000I0J150000D01*
G01*
G37*
G36*
G01*
X154395000Y-134262000D02*
X154395000Y-133962000D01*
G75*
G02*
X154545000Y-133812000I150000J0D01*
G01*
X155995000Y-133812000D01*
G75*
G02*
X156145000Y-133962000I0J-150000D01*
G01*
X156145000Y-134262000D01*
G75*
G02*
X155995000Y-134412000I-150000J0D01*
G01*
X154545000Y-134412000D01*
G75*
G02*
X154395000Y-134262000I0J150000D01*
G01*
G37*
G36*
G01*
X154395000Y-135532000D02*
X154395000Y-135232000D01*
G75*
G02*
X154545000Y-135082000I150000J0D01*
G01*
X155995000Y-135082000D01*
G75*
G02*
X156145000Y-135232000I0J-150000D01*
G01*
X156145000Y-135532000D01*
G75*
G02*
X155995000Y-135682000I-150000J0D01*
G01*
X154545000Y-135682000D01*
G75*
G02*
X154395000Y-135532000I0J150000D01*
G01*
G37*
G36*
G01*
X144845000Y-135532000D02*
X144845000Y-135232000D01*
G75*
G02*
X144995000Y-135082000I150000J0D01*
G01*
X146445000Y-135082000D01*
G75*
G02*
X146595000Y-135232000I0J-150000D01*
G01*
X146595000Y-135532000D01*
G75*
G02*
X146445000Y-135682000I-150000J0D01*
G01*
X144995000Y-135682000D01*
G75*
G02*
X144845000Y-135532000I0J150000D01*
G01*
G37*
G36*
G01*
X144845000Y-134262000D02*
X144845000Y-133962000D01*
G75*
G02*
X144995000Y-133812000I150000J0D01*
G01*
X146445000Y-133812000D01*
G75*
G02*
X146595000Y-133962000I0J-150000D01*
G01*
X146595000Y-134262000D01*
G75*
G02*
X146445000Y-134412000I-150000J0D01*
G01*
X144995000Y-134412000D01*
G75*
G02*
X144845000Y-134262000I0J150000D01*
G01*
G37*
G36*
G01*
X144845000Y-132992000D02*
X144845000Y-132692000D01*
G75*
G02*
X144995000Y-132542000I150000J0D01*
G01*
X146445000Y-132542000D01*
G75*
G02*
X146595000Y-132692000I0J-150000D01*
G01*
X146595000Y-132992000D01*
G75*
G02*
X146445000Y-133142000I-150000J0D01*
G01*
X144995000Y-133142000D01*
G75*
G02*
X144845000Y-132992000I0J150000D01*
G01*
G37*
G36*
G01*
X144845000Y-131722000D02*
X144845000Y-131422000D01*
G75*
G02*
X144995000Y-131272000I150000J0D01*
G01*
X146445000Y-131272000D01*
G75*
G02*
X146595000Y-131422000I0J-150000D01*
G01*
X146595000Y-131722000D01*
G75*
G02*
X146445000Y-131872000I-150000J0D01*
G01*
X144995000Y-131872000D01*
G75*
G02*
X144845000Y-131722000I0J150000D01*
G01*
G37*
G36*
G01*
X144845000Y-130452000D02*
X144845000Y-130152000D01*
G75*
G02*
X144995000Y-130002000I150000J0D01*
G01*
X146445000Y-130002000D01*
G75*
G02*
X146595000Y-130152000I0J-150000D01*
G01*
X146595000Y-130452000D01*
G75*
G02*
X146445000Y-130602000I-150000J0D01*
G01*
X144995000Y-130602000D01*
G75*
G02*
X144845000Y-130452000I0J150000D01*
G01*
G37*
G36*
G01*
X144845000Y-129182000D02*
X144845000Y-128882000D01*
G75*
G02*
X144995000Y-128732000I150000J0D01*
G01*
X146445000Y-128732000D01*
G75*
G02*
X146595000Y-128882000I0J-150000D01*
G01*
X146595000Y-129182000D01*
G75*
G02*
X146445000Y-129332000I-150000J0D01*
G01*
X144995000Y-129332000D01*
G75*
G02*
X144845000Y-129182000I0J150000D01*
G01*
G37*
G36*
G01*
X144845000Y-127912000D02*
X144845000Y-127612000D01*
G75*
G02*
X144995000Y-127462000I150000J0D01*
G01*
X146445000Y-127462000D01*
G75*
G02*
X146595000Y-127612000I0J-150000D01*
G01*
X146595000Y-127912000D01*
G75*
G02*
X146445000Y-128062000I-150000J0D01*
G01*
X144995000Y-128062000D01*
G75*
G02*
X144845000Y-127912000I0J150000D01*
G01*
G37*
G36*
G01*
X144845000Y-126642000D02*
X144845000Y-126342000D01*
G75*
G02*
X144995000Y-126192000I150000J0D01*
G01*
X146445000Y-126192000D01*
G75*
G02*
X146595000Y-126342000I0J-150000D01*
G01*
X146595000Y-126642000D01*
G75*
G02*
X146445000Y-126792000I-150000J0D01*
G01*
X144995000Y-126792000D01*
G75*
G02*
X144845000Y-126642000I0J150000D01*
G01*
G37*
G36*
G01*
X144845000Y-125372000D02*
X144845000Y-125072000D01*
G75*
G02*
X144995000Y-124922000I150000J0D01*
G01*
X146445000Y-124922000D01*
G75*
G02*
X146595000Y-125072000I0J-150000D01*
G01*
X146595000Y-125372000D01*
G75*
G02*
X146445000Y-125522000I-150000J0D01*
G01*
X144995000Y-125522000D01*
G75*
G02*
X144845000Y-125372000I0J150000D01*
G01*
G37*
G04 #@! TD*
D17*
G04 #@! TO.C,U20*
X91491000Y-92583000D03*
X91491000Y-93853000D03*
X91491000Y-95123000D03*
X91491000Y-96393000D03*
X91491000Y-97663000D03*
X91491000Y-98933000D03*
X91491000Y-100203000D03*
X91491000Y-101473000D03*
X91491000Y-102743000D03*
X91491000Y-104013000D03*
X81991000Y-104013000D03*
X81991000Y-102743000D03*
X81991000Y-101473000D03*
X81991000Y-100203000D03*
X81991000Y-92583000D03*
X81991000Y-93853000D03*
X81991000Y-95123000D03*
X81991000Y-96393000D03*
X81991000Y-97663000D03*
X81991000Y-98933000D03*
G04 #@! TD*
G04 #@! TO.C,U18*
X91491000Y-61722000D03*
X91491000Y-62992000D03*
X91491000Y-64262000D03*
X91491000Y-65532000D03*
X91491000Y-66802000D03*
X91491000Y-68072000D03*
X91491000Y-69342000D03*
X91491000Y-70612000D03*
X91491000Y-71882000D03*
X91491000Y-73152000D03*
X81991000Y-73152000D03*
X81991000Y-71882000D03*
X81991000Y-70612000D03*
X81991000Y-69342000D03*
X81991000Y-61722000D03*
X81991000Y-62992000D03*
X81991000Y-64262000D03*
X81991000Y-65532000D03*
X81991000Y-66802000D03*
X81991000Y-68072000D03*
G04 #@! TD*
G04 #@! TO.C,U17*
G36*
G01*
X88241000Y-112037000D02*
X88241000Y-111737000D01*
G75*
G02*
X88391000Y-111587000I150000J0D01*
G01*
X90041000Y-111587000D01*
G75*
G02*
X90191000Y-111737000I0J-150000D01*
G01*
X90191000Y-112037000D01*
G75*
G02*
X90041000Y-112187000I-150000J0D01*
G01*
X88391000Y-112187000D01*
G75*
G02*
X88241000Y-112037000I0J150000D01*
G01*
G37*
G36*
G01*
X88241000Y-113307000D02*
X88241000Y-113007000D01*
G75*
G02*
X88391000Y-112857000I150000J0D01*
G01*
X90041000Y-112857000D01*
G75*
G02*
X90191000Y-113007000I0J-150000D01*
G01*
X90191000Y-113307000D01*
G75*
G02*
X90041000Y-113457000I-150000J0D01*
G01*
X88391000Y-113457000D01*
G75*
G02*
X88241000Y-113307000I0J150000D01*
G01*
G37*
G36*
G01*
X88241000Y-114577000D02*
X88241000Y-114277000D01*
G75*
G02*
X88391000Y-114127000I150000J0D01*
G01*
X90041000Y-114127000D01*
G75*
G02*
X90191000Y-114277000I0J-150000D01*
G01*
X90191000Y-114577000D01*
G75*
G02*
X90041000Y-114727000I-150000J0D01*
G01*
X88391000Y-114727000D01*
G75*
G02*
X88241000Y-114577000I0J150000D01*
G01*
G37*
G36*
G01*
X88241000Y-115847000D02*
X88241000Y-115547000D01*
G75*
G02*
X88391000Y-115397000I150000J0D01*
G01*
X90041000Y-115397000D01*
G75*
G02*
X90191000Y-115547000I0J-150000D01*
G01*
X90191000Y-115847000D01*
G75*
G02*
X90041000Y-115997000I-150000J0D01*
G01*
X88391000Y-115997000D01*
G75*
G02*
X88241000Y-115847000I0J150000D01*
G01*
G37*
G36*
G01*
X88241000Y-117117000D02*
X88241000Y-116817000D01*
G75*
G02*
X88391000Y-116667000I150000J0D01*
G01*
X90041000Y-116667000D01*
G75*
G02*
X90191000Y-116817000I0J-150000D01*
G01*
X90191000Y-117117000D01*
G75*
G02*
X90041000Y-117267000I-150000J0D01*
G01*
X88391000Y-117267000D01*
G75*
G02*
X88241000Y-117117000I0J150000D01*
G01*
G37*
G36*
G01*
X88241000Y-118387000D02*
X88241000Y-118087000D01*
G75*
G02*
X88391000Y-117937000I150000J0D01*
G01*
X90041000Y-117937000D01*
G75*
G02*
X90191000Y-118087000I0J-150000D01*
G01*
X90191000Y-118387000D01*
G75*
G02*
X90041000Y-118537000I-150000J0D01*
G01*
X88391000Y-118537000D01*
G75*
G02*
X88241000Y-118387000I0J150000D01*
G01*
G37*
G36*
G01*
X88241000Y-119657000D02*
X88241000Y-119357000D01*
G75*
G02*
X88391000Y-119207000I150000J0D01*
G01*
X90041000Y-119207000D01*
G75*
G02*
X90191000Y-119357000I0J-150000D01*
G01*
X90191000Y-119657000D01*
G75*
G02*
X90041000Y-119807000I-150000J0D01*
G01*
X88391000Y-119807000D01*
G75*
G02*
X88241000Y-119657000I0J150000D01*
G01*
G37*
G36*
G01*
X83291000Y-119657000D02*
X83291000Y-119357000D01*
G75*
G02*
X83441000Y-119207000I150000J0D01*
G01*
X85091000Y-119207000D01*
G75*
G02*
X85241000Y-119357000I0J-150000D01*
G01*
X85241000Y-119657000D01*
G75*
G02*
X85091000Y-119807000I-150000J0D01*
G01*
X83441000Y-119807000D01*
G75*
G02*
X83291000Y-119657000I0J150000D01*
G01*
G37*
G36*
G01*
X83291000Y-118387000D02*
X83291000Y-118087000D01*
G75*
G02*
X83441000Y-117937000I150000J0D01*
G01*
X85091000Y-117937000D01*
G75*
G02*
X85241000Y-118087000I0J-150000D01*
G01*
X85241000Y-118387000D01*
G75*
G02*
X85091000Y-118537000I-150000J0D01*
G01*
X83441000Y-118537000D01*
G75*
G02*
X83291000Y-118387000I0J150000D01*
G01*
G37*
G36*
G01*
X83291000Y-117117000D02*
X83291000Y-116817000D01*
G75*
G02*
X83441000Y-116667000I150000J0D01*
G01*
X85091000Y-116667000D01*
G75*
G02*
X85241000Y-116817000I0J-150000D01*
G01*
X85241000Y-117117000D01*
G75*
G02*
X85091000Y-117267000I-150000J0D01*
G01*
X83441000Y-117267000D01*
G75*
G02*
X83291000Y-117117000I0J150000D01*
G01*
G37*
G36*
G01*
X83291000Y-115847000D02*
X83291000Y-115547000D01*
G75*
G02*
X83441000Y-115397000I150000J0D01*
G01*
X85091000Y-115397000D01*
G75*
G02*
X85241000Y-115547000I0J-150000D01*
G01*
X85241000Y-115847000D01*
G75*
G02*
X85091000Y-115997000I-150000J0D01*
G01*
X83441000Y-115997000D01*
G75*
G02*
X83291000Y-115847000I0J150000D01*
G01*
G37*
G36*
G01*
X83291000Y-114577000D02*
X83291000Y-114277000D01*
G75*
G02*
X83441000Y-114127000I150000J0D01*
G01*
X85091000Y-114127000D01*
G75*
G02*
X85241000Y-114277000I0J-150000D01*
G01*
X85241000Y-114577000D01*
G75*
G02*
X85091000Y-114727000I-150000J0D01*
G01*
X83441000Y-114727000D01*
G75*
G02*
X83291000Y-114577000I0J150000D01*
G01*
G37*
G36*
G01*
X83291000Y-113307000D02*
X83291000Y-113007000D01*
G75*
G02*
X83441000Y-112857000I150000J0D01*
G01*
X85091000Y-112857000D01*
G75*
G02*
X85241000Y-113007000I0J-150000D01*
G01*
X85241000Y-113307000D01*
G75*
G02*
X85091000Y-113457000I-150000J0D01*
G01*
X83441000Y-113457000D01*
G75*
G02*
X83291000Y-113307000I0J150000D01*
G01*
G37*
G36*
G01*
X83291000Y-112037000D02*
X83291000Y-111737000D01*
G75*
G02*
X83441000Y-111587000I150000J0D01*
G01*
X85091000Y-111587000D01*
G75*
G02*
X85241000Y-111737000I0J-150000D01*
G01*
X85241000Y-112037000D01*
G75*
G02*
X85091000Y-112187000I-150000J0D01*
G01*
X83441000Y-112187000D01*
G75*
G02*
X83291000Y-112037000I0J150000D01*
G01*
G37*
G04 #@! TD*
G04 #@! TO.C,U16*
G36*
G01*
X88241000Y-79017000D02*
X88241000Y-78717000D01*
G75*
G02*
X88391000Y-78567000I150000J0D01*
G01*
X90041000Y-78567000D01*
G75*
G02*
X90191000Y-78717000I0J-150000D01*
G01*
X90191000Y-79017000D01*
G75*
G02*
X90041000Y-79167000I-150000J0D01*
G01*
X88391000Y-79167000D01*
G75*
G02*
X88241000Y-79017000I0J150000D01*
G01*
G37*
G36*
G01*
X88241000Y-80287000D02*
X88241000Y-79987000D01*
G75*
G02*
X88391000Y-79837000I150000J0D01*
G01*
X90041000Y-79837000D01*
G75*
G02*
X90191000Y-79987000I0J-150000D01*
G01*
X90191000Y-80287000D01*
G75*
G02*
X90041000Y-80437000I-150000J0D01*
G01*
X88391000Y-80437000D01*
G75*
G02*
X88241000Y-80287000I0J150000D01*
G01*
G37*
G36*
G01*
X88241000Y-81557000D02*
X88241000Y-81257000D01*
G75*
G02*
X88391000Y-81107000I150000J0D01*
G01*
X90041000Y-81107000D01*
G75*
G02*
X90191000Y-81257000I0J-150000D01*
G01*
X90191000Y-81557000D01*
G75*
G02*
X90041000Y-81707000I-150000J0D01*
G01*
X88391000Y-81707000D01*
G75*
G02*
X88241000Y-81557000I0J150000D01*
G01*
G37*
G36*
G01*
X88241000Y-82827000D02*
X88241000Y-82527000D01*
G75*
G02*
X88391000Y-82377000I150000J0D01*
G01*
X90041000Y-82377000D01*
G75*
G02*
X90191000Y-82527000I0J-150000D01*
G01*
X90191000Y-82827000D01*
G75*
G02*
X90041000Y-82977000I-150000J0D01*
G01*
X88391000Y-82977000D01*
G75*
G02*
X88241000Y-82827000I0J150000D01*
G01*
G37*
G36*
G01*
X88241000Y-84097000D02*
X88241000Y-83797000D01*
G75*
G02*
X88391000Y-83647000I150000J0D01*
G01*
X90041000Y-83647000D01*
G75*
G02*
X90191000Y-83797000I0J-150000D01*
G01*
X90191000Y-84097000D01*
G75*
G02*
X90041000Y-84247000I-150000J0D01*
G01*
X88391000Y-84247000D01*
G75*
G02*
X88241000Y-84097000I0J150000D01*
G01*
G37*
G36*
G01*
X88241000Y-85367000D02*
X88241000Y-85067000D01*
G75*
G02*
X88391000Y-84917000I150000J0D01*
G01*
X90041000Y-84917000D01*
G75*
G02*
X90191000Y-85067000I0J-150000D01*
G01*
X90191000Y-85367000D01*
G75*
G02*
X90041000Y-85517000I-150000J0D01*
G01*
X88391000Y-85517000D01*
G75*
G02*
X88241000Y-85367000I0J150000D01*
G01*
G37*
G36*
G01*
X88241000Y-86637000D02*
X88241000Y-86337000D01*
G75*
G02*
X88391000Y-86187000I150000J0D01*
G01*
X90041000Y-86187000D01*
G75*
G02*
X90191000Y-86337000I0J-150000D01*
G01*
X90191000Y-86637000D01*
G75*
G02*
X90041000Y-86787000I-150000J0D01*
G01*
X88391000Y-86787000D01*
G75*
G02*
X88241000Y-86637000I0J150000D01*
G01*
G37*
G36*
G01*
X83291000Y-86637000D02*
X83291000Y-86337000D01*
G75*
G02*
X83441000Y-86187000I150000J0D01*
G01*
X85091000Y-86187000D01*
G75*
G02*
X85241000Y-86337000I0J-150000D01*
G01*
X85241000Y-86637000D01*
G75*
G02*
X85091000Y-86787000I-150000J0D01*
G01*
X83441000Y-86787000D01*
G75*
G02*
X83291000Y-86637000I0J150000D01*
G01*
G37*
G36*
G01*
X83291000Y-85367000D02*
X83291000Y-85067000D01*
G75*
G02*
X83441000Y-84917000I150000J0D01*
G01*
X85091000Y-84917000D01*
G75*
G02*
X85241000Y-85067000I0J-150000D01*
G01*
X85241000Y-85367000D01*
G75*
G02*
X85091000Y-85517000I-150000J0D01*
G01*
X83441000Y-85517000D01*
G75*
G02*
X83291000Y-85367000I0J150000D01*
G01*
G37*
G36*
G01*
X83291000Y-84097000D02*
X83291000Y-83797000D01*
G75*
G02*
X83441000Y-83647000I150000J0D01*
G01*
X85091000Y-83647000D01*
G75*
G02*
X85241000Y-83797000I0J-150000D01*
G01*
X85241000Y-84097000D01*
G75*
G02*
X85091000Y-84247000I-150000J0D01*
G01*
X83441000Y-84247000D01*
G75*
G02*
X83291000Y-84097000I0J150000D01*
G01*
G37*
G36*
G01*
X83291000Y-82827000D02*
X83291000Y-82527000D01*
G75*
G02*
X83441000Y-82377000I150000J0D01*
G01*
X85091000Y-82377000D01*
G75*
G02*
X85241000Y-82527000I0J-150000D01*
G01*
X85241000Y-82827000D01*
G75*
G02*
X85091000Y-82977000I-150000J0D01*
G01*
X83441000Y-82977000D01*
G75*
G02*
X83291000Y-82827000I0J150000D01*
G01*
G37*
G36*
G01*
X83291000Y-81557000D02*
X83291000Y-81257000D01*
G75*
G02*
X83441000Y-81107000I150000J0D01*
G01*
X85091000Y-81107000D01*
G75*
G02*
X85241000Y-81257000I0J-150000D01*
G01*
X85241000Y-81557000D01*
G75*
G02*
X85091000Y-81707000I-150000J0D01*
G01*
X83441000Y-81707000D01*
G75*
G02*
X83291000Y-81557000I0J150000D01*
G01*
G37*
G36*
G01*
X83291000Y-80287000D02*
X83291000Y-79987000D01*
G75*
G02*
X83441000Y-79837000I150000J0D01*
G01*
X85091000Y-79837000D01*
G75*
G02*
X85241000Y-79987000I0J-150000D01*
G01*
X85241000Y-80287000D01*
G75*
G02*
X85091000Y-80437000I-150000J0D01*
G01*
X83441000Y-80437000D01*
G75*
G02*
X83291000Y-80287000I0J150000D01*
G01*
G37*
G36*
G01*
X83291000Y-79017000D02*
X83291000Y-78717000D01*
G75*
G02*
X83441000Y-78567000I150000J0D01*
G01*
X85091000Y-78567000D01*
G75*
G02*
X85241000Y-78717000I0J-150000D01*
G01*
X85241000Y-79017000D01*
G75*
G02*
X85091000Y-79167000I-150000J0D01*
G01*
X83441000Y-79167000D01*
G75*
G02*
X83291000Y-79017000I0J150000D01*
G01*
G37*
G04 #@! TD*
G04 #@! TO.C,U15*
G36*
G01*
X88241000Y-48029000D02*
X88241000Y-47729000D01*
G75*
G02*
X88391000Y-47579000I150000J0D01*
G01*
X90041000Y-47579000D01*
G75*
G02*
X90191000Y-47729000I0J-150000D01*
G01*
X90191000Y-48029000D01*
G75*
G02*
X90041000Y-48179000I-150000J0D01*
G01*
X88391000Y-48179000D01*
G75*
G02*
X88241000Y-48029000I0J150000D01*
G01*
G37*
G36*
G01*
X88241000Y-49299000D02*
X88241000Y-48999000D01*
G75*
G02*
X88391000Y-48849000I150000J0D01*
G01*
X90041000Y-48849000D01*
G75*
G02*
X90191000Y-48999000I0J-150000D01*
G01*
X90191000Y-49299000D01*
G75*
G02*
X90041000Y-49449000I-150000J0D01*
G01*
X88391000Y-49449000D01*
G75*
G02*
X88241000Y-49299000I0J150000D01*
G01*
G37*
G36*
G01*
X88241000Y-50569000D02*
X88241000Y-50269000D01*
G75*
G02*
X88391000Y-50119000I150000J0D01*
G01*
X90041000Y-50119000D01*
G75*
G02*
X90191000Y-50269000I0J-150000D01*
G01*
X90191000Y-50569000D01*
G75*
G02*
X90041000Y-50719000I-150000J0D01*
G01*
X88391000Y-50719000D01*
G75*
G02*
X88241000Y-50569000I0J150000D01*
G01*
G37*
G36*
G01*
X88241000Y-51839000D02*
X88241000Y-51539000D01*
G75*
G02*
X88391000Y-51389000I150000J0D01*
G01*
X90041000Y-51389000D01*
G75*
G02*
X90191000Y-51539000I0J-150000D01*
G01*
X90191000Y-51839000D01*
G75*
G02*
X90041000Y-51989000I-150000J0D01*
G01*
X88391000Y-51989000D01*
G75*
G02*
X88241000Y-51839000I0J150000D01*
G01*
G37*
G36*
G01*
X88241000Y-53109000D02*
X88241000Y-52809000D01*
G75*
G02*
X88391000Y-52659000I150000J0D01*
G01*
X90041000Y-52659000D01*
G75*
G02*
X90191000Y-52809000I0J-150000D01*
G01*
X90191000Y-53109000D01*
G75*
G02*
X90041000Y-53259000I-150000J0D01*
G01*
X88391000Y-53259000D01*
G75*
G02*
X88241000Y-53109000I0J150000D01*
G01*
G37*
G36*
G01*
X88241000Y-54379000D02*
X88241000Y-54079000D01*
G75*
G02*
X88391000Y-53929000I150000J0D01*
G01*
X90041000Y-53929000D01*
G75*
G02*
X90191000Y-54079000I0J-150000D01*
G01*
X90191000Y-54379000D01*
G75*
G02*
X90041000Y-54529000I-150000J0D01*
G01*
X88391000Y-54529000D01*
G75*
G02*
X88241000Y-54379000I0J150000D01*
G01*
G37*
G36*
G01*
X88241000Y-55649000D02*
X88241000Y-55349000D01*
G75*
G02*
X88391000Y-55199000I150000J0D01*
G01*
X90041000Y-55199000D01*
G75*
G02*
X90191000Y-55349000I0J-150000D01*
G01*
X90191000Y-55649000D01*
G75*
G02*
X90041000Y-55799000I-150000J0D01*
G01*
X88391000Y-55799000D01*
G75*
G02*
X88241000Y-55649000I0J150000D01*
G01*
G37*
G36*
G01*
X83291000Y-55649000D02*
X83291000Y-55349000D01*
G75*
G02*
X83441000Y-55199000I150000J0D01*
G01*
X85091000Y-55199000D01*
G75*
G02*
X85241000Y-55349000I0J-150000D01*
G01*
X85241000Y-55649000D01*
G75*
G02*
X85091000Y-55799000I-150000J0D01*
G01*
X83441000Y-55799000D01*
G75*
G02*
X83291000Y-55649000I0J150000D01*
G01*
G37*
G36*
G01*
X83291000Y-54379000D02*
X83291000Y-54079000D01*
G75*
G02*
X83441000Y-53929000I150000J0D01*
G01*
X85091000Y-53929000D01*
G75*
G02*
X85241000Y-54079000I0J-150000D01*
G01*
X85241000Y-54379000D01*
G75*
G02*
X85091000Y-54529000I-150000J0D01*
G01*
X83441000Y-54529000D01*
G75*
G02*
X83291000Y-54379000I0J150000D01*
G01*
G37*
G36*
G01*
X83291000Y-53109000D02*
X83291000Y-52809000D01*
G75*
G02*
X83441000Y-52659000I150000J0D01*
G01*
X85091000Y-52659000D01*
G75*
G02*
X85241000Y-52809000I0J-150000D01*
G01*
X85241000Y-53109000D01*
G75*
G02*
X85091000Y-53259000I-150000J0D01*
G01*
X83441000Y-53259000D01*
G75*
G02*
X83291000Y-53109000I0J150000D01*
G01*
G37*
G36*
G01*
X83291000Y-51839000D02*
X83291000Y-51539000D01*
G75*
G02*
X83441000Y-51389000I150000J0D01*
G01*
X85091000Y-51389000D01*
G75*
G02*
X85241000Y-51539000I0J-150000D01*
G01*
X85241000Y-51839000D01*
G75*
G02*
X85091000Y-51989000I-150000J0D01*
G01*
X83441000Y-51989000D01*
G75*
G02*
X83291000Y-51839000I0J150000D01*
G01*
G37*
G36*
G01*
X83291000Y-50569000D02*
X83291000Y-50269000D01*
G75*
G02*
X83441000Y-50119000I150000J0D01*
G01*
X85091000Y-50119000D01*
G75*
G02*
X85241000Y-50269000I0J-150000D01*
G01*
X85241000Y-50569000D01*
G75*
G02*
X85091000Y-50719000I-150000J0D01*
G01*
X83441000Y-50719000D01*
G75*
G02*
X83291000Y-50569000I0J150000D01*
G01*
G37*
G36*
G01*
X83291000Y-49299000D02*
X83291000Y-48999000D01*
G75*
G02*
X83441000Y-48849000I150000J0D01*
G01*
X85091000Y-48849000D01*
G75*
G02*
X85241000Y-48999000I0J-150000D01*
G01*
X85241000Y-49299000D01*
G75*
G02*
X85091000Y-49449000I-150000J0D01*
G01*
X83441000Y-49449000D01*
G75*
G02*
X83291000Y-49299000I0J150000D01*
G01*
G37*
G36*
G01*
X83291000Y-48029000D02*
X83291000Y-47729000D01*
G75*
G02*
X83441000Y-47579000I150000J0D01*
G01*
X85091000Y-47579000D01*
G75*
G02*
X85241000Y-47729000I0J-150000D01*
G01*
X85241000Y-48029000D01*
G75*
G02*
X85091000Y-48179000I-150000J0D01*
G01*
X83441000Y-48179000D01*
G75*
G02*
X83291000Y-48029000I0J150000D01*
G01*
G37*
G04 #@! TD*
G04 #@! TO.C,R18*
G36*
G01*
X69640000Y-63648000D02*
X69640000Y-63098000D01*
G75*
G02*
X69840000Y-62898000I200000J0D01*
G01*
X70240000Y-62898000D01*
G75*
G02*
X70440000Y-63098000I0J-200000D01*
G01*
X70440000Y-63648000D01*
G75*
G02*
X70240000Y-63848000I-200000J0D01*
G01*
X69840000Y-63848000D01*
G75*
G02*
X69640000Y-63648000I0J200000D01*
G01*
G37*
G36*
G01*
X67990000Y-63648000D02*
X67990000Y-63098000D01*
G75*
G02*
X68190000Y-62898000I200000J0D01*
G01*
X68590000Y-62898000D01*
G75*
G02*
X68790000Y-63098000I0J-200000D01*
G01*
X68790000Y-63648000D01*
G75*
G02*
X68590000Y-63848000I-200000J0D01*
G01*
X68190000Y-63848000D01*
G75*
G02*
X67990000Y-63648000I0J200000D01*
G01*
G37*
G04 #@! TD*
G04 #@! TO.C,R23*
G36*
G01*
X69640000Y-90064000D02*
X69640000Y-89514000D01*
G75*
G02*
X69840000Y-89314000I200000J0D01*
G01*
X70240000Y-89314000D01*
G75*
G02*
X70440000Y-89514000I0J-200000D01*
G01*
X70440000Y-90064000D01*
G75*
G02*
X70240000Y-90264000I-200000J0D01*
G01*
X69840000Y-90264000D01*
G75*
G02*
X69640000Y-90064000I0J200000D01*
G01*
G37*
G36*
G01*
X67990000Y-90064000D02*
X67990000Y-89514000D01*
G75*
G02*
X68190000Y-89314000I200000J0D01*
G01*
X68590000Y-89314000D01*
G75*
G02*
X68790000Y-89514000I0J-200000D01*
G01*
X68790000Y-90064000D01*
G75*
G02*
X68590000Y-90264000I-200000J0D01*
G01*
X68190000Y-90264000D01*
G75*
G02*
X67990000Y-90064000I0J200000D01*
G01*
G37*
G04 #@! TD*
G04 #@! TO.C,R8*
G36*
G01*
X38851000Y-83830000D02*
X38851000Y-85080000D01*
G75*
G02*
X38601000Y-85330000I-250000J0D01*
G01*
X37801000Y-85330000D01*
G75*
G02*
X37551000Y-85080000I0J250000D01*
G01*
X37551000Y-83830000D01*
G75*
G02*
X37801000Y-83580000I250000J0D01*
G01*
X38601000Y-83580000D01*
G75*
G02*
X38851000Y-83830000I0J-250000D01*
G01*
G37*
G36*
G01*
X41951000Y-83830000D02*
X41951000Y-85080000D01*
G75*
G02*
X41701000Y-85330000I-250000J0D01*
G01*
X40901000Y-85330000D01*
G75*
G02*
X40651000Y-85080000I0J250000D01*
G01*
X40651000Y-83830000D01*
G75*
G02*
X40901000Y-83580000I250000J0D01*
G01*
X41701000Y-83580000D01*
G75*
G02*
X41951000Y-83830000I0J-250000D01*
G01*
G37*
G04 #@! TD*
G04 #@! TO.C,R28*
G36*
G01*
X69640000Y-116734000D02*
X69640000Y-116184000D01*
G75*
G02*
X69840000Y-115984000I200000J0D01*
G01*
X70240000Y-115984000D01*
G75*
G02*
X70440000Y-116184000I0J-200000D01*
G01*
X70440000Y-116734000D01*
G75*
G02*
X70240000Y-116934000I-200000J0D01*
G01*
X69840000Y-116934000D01*
G75*
G02*
X69640000Y-116734000I0J200000D01*
G01*
G37*
G36*
G01*
X67990000Y-116734000D02*
X67990000Y-116184000D01*
G75*
G02*
X68190000Y-115984000I200000J0D01*
G01*
X68590000Y-115984000D01*
G75*
G02*
X68790000Y-116184000I0J-200000D01*
G01*
X68790000Y-116734000D01*
G75*
G02*
X68590000Y-116934000I-200000J0D01*
G01*
X68190000Y-116934000D01*
G75*
G02*
X67990000Y-116734000I0J200000D01*
G01*
G37*
G04 #@! TD*
G04 #@! TO.C,R27*
G36*
G01*
X69640000Y-110892000D02*
X69640000Y-110342000D01*
G75*
G02*
X69840000Y-110142000I200000J0D01*
G01*
X70240000Y-110142000D01*
G75*
G02*
X70440000Y-110342000I0J-200000D01*
G01*
X70440000Y-110892000D01*
G75*
G02*
X70240000Y-111092000I-200000J0D01*
G01*
X69840000Y-111092000D01*
G75*
G02*
X69640000Y-110892000I0J200000D01*
G01*
G37*
G36*
G01*
X67990000Y-110892000D02*
X67990000Y-110342000D01*
G75*
G02*
X68190000Y-110142000I200000J0D01*
G01*
X68590000Y-110142000D01*
G75*
G02*
X68790000Y-110342000I0J-200000D01*
G01*
X68790000Y-110892000D01*
G75*
G02*
X68590000Y-111092000I-200000J0D01*
G01*
X68190000Y-111092000D01*
G75*
G02*
X67990000Y-110892000I0J200000D01*
G01*
G37*
G04 #@! TD*
G04 #@! TO.C,R14*
G36*
G01*
X38851000Y-113294000D02*
X38851000Y-114544000D01*
G75*
G02*
X38601000Y-114794000I-250000J0D01*
G01*
X37801000Y-114794000D01*
G75*
G02*
X37551000Y-114544000I0J250000D01*
G01*
X37551000Y-113294000D01*
G75*
G02*
X37801000Y-113044000I250000J0D01*
G01*
X38601000Y-113044000D01*
G75*
G02*
X38851000Y-113294000I0J-250000D01*
G01*
G37*
G36*
G01*
X41951000Y-113294000D02*
X41951000Y-114544000D01*
G75*
G02*
X41701000Y-114794000I-250000J0D01*
G01*
X40901000Y-114794000D01*
G75*
G02*
X40651000Y-114544000I0J250000D01*
G01*
X40651000Y-113294000D01*
G75*
G02*
X40901000Y-113044000I250000J0D01*
G01*
X41701000Y-113044000D01*
G75*
G02*
X41951000Y-113294000I0J-250000D01*
G01*
G37*
G04 #@! TD*
G04 #@! TO.C,R15*
G36*
G01*
X69640000Y-47900000D02*
X69640000Y-47350000D01*
G75*
G02*
X69840000Y-47150000I200000J0D01*
G01*
X70240000Y-47150000D01*
G75*
G02*
X70440000Y-47350000I0J-200000D01*
G01*
X70440000Y-47900000D01*
G75*
G02*
X70240000Y-48100000I-200000J0D01*
G01*
X69840000Y-48100000D01*
G75*
G02*
X69640000Y-47900000I0J200000D01*
G01*
G37*
G36*
G01*
X67990000Y-47900000D02*
X67990000Y-47350000D01*
G75*
G02*
X68190000Y-47150000I200000J0D01*
G01*
X68590000Y-47150000D01*
G75*
G02*
X68790000Y-47350000I0J-200000D01*
G01*
X68790000Y-47900000D01*
G75*
G02*
X68590000Y-48100000I-200000J0D01*
G01*
X68190000Y-48100000D01*
G75*
G02*
X67990000Y-47900000I0J200000D01*
G01*
G37*
G04 #@! TD*
G04 #@! TO.C,R13*
G36*
G01*
X38851000Y-108214000D02*
X38851000Y-109464000D01*
G75*
G02*
X38601000Y-109714000I-250000J0D01*
G01*
X37801000Y-109714000D01*
G75*
G02*
X37551000Y-109464000I0J250000D01*
G01*
X37551000Y-108214000D01*
G75*
G02*
X37801000Y-107964000I250000J0D01*
G01*
X38601000Y-107964000D01*
G75*
G02*
X38851000Y-108214000I0J-250000D01*
G01*
G37*
G36*
G01*
X41951000Y-108214000D02*
X41951000Y-109464000D01*
G75*
G02*
X41701000Y-109714000I-250000J0D01*
G01*
X40901000Y-109714000D01*
G75*
G02*
X40651000Y-109464000I0J250000D01*
G01*
X40651000Y-108214000D01*
G75*
G02*
X40901000Y-107964000I250000J0D01*
G01*
X41701000Y-107964000D01*
G75*
G02*
X41951000Y-108214000I0J-250000D01*
G01*
G37*
G04 #@! TD*
G04 #@! TO.C,R21*
G36*
G01*
X69640000Y-79904000D02*
X69640000Y-79354000D01*
G75*
G02*
X69840000Y-79154000I200000J0D01*
G01*
X70240000Y-79154000D01*
G75*
G02*
X70440000Y-79354000I0J-200000D01*
G01*
X70440000Y-79904000D01*
G75*
G02*
X70240000Y-80104000I-200000J0D01*
G01*
X69840000Y-80104000D01*
G75*
G02*
X69640000Y-79904000I0J200000D01*
G01*
G37*
G36*
G01*
X67990000Y-79904000D02*
X67990000Y-79354000D01*
G75*
G02*
X68190000Y-79154000I200000J0D01*
G01*
X68590000Y-79154000D01*
G75*
G02*
X68790000Y-79354000I0J-200000D01*
G01*
X68790000Y-79904000D01*
G75*
G02*
X68590000Y-80104000I-200000J0D01*
G01*
X68190000Y-80104000D01*
G75*
G02*
X67990000Y-79904000I0J200000D01*
G01*
G37*
G04 #@! TD*
G04 #@! TO.C,R19*
G36*
G01*
X69640000Y-68474000D02*
X69640000Y-67924000D01*
G75*
G02*
X69840000Y-67724000I200000J0D01*
G01*
X70240000Y-67724000D01*
G75*
G02*
X70440000Y-67924000I0J-200000D01*
G01*
X70440000Y-68474000D01*
G75*
G02*
X70240000Y-68674000I-200000J0D01*
G01*
X69840000Y-68674000D01*
G75*
G02*
X69640000Y-68474000I0J200000D01*
G01*
G37*
G36*
G01*
X67990000Y-68474000D02*
X67990000Y-67924000D01*
G75*
G02*
X68190000Y-67724000I200000J0D01*
G01*
X68590000Y-67724000D01*
G75*
G02*
X68790000Y-67924000I0J-200000D01*
G01*
X68790000Y-68474000D01*
G75*
G02*
X68590000Y-68674000I-200000J0D01*
G01*
X68190000Y-68674000D01*
G75*
G02*
X67990000Y-68474000I0J200000D01*
G01*
G37*
G04 #@! TD*
G04 #@! TO.C,R17*
G36*
G01*
X69640000Y-58568000D02*
X69640000Y-58018000D01*
G75*
G02*
X69840000Y-57818000I200000J0D01*
G01*
X70240000Y-57818000D01*
G75*
G02*
X70440000Y-58018000I0J-200000D01*
G01*
X70440000Y-58568000D01*
G75*
G02*
X70240000Y-58768000I-200000J0D01*
G01*
X69840000Y-58768000D01*
G75*
G02*
X69640000Y-58568000I0J200000D01*
G01*
G37*
G36*
G01*
X67990000Y-58568000D02*
X67990000Y-58018000D01*
G75*
G02*
X68190000Y-57818000I200000J0D01*
G01*
X68590000Y-57818000D01*
G75*
G02*
X68790000Y-58018000I0J-200000D01*
G01*
X68790000Y-58568000D01*
G75*
G02*
X68590000Y-58768000I-200000J0D01*
G01*
X68190000Y-58768000D01*
G75*
G02*
X67990000Y-58568000I0J200000D01*
G01*
G37*
G04 #@! TD*
G04 #@! TO.C,R20*
G36*
G01*
X69640000Y-73808000D02*
X69640000Y-73258000D01*
G75*
G02*
X69840000Y-73058000I200000J0D01*
G01*
X70240000Y-73058000D01*
G75*
G02*
X70440000Y-73258000I0J-200000D01*
G01*
X70440000Y-73808000D01*
G75*
G02*
X70240000Y-74008000I-200000J0D01*
G01*
X69840000Y-74008000D01*
G75*
G02*
X69640000Y-73808000I0J200000D01*
G01*
G37*
G36*
G01*
X67990000Y-73808000D02*
X67990000Y-73258000D01*
G75*
G02*
X68190000Y-73058000I200000J0D01*
G01*
X68590000Y-73058000D01*
G75*
G02*
X68790000Y-73258000I0J-200000D01*
G01*
X68790000Y-73808000D01*
G75*
G02*
X68590000Y-74008000I-200000J0D01*
G01*
X68190000Y-74008000D01*
G75*
G02*
X67990000Y-73808000I0J200000D01*
G01*
G37*
G04 #@! TD*
G04 #@! TO.C,R10*
G36*
G01*
X38851000Y-93482000D02*
X38851000Y-94732000D01*
G75*
G02*
X38601000Y-94982000I-250000J0D01*
G01*
X37801000Y-94982000D01*
G75*
G02*
X37551000Y-94732000I0J250000D01*
G01*
X37551000Y-93482000D01*
G75*
G02*
X37801000Y-93232000I250000J0D01*
G01*
X38601000Y-93232000D01*
G75*
G02*
X38851000Y-93482000I0J-250000D01*
G01*
G37*
G36*
G01*
X41951000Y-93482000D02*
X41951000Y-94732000D01*
G75*
G02*
X41701000Y-94982000I-250000J0D01*
G01*
X40901000Y-94982000D01*
G75*
G02*
X40651000Y-94732000I0J250000D01*
G01*
X40651000Y-93482000D01*
G75*
G02*
X40901000Y-93232000I250000J0D01*
G01*
X41701000Y-93232000D01*
G75*
G02*
X41951000Y-93482000I0J-250000D01*
G01*
G37*
G04 #@! TD*
G04 #@! TO.C,R24*
G36*
G01*
X69640000Y-95398000D02*
X69640000Y-94848000D01*
G75*
G02*
X69840000Y-94648000I200000J0D01*
G01*
X70240000Y-94648000D01*
G75*
G02*
X70440000Y-94848000I0J-200000D01*
G01*
X70440000Y-95398000D01*
G75*
G02*
X70240000Y-95598000I-200000J0D01*
G01*
X69840000Y-95598000D01*
G75*
G02*
X69640000Y-95398000I0J200000D01*
G01*
G37*
G36*
G01*
X67990000Y-95398000D02*
X67990000Y-94848000D01*
G75*
G02*
X68190000Y-94648000I200000J0D01*
G01*
X68590000Y-94648000D01*
G75*
G02*
X68790000Y-94848000I0J-200000D01*
G01*
X68790000Y-95398000D01*
G75*
G02*
X68590000Y-95598000I-200000J0D01*
G01*
X68190000Y-95598000D01*
G75*
G02*
X67990000Y-95398000I0J200000D01*
G01*
G37*
G04 #@! TD*
G04 #@! TO.C,R9*
G36*
G01*
X38851000Y-88656000D02*
X38851000Y-89906000D01*
G75*
G02*
X38601000Y-90156000I-250000J0D01*
G01*
X37801000Y-90156000D01*
G75*
G02*
X37551000Y-89906000I0J250000D01*
G01*
X37551000Y-88656000D01*
G75*
G02*
X37801000Y-88406000I250000J0D01*
G01*
X38601000Y-88406000D01*
G75*
G02*
X38851000Y-88656000I0J-250000D01*
G01*
G37*
G36*
G01*
X41951000Y-88656000D02*
X41951000Y-89906000D01*
G75*
G02*
X41701000Y-90156000I-250000J0D01*
G01*
X40901000Y-90156000D01*
G75*
G02*
X40651000Y-89906000I0J250000D01*
G01*
X40651000Y-88656000D01*
G75*
G02*
X40901000Y-88406000I250000J0D01*
G01*
X41701000Y-88406000D01*
G75*
G02*
X41951000Y-88656000I0J-250000D01*
G01*
G37*
G04 #@! TD*
G04 #@! TO.C,R6*
G36*
G01*
X38851000Y-72654000D02*
X38851000Y-73904000D01*
G75*
G02*
X38601000Y-74154000I-250000J0D01*
G01*
X37801000Y-74154000D01*
G75*
G02*
X37551000Y-73904000I0J250000D01*
G01*
X37551000Y-72654000D01*
G75*
G02*
X37801000Y-72404000I250000J0D01*
G01*
X38601000Y-72404000D01*
G75*
G02*
X38851000Y-72654000I0J-250000D01*
G01*
G37*
G36*
G01*
X41951000Y-72654000D02*
X41951000Y-73904000D01*
G75*
G02*
X41701000Y-74154000I-250000J0D01*
G01*
X40901000Y-74154000D01*
G75*
G02*
X40651000Y-73904000I0J250000D01*
G01*
X40651000Y-72654000D01*
G75*
G02*
X40901000Y-72404000I250000J0D01*
G01*
X41701000Y-72404000D01*
G75*
G02*
X41951000Y-72654000I0J-250000D01*
G01*
G37*
G04 #@! TD*
G04 #@! TO.C,R4*
G36*
G01*
X38851000Y-62748000D02*
X38851000Y-63998000D01*
G75*
G02*
X38601000Y-64248000I-250000J0D01*
G01*
X37801000Y-64248000D01*
G75*
G02*
X37551000Y-63998000I0J250000D01*
G01*
X37551000Y-62748000D01*
G75*
G02*
X37801000Y-62498000I250000J0D01*
G01*
X38601000Y-62498000D01*
G75*
G02*
X38851000Y-62748000I0J-250000D01*
G01*
G37*
G36*
G01*
X41951000Y-62748000D02*
X41951000Y-63998000D01*
G75*
G02*
X41701000Y-64248000I-250000J0D01*
G01*
X40901000Y-64248000D01*
G75*
G02*
X40651000Y-63998000I0J250000D01*
G01*
X40651000Y-62748000D01*
G75*
G02*
X40901000Y-62498000I250000J0D01*
G01*
X41701000Y-62498000D01*
G75*
G02*
X41951000Y-62748000I0J-250000D01*
G01*
G37*
G04 #@! TD*
G04 #@! TO.C,R3*
G36*
G01*
X38851000Y-57922000D02*
X38851000Y-59172000D01*
G75*
G02*
X38601000Y-59422000I-250000J0D01*
G01*
X37801000Y-59422000D01*
G75*
G02*
X37551000Y-59172000I0J250000D01*
G01*
X37551000Y-57922000D01*
G75*
G02*
X37801000Y-57672000I250000J0D01*
G01*
X38601000Y-57672000D01*
G75*
G02*
X38851000Y-57922000I0J-250000D01*
G01*
G37*
G36*
G01*
X41951000Y-57922000D02*
X41951000Y-59172000D01*
G75*
G02*
X41701000Y-59422000I-250000J0D01*
G01*
X40901000Y-59422000D01*
G75*
G02*
X40651000Y-59172000I0J250000D01*
G01*
X40651000Y-57922000D01*
G75*
G02*
X40901000Y-57672000I250000J0D01*
G01*
X41701000Y-57672000D01*
G75*
G02*
X41951000Y-57922000I0J-250000D01*
G01*
G37*
G04 #@! TD*
G04 #@! TO.C,R2*
G36*
G01*
X38851000Y-52842000D02*
X38851000Y-54092000D01*
G75*
G02*
X38601000Y-54342000I-250000J0D01*
G01*
X37801000Y-54342000D01*
G75*
G02*
X37551000Y-54092000I0J250000D01*
G01*
X37551000Y-52842000D01*
G75*
G02*
X37801000Y-52592000I250000J0D01*
G01*
X38601000Y-52592000D01*
G75*
G02*
X38851000Y-52842000I0J-250000D01*
G01*
G37*
G36*
G01*
X41951000Y-52842000D02*
X41951000Y-54092000D01*
G75*
G02*
X41701000Y-54342000I-250000J0D01*
G01*
X40901000Y-54342000D01*
G75*
G02*
X40651000Y-54092000I0J250000D01*
G01*
X40651000Y-52842000D01*
G75*
G02*
X40901000Y-52592000I250000J0D01*
G01*
X41701000Y-52592000D01*
G75*
G02*
X41951000Y-52842000I0J-250000D01*
G01*
G37*
G04 #@! TD*
G04 #@! TO.C,R5*
G36*
G01*
X38877000Y-67574000D02*
X38877000Y-68824000D01*
G75*
G02*
X38627000Y-69074000I-250000J0D01*
G01*
X37827000Y-69074000D01*
G75*
G02*
X37577000Y-68824000I0J250000D01*
G01*
X37577000Y-67574000D01*
G75*
G02*
X37827000Y-67324000I250000J0D01*
G01*
X38627000Y-67324000D01*
G75*
G02*
X38877000Y-67574000I0J-250000D01*
G01*
G37*
G36*
G01*
X41977000Y-67574000D02*
X41977000Y-68824000D01*
G75*
G02*
X41727000Y-69074000I-250000J0D01*
G01*
X40927000Y-69074000D01*
G75*
G02*
X40677000Y-68824000I0J250000D01*
G01*
X40677000Y-67574000D01*
G75*
G02*
X40927000Y-67324000I250000J0D01*
G01*
X41727000Y-67324000D01*
G75*
G02*
X41977000Y-67574000I0J-250000D01*
G01*
G37*
G04 #@! TD*
G04 #@! TO.C,R7*
G36*
G01*
X38851000Y-78242000D02*
X38851000Y-79492000D01*
G75*
G02*
X38601000Y-79742000I-250000J0D01*
G01*
X37801000Y-79742000D01*
G75*
G02*
X37551000Y-79492000I0J250000D01*
G01*
X37551000Y-78242000D01*
G75*
G02*
X37801000Y-77992000I250000J0D01*
G01*
X38601000Y-77992000D01*
G75*
G02*
X38851000Y-78242000I0J-250000D01*
G01*
G37*
G36*
G01*
X41951000Y-78242000D02*
X41951000Y-79492000D01*
G75*
G02*
X41701000Y-79742000I-250000J0D01*
G01*
X40901000Y-79742000D01*
G75*
G02*
X40651000Y-79492000I0J250000D01*
G01*
X40651000Y-78242000D01*
G75*
G02*
X40901000Y-77992000I250000J0D01*
G01*
X41701000Y-77992000D01*
G75*
G02*
X41951000Y-78242000I0J-250000D01*
G01*
G37*
G04 #@! TD*
G04 #@! TO.C,R25*
G36*
G01*
X69640000Y-100986000D02*
X69640000Y-100436000D01*
G75*
G02*
X69840000Y-100236000I200000J0D01*
G01*
X70240000Y-100236000D01*
G75*
G02*
X70440000Y-100436000I0J-200000D01*
G01*
X70440000Y-100986000D01*
G75*
G02*
X70240000Y-101186000I-200000J0D01*
G01*
X69840000Y-101186000D01*
G75*
G02*
X69640000Y-100986000I0J200000D01*
G01*
G37*
G36*
G01*
X67990000Y-100986000D02*
X67990000Y-100436000D01*
G75*
G02*
X68190000Y-100236000I200000J0D01*
G01*
X68590000Y-100236000D01*
G75*
G02*
X68790000Y-100436000I0J-200000D01*
G01*
X68790000Y-100986000D01*
G75*
G02*
X68590000Y-101186000I-200000J0D01*
G01*
X68190000Y-101186000D01*
G75*
G02*
X67990000Y-100986000I0J200000D01*
G01*
G37*
G04 #@! TD*
G04 #@! TO.C,R26*
G36*
G01*
X69640000Y-105812000D02*
X69640000Y-105262000D01*
G75*
G02*
X69840000Y-105062000I200000J0D01*
G01*
X70240000Y-105062000D01*
G75*
G02*
X70440000Y-105262000I0J-200000D01*
G01*
X70440000Y-105812000D01*
G75*
G02*
X70240000Y-106012000I-200000J0D01*
G01*
X69840000Y-106012000D01*
G75*
G02*
X69640000Y-105812000I0J200000D01*
G01*
G37*
G36*
G01*
X67990000Y-105812000D02*
X67990000Y-105262000D01*
G75*
G02*
X68190000Y-105062000I200000J0D01*
G01*
X68590000Y-105062000D01*
G75*
G02*
X68790000Y-105262000I0J-200000D01*
G01*
X68790000Y-105812000D01*
G75*
G02*
X68590000Y-106012000I-200000J0D01*
G01*
X68190000Y-106012000D01*
G75*
G02*
X67990000Y-105812000I0J200000D01*
G01*
G37*
G04 #@! TD*
G04 #@! TO.C,R22*
G36*
G01*
X69640000Y-84984000D02*
X69640000Y-84434000D01*
G75*
G02*
X69840000Y-84234000I200000J0D01*
G01*
X70240000Y-84234000D01*
G75*
G02*
X70440000Y-84434000I0J-200000D01*
G01*
X70440000Y-84984000D01*
G75*
G02*
X70240000Y-85184000I-200000J0D01*
G01*
X69840000Y-85184000D01*
G75*
G02*
X69640000Y-84984000I0J200000D01*
G01*
G37*
G36*
G01*
X67990000Y-84984000D02*
X67990000Y-84434000D01*
G75*
G02*
X68190000Y-84234000I200000J0D01*
G01*
X68590000Y-84234000D01*
G75*
G02*
X68790000Y-84434000I0J-200000D01*
G01*
X68790000Y-84984000D01*
G75*
G02*
X68590000Y-85184000I-200000J0D01*
G01*
X68190000Y-85184000D01*
G75*
G02*
X67990000Y-84984000I0J200000D01*
G01*
G37*
G04 #@! TD*
G04 #@! TO.C,R16*
G36*
G01*
X69577000Y-53234000D02*
X69577000Y-52684000D01*
G75*
G02*
X69777000Y-52484000I200000J0D01*
G01*
X70177000Y-52484000D01*
G75*
G02*
X70377000Y-52684000I0J-200000D01*
G01*
X70377000Y-53234000D01*
G75*
G02*
X70177000Y-53434000I-200000J0D01*
G01*
X69777000Y-53434000D01*
G75*
G02*
X69577000Y-53234000I0J200000D01*
G01*
G37*
G36*
G01*
X67927000Y-53234000D02*
X67927000Y-52684000D01*
G75*
G02*
X68127000Y-52484000I200000J0D01*
G01*
X68527000Y-52484000D01*
G75*
G02*
X68727000Y-52684000I0J-200000D01*
G01*
X68727000Y-53234000D01*
G75*
G02*
X68527000Y-53434000I-200000J0D01*
G01*
X68127000Y-53434000D01*
G75*
G02*
X67927000Y-53234000I0J200000D01*
G01*
G37*
G04 #@! TD*
G04 #@! TO.C,R12*
G36*
G01*
X38851000Y-103388000D02*
X38851000Y-104638000D01*
G75*
G02*
X38601000Y-104888000I-250000J0D01*
G01*
X37801000Y-104888000D01*
G75*
G02*
X37551000Y-104638000I0J250000D01*
G01*
X37551000Y-103388000D01*
G75*
G02*
X37801000Y-103138000I250000J0D01*
G01*
X38601000Y-103138000D01*
G75*
G02*
X38851000Y-103388000I0J-250000D01*
G01*
G37*
G36*
G01*
X41951000Y-103388000D02*
X41951000Y-104638000D01*
G75*
G02*
X41701000Y-104888000I-250000J0D01*
G01*
X40901000Y-104888000D01*
G75*
G02*
X40651000Y-104638000I0J250000D01*
G01*
X40651000Y-103388000D01*
G75*
G02*
X40901000Y-103138000I250000J0D01*
G01*
X41701000Y-103138000D01*
G75*
G02*
X41951000Y-103388000I0J-250000D01*
G01*
G37*
G04 #@! TD*
G04 #@! TO.C,R11*
G36*
G01*
X38851000Y-98562000D02*
X38851000Y-99812000D01*
G75*
G02*
X38601000Y-100062000I-250000J0D01*
G01*
X37801000Y-100062000D01*
G75*
G02*
X37551000Y-99812000I0J250000D01*
G01*
X37551000Y-98562000D01*
G75*
G02*
X37801000Y-98312000I250000J0D01*
G01*
X38601000Y-98312000D01*
G75*
G02*
X38851000Y-98562000I0J-250000D01*
G01*
G37*
G36*
G01*
X41951000Y-98562000D02*
X41951000Y-99812000D01*
G75*
G02*
X41701000Y-100062000I-250000J0D01*
G01*
X40901000Y-100062000D01*
G75*
G02*
X40651000Y-99812000I0J250000D01*
G01*
X40651000Y-98562000D01*
G75*
G02*
X40901000Y-98312000I250000J0D01*
G01*
X41701000Y-98312000D01*
G75*
G02*
X41951000Y-98562000I0J-250000D01*
G01*
G37*
G04 #@! TD*
G04 #@! TO.C,R1*
G36*
G01*
X38851000Y-47762000D02*
X38851000Y-49012000D01*
G75*
G02*
X38601000Y-49262000I-250000J0D01*
G01*
X37801000Y-49262000D01*
G75*
G02*
X37551000Y-49012000I0J250000D01*
G01*
X37551000Y-47762000D01*
G75*
G02*
X37801000Y-47512000I250000J0D01*
G01*
X38601000Y-47512000D01*
G75*
G02*
X38851000Y-47762000I0J-250000D01*
G01*
G37*
G36*
G01*
X41951000Y-47762000D02*
X41951000Y-49012000D01*
G75*
G02*
X41701000Y-49262000I-250000J0D01*
G01*
X40901000Y-49262000D01*
G75*
G02*
X40651000Y-49012000I0J250000D01*
G01*
X40651000Y-47762000D01*
G75*
G02*
X40901000Y-47512000I250000J0D01*
G01*
X41701000Y-47512000D01*
G75*
G02*
X41951000Y-47762000I0J-250000D01*
G01*
G37*
G04 #@! TD*
G04 #@! TO.C,D14*
G36*
G01*
X47234000Y-116272000D02*
X47234000Y-115122000D01*
G75*
G02*
X47484000Y-114872000I250000J0D01*
G01*
X48584000Y-114872000D01*
G75*
G02*
X48834000Y-115122000I0J-250000D01*
G01*
X48834000Y-116272000D01*
G75*
G02*
X48584000Y-116522000I-250000J0D01*
G01*
X47484000Y-116522000D01*
G75*
G02*
X47234000Y-116272000I0J250000D01*
G01*
G37*
G36*
G01*
X44384000Y-116272000D02*
X44384000Y-115122000D01*
G75*
G02*
X44634000Y-114872000I250000J0D01*
G01*
X45734000Y-114872000D01*
G75*
G02*
X45984000Y-115122000I0J-250000D01*
G01*
X45984000Y-116272000D01*
G75*
G02*
X45734000Y-116522000I-250000J0D01*
G01*
X44634000Y-116522000D01*
G75*
G02*
X44384000Y-116272000I0J250000D01*
G01*
G37*
G04 #@! TD*
G04 #@! TO.C,D13*
G36*
G01*
X47234000Y-111192000D02*
X47234000Y-110042000D01*
G75*
G02*
X47484000Y-109792000I250000J0D01*
G01*
X48584000Y-109792000D01*
G75*
G02*
X48834000Y-110042000I0J-250000D01*
G01*
X48834000Y-111192000D01*
G75*
G02*
X48584000Y-111442000I-250000J0D01*
G01*
X47484000Y-111442000D01*
G75*
G02*
X47234000Y-111192000I0J250000D01*
G01*
G37*
G36*
G01*
X44384000Y-111192000D02*
X44384000Y-110042000D01*
G75*
G02*
X44634000Y-109792000I250000J0D01*
G01*
X45734000Y-109792000D01*
G75*
G02*
X45984000Y-110042000I0J-250000D01*
G01*
X45984000Y-111192000D01*
G75*
G02*
X45734000Y-111442000I-250000J0D01*
G01*
X44634000Y-111442000D01*
G75*
G02*
X44384000Y-111192000I0J250000D01*
G01*
G37*
G04 #@! TD*
G04 #@! TO.C,D12*
G36*
G01*
X47234000Y-106112000D02*
X47234000Y-104962000D01*
G75*
G02*
X47484000Y-104712000I250000J0D01*
G01*
X48584000Y-104712000D01*
G75*
G02*
X48834000Y-104962000I0J-250000D01*
G01*
X48834000Y-106112000D01*
G75*
G02*
X48584000Y-106362000I-250000J0D01*
G01*
X47484000Y-106362000D01*
G75*
G02*
X47234000Y-106112000I0J250000D01*
G01*
G37*
G36*
G01*
X44384000Y-106112000D02*
X44384000Y-104962000D01*
G75*
G02*
X44634000Y-104712000I250000J0D01*
G01*
X45734000Y-104712000D01*
G75*
G02*
X45984000Y-104962000I0J-250000D01*
G01*
X45984000Y-106112000D01*
G75*
G02*
X45734000Y-106362000I-250000J0D01*
G01*
X44634000Y-106362000D01*
G75*
G02*
X44384000Y-106112000I0J250000D01*
G01*
G37*
G04 #@! TD*
G04 #@! TO.C,D11*
G36*
G01*
X47234000Y-101286000D02*
X47234000Y-100136000D01*
G75*
G02*
X47484000Y-99886000I250000J0D01*
G01*
X48584000Y-99886000D01*
G75*
G02*
X48834000Y-100136000I0J-250000D01*
G01*
X48834000Y-101286000D01*
G75*
G02*
X48584000Y-101536000I-250000J0D01*
G01*
X47484000Y-101536000D01*
G75*
G02*
X47234000Y-101286000I0J250000D01*
G01*
G37*
G36*
G01*
X44384000Y-101286000D02*
X44384000Y-100136000D01*
G75*
G02*
X44634000Y-99886000I250000J0D01*
G01*
X45734000Y-99886000D01*
G75*
G02*
X45984000Y-100136000I0J-250000D01*
G01*
X45984000Y-101286000D01*
G75*
G02*
X45734000Y-101536000I-250000J0D01*
G01*
X44634000Y-101536000D01*
G75*
G02*
X44384000Y-101286000I0J250000D01*
G01*
G37*
G04 #@! TD*
G04 #@! TO.C,D10*
G36*
G01*
X47234000Y-96206000D02*
X47234000Y-95056000D01*
G75*
G02*
X47484000Y-94806000I250000J0D01*
G01*
X48584000Y-94806000D01*
G75*
G02*
X48834000Y-95056000I0J-250000D01*
G01*
X48834000Y-96206000D01*
G75*
G02*
X48584000Y-96456000I-250000J0D01*
G01*
X47484000Y-96456000D01*
G75*
G02*
X47234000Y-96206000I0J250000D01*
G01*
G37*
G36*
G01*
X44384000Y-96206000D02*
X44384000Y-95056000D01*
G75*
G02*
X44634000Y-94806000I250000J0D01*
G01*
X45734000Y-94806000D01*
G75*
G02*
X45984000Y-95056000I0J-250000D01*
G01*
X45984000Y-96206000D01*
G75*
G02*
X45734000Y-96456000I-250000J0D01*
G01*
X44634000Y-96456000D01*
G75*
G02*
X44384000Y-96206000I0J250000D01*
G01*
G37*
G04 #@! TD*
G04 #@! TO.C,D9*
G36*
G01*
X47234000Y-91126000D02*
X47234000Y-89976000D01*
G75*
G02*
X47484000Y-89726000I250000J0D01*
G01*
X48584000Y-89726000D01*
G75*
G02*
X48834000Y-89976000I0J-250000D01*
G01*
X48834000Y-91126000D01*
G75*
G02*
X48584000Y-91376000I-250000J0D01*
G01*
X47484000Y-91376000D01*
G75*
G02*
X47234000Y-91126000I0J250000D01*
G01*
G37*
G36*
G01*
X44384000Y-91126000D02*
X44384000Y-89976000D01*
G75*
G02*
X44634000Y-89726000I250000J0D01*
G01*
X45734000Y-89726000D01*
G75*
G02*
X45984000Y-89976000I0J-250000D01*
G01*
X45984000Y-91126000D01*
G75*
G02*
X45734000Y-91376000I-250000J0D01*
G01*
X44634000Y-91376000D01*
G75*
G02*
X44384000Y-91126000I0J250000D01*
G01*
G37*
G04 #@! TD*
G04 #@! TO.C,D8*
G36*
G01*
X47234000Y-86300000D02*
X47234000Y-85150000D01*
G75*
G02*
X47484000Y-84900000I250000J0D01*
G01*
X48584000Y-84900000D01*
G75*
G02*
X48834000Y-85150000I0J-250000D01*
G01*
X48834000Y-86300000D01*
G75*
G02*
X48584000Y-86550000I-250000J0D01*
G01*
X47484000Y-86550000D01*
G75*
G02*
X47234000Y-86300000I0J250000D01*
G01*
G37*
G36*
G01*
X44384000Y-86300000D02*
X44384000Y-85150000D01*
G75*
G02*
X44634000Y-84900000I250000J0D01*
G01*
X45734000Y-84900000D01*
G75*
G02*
X45984000Y-85150000I0J-250000D01*
G01*
X45984000Y-86300000D01*
G75*
G02*
X45734000Y-86550000I-250000J0D01*
G01*
X44634000Y-86550000D01*
G75*
G02*
X44384000Y-86300000I0J250000D01*
G01*
G37*
G04 #@! TD*
G04 #@! TO.C,D7*
G36*
G01*
X47234000Y-81220000D02*
X47234000Y-80070000D01*
G75*
G02*
X47484000Y-79820000I250000J0D01*
G01*
X48584000Y-79820000D01*
G75*
G02*
X48834000Y-80070000I0J-250000D01*
G01*
X48834000Y-81220000D01*
G75*
G02*
X48584000Y-81470000I-250000J0D01*
G01*
X47484000Y-81470000D01*
G75*
G02*
X47234000Y-81220000I0J250000D01*
G01*
G37*
G36*
G01*
X44384000Y-81220000D02*
X44384000Y-80070000D01*
G75*
G02*
X44634000Y-79820000I250000J0D01*
G01*
X45734000Y-79820000D01*
G75*
G02*
X45984000Y-80070000I0J-250000D01*
G01*
X45984000Y-81220000D01*
G75*
G02*
X45734000Y-81470000I-250000J0D01*
G01*
X44634000Y-81470000D01*
G75*
G02*
X44384000Y-81220000I0J250000D01*
G01*
G37*
G04 #@! TD*
D11*
G04 #@! TO.C,U9*
X53111000Y-90805000D03*
X59411000Y-93345000D03*
X53111000Y-93345000D03*
X59411000Y-90805000D03*
G04 #@! TD*
G04 #@! TO.C,U10*
X53111000Y-96139000D03*
X59411000Y-98679000D03*
X53111000Y-98679000D03*
X59411000Y-96139000D03*
G04 #@! TD*
G04 #@! TO.C,C9*
G36*
G01*
X62784983Y-91743776D02*
X63704224Y-92663017D01*
G75*
G02*
X63704224Y-93016569I-176776J-176776D01*
G01*
X63244603Y-93476190D01*
G75*
G02*
X62891051Y-93476190I-176776J176776D01*
G01*
X61971810Y-92556949D01*
G75*
G02*
X61971810Y-92203397I176776J176776D01*
G01*
X62431431Y-91743776D01*
G75*
G02*
X62784983Y-91743776I176776J-176776D01*
G01*
G37*
G36*
G01*
X64870949Y-89657810D02*
X65790190Y-90577051D01*
G75*
G02*
X65790190Y-90930603I-176776J-176776D01*
G01*
X65330569Y-91390224D01*
G75*
G02*
X64977017Y-91390224I-176776J176776D01*
G01*
X64057776Y-90470983D01*
G75*
G02*
X64057776Y-90117431I176776J176776D01*
G01*
X64517397Y-89657810D01*
G75*
G02*
X64870949Y-89657810I176776J-176776D01*
G01*
G37*
G04 #@! TD*
G04 #@! TO.C,D5*
G36*
G01*
X47234000Y-70044000D02*
X47234000Y-68894000D01*
G75*
G02*
X47484000Y-68644000I250000J0D01*
G01*
X48584000Y-68644000D01*
G75*
G02*
X48834000Y-68894000I0J-250000D01*
G01*
X48834000Y-70044000D01*
G75*
G02*
X48584000Y-70294000I-250000J0D01*
G01*
X47484000Y-70294000D01*
G75*
G02*
X47234000Y-70044000I0J250000D01*
G01*
G37*
G36*
G01*
X44384000Y-70044000D02*
X44384000Y-68894000D01*
G75*
G02*
X44634000Y-68644000I250000J0D01*
G01*
X45734000Y-68644000D01*
G75*
G02*
X45984000Y-68894000I0J-250000D01*
G01*
X45984000Y-70044000D01*
G75*
G02*
X45734000Y-70294000I-250000J0D01*
G01*
X44634000Y-70294000D01*
G75*
G02*
X44384000Y-70044000I0J250000D01*
G01*
G37*
G04 #@! TD*
G04 #@! TO.C,D1*
G36*
G01*
X46980000Y-50740000D02*
X46980000Y-49590000D01*
G75*
G02*
X47230000Y-49340000I250000J0D01*
G01*
X48330000Y-49340000D01*
G75*
G02*
X48580000Y-49590000I0J-250000D01*
G01*
X48580000Y-50740000D01*
G75*
G02*
X48330000Y-50990000I-250000J0D01*
G01*
X47230000Y-50990000D01*
G75*
G02*
X46980000Y-50740000I0J250000D01*
G01*
G37*
G36*
G01*
X44130000Y-50740000D02*
X44130000Y-49590000D01*
G75*
G02*
X44380000Y-49340000I250000J0D01*
G01*
X45480000Y-49340000D01*
G75*
G02*
X45730000Y-49590000I0J-250000D01*
G01*
X45730000Y-50740000D01*
G75*
G02*
X45480000Y-50990000I-250000J0D01*
G01*
X44380000Y-50990000D01*
G75*
G02*
X44130000Y-50740000I0J250000D01*
G01*
G37*
G04 #@! TD*
G04 #@! TO.C,D2*
G36*
G01*
X46980000Y-55566000D02*
X46980000Y-54416000D01*
G75*
G02*
X47230000Y-54166000I250000J0D01*
G01*
X48330000Y-54166000D01*
G75*
G02*
X48580000Y-54416000I0J-250000D01*
G01*
X48580000Y-55566000D01*
G75*
G02*
X48330000Y-55816000I-250000J0D01*
G01*
X47230000Y-55816000D01*
G75*
G02*
X46980000Y-55566000I0J250000D01*
G01*
G37*
G36*
G01*
X44130000Y-55566000D02*
X44130000Y-54416000D01*
G75*
G02*
X44380000Y-54166000I250000J0D01*
G01*
X45480000Y-54166000D01*
G75*
G02*
X45730000Y-54416000I0J-250000D01*
G01*
X45730000Y-55566000D01*
G75*
G02*
X45480000Y-55816000I-250000J0D01*
G01*
X44380000Y-55816000D01*
G75*
G02*
X44130000Y-55566000I0J250000D01*
G01*
G37*
G04 #@! TD*
G04 #@! TO.C,D4*
G36*
G01*
X47234000Y-65218000D02*
X47234000Y-64068000D01*
G75*
G02*
X47484000Y-63818000I250000J0D01*
G01*
X48584000Y-63818000D01*
G75*
G02*
X48834000Y-64068000I0J-250000D01*
G01*
X48834000Y-65218000D01*
G75*
G02*
X48584000Y-65468000I-250000J0D01*
G01*
X47484000Y-65468000D01*
G75*
G02*
X47234000Y-65218000I0J250000D01*
G01*
G37*
G36*
G01*
X44384000Y-65218000D02*
X44384000Y-64068000D01*
G75*
G02*
X44634000Y-63818000I250000J0D01*
G01*
X45734000Y-63818000D01*
G75*
G02*
X45984000Y-64068000I0J-250000D01*
G01*
X45984000Y-65218000D01*
G75*
G02*
X45734000Y-65468000I-250000J0D01*
G01*
X44634000Y-65468000D01*
G75*
G02*
X44384000Y-65218000I0J250000D01*
G01*
G37*
G04 #@! TD*
G04 #@! TO.C,C13*
G36*
G01*
X62784983Y-112317776D02*
X63704224Y-113237017D01*
G75*
G02*
X63704224Y-113590569I-176776J-176776D01*
G01*
X63244603Y-114050190D01*
G75*
G02*
X62891051Y-114050190I-176776J176776D01*
G01*
X61971810Y-113130949D01*
G75*
G02*
X61971810Y-112777397I176776J176776D01*
G01*
X62431431Y-112317776D01*
G75*
G02*
X62784983Y-112317776I176776J-176776D01*
G01*
G37*
G36*
G01*
X64870949Y-110231810D02*
X65790190Y-111151051D01*
G75*
G02*
X65790190Y-111504603I-176776J-176776D01*
G01*
X65330569Y-111964224D01*
G75*
G02*
X64977017Y-111964224I-176776J176776D01*
G01*
X64057776Y-111044983D01*
G75*
G02*
X64057776Y-110691431I176776J176776D01*
G01*
X64517397Y-110231810D01*
G75*
G02*
X64870949Y-110231810I176776J-176776D01*
G01*
G37*
G04 #@! TD*
G04 #@! TO.C,C7*
G36*
G01*
X62784983Y-81583776D02*
X63704224Y-82503017D01*
G75*
G02*
X63704224Y-82856569I-176776J-176776D01*
G01*
X63244603Y-83316190D01*
G75*
G02*
X62891051Y-83316190I-176776J176776D01*
G01*
X61971810Y-82396949D01*
G75*
G02*
X61971810Y-82043397I176776J176776D01*
G01*
X62431431Y-81583776D01*
G75*
G02*
X62784983Y-81583776I176776J-176776D01*
G01*
G37*
G36*
G01*
X64870949Y-79497810D02*
X65790190Y-80417051D01*
G75*
G02*
X65790190Y-80770603I-176776J-176776D01*
G01*
X65330569Y-81230224D01*
G75*
G02*
X64977017Y-81230224I-176776J176776D01*
G01*
X64057776Y-80310983D01*
G75*
G02*
X64057776Y-79957431I176776J176776D01*
G01*
X64517397Y-79497810D01*
G75*
G02*
X64870949Y-79497810I176776J-176776D01*
G01*
G37*
G04 #@! TD*
G04 #@! TO.C,C6*
G36*
G01*
X62784983Y-76503776D02*
X63704224Y-77423017D01*
G75*
G02*
X63704224Y-77776569I-176776J-176776D01*
G01*
X63244603Y-78236190D01*
G75*
G02*
X62891051Y-78236190I-176776J176776D01*
G01*
X61971810Y-77316949D01*
G75*
G02*
X61971810Y-76963397I176776J176776D01*
G01*
X62431431Y-76503776D01*
G75*
G02*
X62784983Y-76503776I176776J-176776D01*
G01*
G37*
G36*
G01*
X64870949Y-74417810D02*
X65790190Y-75337051D01*
G75*
G02*
X65790190Y-75690603I-176776J-176776D01*
G01*
X65330569Y-76150224D01*
G75*
G02*
X64977017Y-76150224I-176776J176776D01*
G01*
X64057776Y-75230983D01*
G75*
G02*
X64057776Y-74877431I176776J176776D01*
G01*
X64517397Y-74417810D01*
G75*
G02*
X64870949Y-74417810I176776J-176776D01*
G01*
G37*
G04 #@! TD*
G04 #@! TO.C,C10*
G36*
G01*
X62784983Y-96823776D02*
X63704224Y-97743017D01*
G75*
G02*
X63704224Y-98096569I-176776J-176776D01*
G01*
X63244603Y-98556190D01*
G75*
G02*
X62891051Y-98556190I-176776J176776D01*
G01*
X61971810Y-97636949D01*
G75*
G02*
X61971810Y-97283397I176776J176776D01*
G01*
X62431431Y-96823776D01*
G75*
G02*
X62784983Y-96823776I176776J-176776D01*
G01*
G37*
G36*
G01*
X64870949Y-94737810D02*
X65790190Y-95657051D01*
G75*
G02*
X65790190Y-96010603I-176776J-176776D01*
G01*
X65330569Y-96470224D01*
G75*
G02*
X64977017Y-96470224I-176776J176776D01*
G01*
X64057776Y-95550983D01*
G75*
G02*
X64057776Y-95197431I176776J176776D01*
G01*
X64517397Y-94737810D01*
G75*
G02*
X64870949Y-94737810I176776J-176776D01*
G01*
G37*
G04 #@! TD*
G04 #@! TO.C,C8*
G36*
G01*
X62784983Y-86663776D02*
X63704224Y-87583017D01*
G75*
G02*
X63704224Y-87936569I-176776J-176776D01*
G01*
X63244603Y-88396190D01*
G75*
G02*
X62891051Y-88396190I-176776J176776D01*
G01*
X61971810Y-87476949D01*
G75*
G02*
X61971810Y-87123397I176776J176776D01*
G01*
X62431431Y-86663776D01*
G75*
G02*
X62784983Y-86663776I176776J-176776D01*
G01*
G37*
G36*
G01*
X64870949Y-84577810D02*
X65790190Y-85497051D01*
G75*
G02*
X65790190Y-85850603I-176776J-176776D01*
G01*
X65330569Y-86310224D01*
G75*
G02*
X64977017Y-86310224I-176776J176776D01*
G01*
X64057776Y-85390983D01*
G75*
G02*
X64057776Y-85037431I176776J176776D01*
G01*
X64517397Y-84577810D01*
G75*
G02*
X64870949Y-84577810I176776J-176776D01*
G01*
G37*
G04 #@! TD*
G04 #@! TO.C,C5*
G36*
G01*
X62784983Y-71169776D02*
X63704224Y-72089017D01*
G75*
G02*
X63704224Y-72442569I-176776J-176776D01*
G01*
X63244603Y-72902190D01*
G75*
G02*
X62891051Y-72902190I-176776J176776D01*
G01*
X61971810Y-71982949D01*
G75*
G02*
X61971810Y-71629397I176776J176776D01*
G01*
X62431431Y-71169776D01*
G75*
G02*
X62784983Y-71169776I176776J-176776D01*
G01*
G37*
G36*
G01*
X64870949Y-69083810D02*
X65790190Y-70003051D01*
G75*
G02*
X65790190Y-70356603I-176776J-176776D01*
G01*
X65330569Y-70816224D01*
G75*
G02*
X64977017Y-70816224I-176776J176776D01*
G01*
X64057776Y-69896983D01*
G75*
G02*
X64057776Y-69543431I176776J176776D01*
G01*
X64517397Y-69083810D01*
G75*
G02*
X64870949Y-69083810I176776J-176776D01*
G01*
G37*
G04 #@! TD*
G04 #@! TO.C,C1*
G36*
G01*
X62784983Y-49833776D02*
X63704224Y-50753017D01*
G75*
G02*
X63704224Y-51106569I-176776J-176776D01*
G01*
X63244603Y-51566190D01*
G75*
G02*
X62891051Y-51566190I-176776J176776D01*
G01*
X61971810Y-50646949D01*
G75*
G02*
X61971810Y-50293397I176776J176776D01*
G01*
X62431431Y-49833776D01*
G75*
G02*
X62784983Y-49833776I176776J-176776D01*
G01*
G37*
G36*
G01*
X64870949Y-47747810D02*
X65790190Y-48667051D01*
G75*
G02*
X65790190Y-49020603I-176776J-176776D01*
G01*
X65330569Y-49480224D01*
G75*
G02*
X64977017Y-49480224I-176776J176776D01*
G01*
X64057776Y-48560983D01*
G75*
G02*
X64057776Y-48207431I176776J176776D01*
G01*
X64517397Y-47747810D01*
G75*
G02*
X64870949Y-47747810I176776J-176776D01*
G01*
G37*
G04 #@! TD*
G04 #@! TO.C,D6*
G36*
G01*
X47234000Y-75124000D02*
X47234000Y-73974000D01*
G75*
G02*
X47484000Y-73724000I250000J0D01*
G01*
X48584000Y-73724000D01*
G75*
G02*
X48834000Y-73974000I0J-250000D01*
G01*
X48834000Y-75124000D01*
G75*
G02*
X48584000Y-75374000I-250000J0D01*
G01*
X47484000Y-75374000D01*
G75*
G02*
X47234000Y-75124000I0J250000D01*
G01*
G37*
G36*
G01*
X44384000Y-75124000D02*
X44384000Y-73974000D01*
G75*
G02*
X44634000Y-73724000I250000J0D01*
G01*
X45734000Y-73724000D01*
G75*
G02*
X45984000Y-73974000I0J-250000D01*
G01*
X45984000Y-75124000D01*
G75*
G02*
X45734000Y-75374000I-250000J0D01*
G01*
X44634000Y-75374000D01*
G75*
G02*
X44384000Y-75124000I0J250000D01*
G01*
G37*
G04 #@! TD*
G04 #@! TO.C,C4*
G36*
G01*
X62530983Y-65835776D02*
X63450224Y-66755017D01*
G75*
G02*
X63450224Y-67108569I-176776J-176776D01*
G01*
X62990603Y-67568190D01*
G75*
G02*
X62637051Y-67568190I-176776J176776D01*
G01*
X61717810Y-66648949D01*
G75*
G02*
X61717810Y-66295397I176776J176776D01*
G01*
X62177431Y-65835776D01*
G75*
G02*
X62530983Y-65835776I176776J-176776D01*
G01*
G37*
G36*
G01*
X64616949Y-63749810D02*
X65536190Y-64669051D01*
G75*
G02*
X65536190Y-65022603I-176776J-176776D01*
G01*
X65076569Y-65482224D01*
G75*
G02*
X64723017Y-65482224I-176776J176776D01*
G01*
X63803776Y-64562983D01*
G75*
G02*
X63803776Y-64209431I176776J176776D01*
G01*
X64263397Y-63749810D01*
G75*
G02*
X64616949Y-63749810I176776J-176776D01*
G01*
G37*
G04 #@! TD*
G04 #@! TO.C,C14*
G36*
G01*
X62784983Y-117651776D02*
X63704224Y-118571017D01*
G75*
G02*
X63704224Y-118924569I-176776J-176776D01*
G01*
X63244603Y-119384190D01*
G75*
G02*
X62891051Y-119384190I-176776J176776D01*
G01*
X61971810Y-118464949D01*
G75*
G02*
X61971810Y-118111397I176776J176776D01*
G01*
X62431431Y-117651776D01*
G75*
G02*
X62784983Y-117651776I176776J-176776D01*
G01*
G37*
G36*
G01*
X64870949Y-115565810D02*
X65790190Y-116485051D01*
G75*
G02*
X65790190Y-116838603I-176776J-176776D01*
G01*
X65330569Y-117298224D01*
G75*
G02*
X64977017Y-117298224I-176776J176776D01*
G01*
X64057776Y-116378983D01*
G75*
G02*
X64057776Y-116025431I176776J176776D01*
G01*
X64517397Y-115565810D01*
G75*
G02*
X64870949Y-115565810I176776J-176776D01*
G01*
G37*
G04 #@! TD*
G04 #@! TO.C,C3*
G36*
G01*
X62530983Y-60501776D02*
X63450224Y-61421017D01*
G75*
G02*
X63450224Y-61774569I-176776J-176776D01*
G01*
X62990603Y-62234190D01*
G75*
G02*
X62637051Y-62234190I-176776J176776D01*
G01*
X61717810Y-61314949D01*
G75*
G02*
X61717810Y-60961397I176776J176776D01*
G01*
X62177431Y-60501776D01*
G75*
G02*
X62530983Y-60501776I176776J-176776D01*
G01*
G37*
G36*
G01*
X64616949Y-58415810D02*
X65536190Y-59335051D01*
G75*
G02*
X65536190Y-59688603I-176776J-176776D01*
G01*
X65076569Y-60148224D01*
G75*
G02*
X64723017Y-60148224I-176776J176776D01*
G01*
X63803776Y-59228983D01*
G75*
G02*
X63803776Y-58875431I176776J176776D01*
G01*
X64263397Y-58415810D01*
G75*
G02*
X64616949Y-58415810I176776J-176776D01*
G01*
G37*
G04 #@! TD*
G04 #@! TO.C,D3*
G36*
G01*
X46980000Y-60392000D02*
X46980000Y-59242000D01*
G75*
G02*
X47230000Y-58992000I250000J0D01*
G01*
X48330000Y-58992000D01*
G75*
G02*
X48580000Y-59242000I0J-250000D01*
G01*
X48580000Y-60392000D01*
G75*
G02*
X48330000Y-60642000I-250000J0D01*
G01*
X47230000Y-60642000D01*
G75*
G02*
X46980000Y-60392000I0J250000D01*
G01*
G37*
G36*
G01*
X44130000Y-60392000D02*
X44130000Y-59242000D01*
G75*
G02*
X44380000Y-58992000I250000J0D01*
G01*
X45480000Y-58992000D01*
G75*
G02*
X45730000Y-59242000I0J-250000D01*
G01*
X45730000Y-60392000D01*
G75*
G02*
X45480000Y-60642000I-250000J0D01*
G01*
X44380000Y-60642000D01*
G75*
G02*
X44130000Y-60392000I0J250000D01*
G01*
G37*
G04 #@! TD*
G04 #@! TO.C,C11*
G36*
G01*
X64870949Y-99817810D02*
X65790190Y-100737051D01*
G75*
G02*
X65790190Y-101090603I-176776J-176776D01*
G01*
X65330569Y-101550224D01*
G75*
G02*
X64977017Y-101550224I-176776J176776D01*
G01*
X64057776Y-100630983D01*
G75*
G02*
X64057776Y-100277431I176776J176776D01*
G01*
X64517397Y-99817810D01*
G75*
G02*
X64870949Y-99817810I176776J-176776D01*
G01*
G37*
G36*
G01*
X62784983Y-101903776D02*
X63704224Y-102823017D01*
G75*
G02*
X63704224Y-103176569I-176776J-176776D01*
G01*
X63244603Y-103636190D01*
G75*
G02*
X62891051Y-103636190I-176776J176776D01*
G01*
X61971810Y-102716949D01*
G75*
G02*
X61971810Y-102363397I176776J176776D01*
G01*
X62431431Y-101903776D01*
G75*
G02*
X62784983Y-101903776I176776J-176776D01*
G01*
G37*
G04 #@! TD*
G04 #@! TO.C,C12*
G36*
G01*
X62784983Y-106983776D02*
X63704224Y-107903017D01*
G75*
G02*
X63704224Y-108256569I-176776J-176776D01*
G01*
X63244603Y-108716190D01*
G75*
G02*
X62891051Y-108716190I-176776J176776D01*
G01*
X61971810Y-107796949D01*
G75*
G02*
X61971810Y-107443397I176776J176776D01*
G01*
X62431431Y-106983776D01*
G75*
G02*
X62784983Y-106983776I176776J-176776D01*
G01*
G37*
G36*
G01*
X64870949Y-104897810D02*
X65790190Y-105817051D01*
G75*
G02*
X65790190Y-106170603I-176776J-176776D01*
G01*
X65330569Y-106630224D01*
G75*
G02*
X64977017Y-106630224I-176776J176776D01*
G01*
X64057776Y-105710983D01*
G75*
G02*
X64057776Y-105357431I176776J176776D01*
G01*
X64517397Y-104897810D01*
G75*
G02*
X64870949Y-104897810I176776J-176776D01*
G01*
G37*
G04 #@! TD*
G04 #@! TO.C,C2*
G36*
G01*
X62530983Y-55167776D02*
X63450224Y-56087017D01*
G75*
G02*
X63450224Y-56440569I-176776J-176776D01*
G01*
X62990603Y-56900190D01*
G75*
G02*
X62637051Y-56900190I-176776J176776D01*
G01*
X61717810Y-55980949D01*
G75*
G02*
X61717810Y-55627397I176776J176776D01*
G01*
X62177431Y-55167776D01*
G75*
G02*
X62530983Y-55167776I176776J-176776D01*
G01*
G37*
G36*
G01*
X64616949Y-53081810D02*
X65536190Y-54001051D01*
G75*
G02*
X65536190Y-54354603I-176776J-176776D01*
G01*
X65076569Y-54814224D01*
G75*
G02*
X64723017Y-54814224I-176776J176776D01*
G01*
X63803776Y-53894983D01*
G75*
G02*
X63803776Y-53541431I176776J176776D01*
G01*
X64263397Y-53081810D01*
G75*
G02*
X64616949Y-53081810I176776J-176776D01*
G01*
G37*
G04 #@! TD*
G04 #@! TO.C,U1*
X52857000Y-48387000D03*
X59157000Y-50927000D03*
X52857000Y-50927000D03*
X59157000Y-48387000D03*
G04 #@! TD*
G04 #@! TO.C,U2*
X52857000Y-53721000D03*
X59157000Y-56261000D03*
X52857000Y-56261000D03*
X59157000Y-53721000D03*
G04 #@! TD*
G04 #@! TO.C,U4*
X53111000Y-63881000D03*
X59411000Y-66421000D03*
X53111000Y-66421000D03*
X59411000Y-63881000D03*
G04 #@! TD*
G04 #@! TO.C,U5*
X53111000Y-69215000D03*
X59411000Y-71755000D03*
X53111000Y-71755000D03*
X59411000Y-69215000D03*
G04 #@! TD*
G04 #@! TO.C,U3*
X52857000Y-59055000D03*
X59157000Y-61595000D03*
X52857000Y-61595000D03*
X59157000Y-59055000D03*
G04 #@! TD*
G04 #@! TO.C,U6*
X53111000Y-74803000D03*
X59411000Y-77343000D03*
X53111000Y-77343000D03*
X59411000Y-74803000D03*
G04 #@! TD*
G04 #@! TO.C,U7*
X53111000Y-80137000D03*
X59411000Y-82677000D03*
X53111000Y-82677000D03*
X59411000Y-80137000D03*
G04 #@! TD*
G04 #@! TO.C,U8*
X53111000Y-85471000D03*
X59411000Y-88011000D03*
X53111000Y-88011000D03*
X59411000Y-85471000D03*
G04 #@! TD*
G04 #@! TO.C,U11*
X53111000Y-101473000D03*
X59411000Y-104013000D03*
X53111000Y-104013000D03*
X59411000Y-101473000D03*
G04 #@! TD*
G04 #@! TO.C,U12*
X53111000Y-106807000D03*
X59411000Y-109347000D03*
X53111000Y-109347000D03*
X59411000Y-106807000D03*
G04 #@! TD*
G04 #@! TO.C,U14*
X53111000Y-117475000D03*
X59411000Y-120015000D03*
X53111000Y-120015000D03*
X59411000Y-117475000D03*
G04 #@! TD*
G04 #@! TO.C,U13*
X53111000Y-112141000D03*
X59411000Y-114681000D03*
X53111000Y-114681000D03*
X59411000Y-112141000D03*
G04 #@! TD*
M02*
