M48
INCH,TZ
T1C0.0157
T2C0.0315
T3C0.0354
T4C0.0374
T5C0.0394
T6C0.0402
T7C0.0433
T8C0.0453
T9C0.0591
T10C0.0642
%
G90
G05
T1
X13150Y-19350
X13150Y-21150
X13150Y-23250
X13150Y-24950
X13150Y-26950
X13150Y-28850
X13150Y-31150
X13150Y-33250
X13150Y-35250
X13150Y-37050
X13150Y-39050
X13150Y-40950
X13150Y-43050
X13150Y-44850
X13150Y-47250
X15300Y-13150
X15700Y-59800
X16950Y-19750
X16950Y-21650
X16950Y-23550
X16950Y-25450
X16950Y-27350
X16950Y-29450
X16950Y-31750
X16950Y-33750
X16950Y-35650
X16950Y-37650
X16950Y-39650
X16950Y-41550
X16950Y-43550
X16950Y-45550
X16950Y-47600
X17850Y-55750
X26900Y-40800
X26925Y-28475
X26925Y-44025
X26950Y-22250
X26950Y-24250
X26950Y-26200
X26950Y-30850
X26950Y-32500
X26950Y-34400
X26950Y-36650
X26950Y-38700
X26950Y-45200
X26950Y-47250
X27000Y-20300
X27150Y-17950
X28550Y-26100
X28600Y-20600
X28600Y-21900
X28650Y-45800
X28700Y-38950
X29150Y-24750
X29160Y-42100
X29350Y-23250
X29550Y-36100
X30250Y-34200
X30500Y-25400
X31250Y-35750
X31250Y-37050
X31250Y-38450
X31500Y-26300
X31500Y-27300
X31600Y-46450
X31650Y-21350
X31850Y-19350
X31850Y-29190
X32050Y-44050
X32050Y-45050
X32150Y-20350
X32150Y-31050
X32150Y-32050
X32200Y-41530
X33050Y-36950
X33100Y-26600
X33200Y-37950
X33400Y-35850
X33425Y-43150
X33700Y-24800
X34000Y-25300
X34050Y-19950
X34100Y-18000
X34150Y-44975
X34150Y-21350
X34200Y-31850
X34200Y-33000
X34550Y-22400
X34900Y-34650
X35050Y-36950
X35250Y-24800
X35850Y-19850
X36300Y-45800
X36900Y-21400
X37250Y-13650
X38750Y-54600
X39650Y-14150
X39800Y-59950
X40150Y-47800
X41270Y-53840
X41600Y-56200
X41900Y-55150
X42300Y-49750
X42400Y-57650
X42960Y-53117
X43320Y-51120
X43453Y-54591
X43550Y-56600
X43650Y-55900
X43965Y-53765
X44016Y-50746
X44200Y-56500
X44296Y-54536
X44300Y-52939
X44400Y-51450
X44875Y-53675
X44900Y-51100
X45100Y-55900
X45900Y-55850
X46050Y-54400
X49750Y-40100
X50350Y-13150
X51550Y-39150
X54450Y-52580
X55700Y-41100
X56220Y-53070
X57050Y-56250
X57200Y-44150
X57200Y-45650
X57500Y-57900
X58260Y-47540
X59150Y-31650
X59150Y-46000
X59300Y-33150
X59450Y-19950
X59800Y-25800
X60050Y-55060
X60950Y-57400
X61100Y-44650
X61350Y-22550
X61400Y-56900
X61500Y-24100
X61500Y-25200
X61700Y-25950
X61800Y-58900
X62550Y-20650
X62600Y-58400
X62650Y-32150
X63000Y-33500
X63300Y-22050
X63500Y-23550
X63630Y-63320
X72950Y-23850
X72950Y-27300
X72950Y-31150
X72950Y-34800
X72994Y-15106
X73000Y-19150
X73450Y-11700
X75300Y-27100
X75300Y-29700
X75300Y-33350
X75300Y-37050
X75400Y-17500
X75450Y-13750
X75450Y-21150
T2
X23900Y-14100
X25278Y-14100
X15700Y-61350
X15700Y-64350
X49050Y-51650
X49050Y-53571
T3
X42600Y-60450
X43096Y-59450
X43600Y-60450
X44096Y-59450
X44600Y-60450
X45096Y-59450
X45600Y-60450
X46096Y-59450
T4
X70450Y-49300
X71450Y-49300
X70450Y-60850
X71450Y-60850
X70450Y-55077
X71450Y-55077
X70450Y-57950
X71450Y-57950
X70450Y-40650
X71450Y-40650
X70450Y-52200
X71450Y-52200
X70450Y-43550
X71450Y-43550
X70450Y-46450
X71450Y-46450
T5
X53500Y-37150
X54500Y-37150
X55500Y-37150
X56500Y-37150
X53500Y-22850
X54500Y-22850
X55500Y-22850
X56500Y-22850
X28900Y-29750
X29900Y-29750
X54000Y-28819
X54000Y-30650
X37250Y-11550
X19600Y-52400
X19600Y-53400
X19600Y-54400
X19600Y-55400
X19600Y-56400
X19600Y-57400
X36500Y-15900
X36500Y-16900
X54100Y-51400
X55100Y-51400
X19600Y-60700
X19600Y-61700
X19600Y-62700
X19600Y-63700
X19600Y-64700
X19600Y-65700
X29150Y-43400
X30150Y-43400
X39361Y-11550
X53500Y-32750
X54500Y-32750
X55500Y-32750
X56500Y-32750
X35150Y-11550
X59700Y-28500
X60700Y-28500
X44300Y-40950
X39150Y-16050
X40150Y-16050
X41150Y-16050
X42150Y-16050
X39150Y-19000
X40150Y-19000
X41150Y-19000
X42150Y-19000
X39150Y-43450
X40150Y-43450
X41150Y-43450
X42150Y-43450
X43150Y-43450
X44150Y-43450
X48550Y-41000
T6
X41740Y-64883
X42740Y-64883
X45956Y-64883
X46956Y-64883
T7
X17700Y-16450
X18700Y-16450
X19700Y-16450
X44450Y-15000
X44450Y-16000
X44450Y-17000
X44450Y-18000
X44450Y-19000
X44450Y-20000
X44450Y-21000
X44450Y-22000
X44450Y-23000
X44450Y-24000
X44450Y-25000
X44450Y-26000
X44450Y-27000
X44450Y-28000
X44450Y-29000
X44450Y-30000
X44450Y-31000
X44450Y-32000
X44450Y-33000
X44450Y-34000
X44450Y-35000
X44450Y-36000
X44450Y-37000
X44450Y-38000
X45450Y-33000
X45631Y-17500
X45631Y-18500
X45631Y-19500
X45631Y-20500
X45631Y-21500
X46450Y-33000
X47052Y-15500
X47450Y-21000
X47450Y-22000
X47450Y-23000
X47450Y-24000
X47450Y-30000
X47450Y-31000
X47450Y-32000
X47450Y-33000
X47450Y-34000
X47450Y-35000
X47450Y-36000
X47450Y-37000
X47450Y-38000
X47848Y-15500
X48450Y-21000
X48450Y-22000
X48450Y-23000
X48450Y-24000
X48450Y-30000
X48450Y-31000
X48450Y-32000
X48450Y-33000
X48450Y-34000
X48450Y-35000
X48450Y-36000
X48450Y-37000
X48450Y-38000
X49450Y-16000
X49450Y-18000
X49450Y-19000
X49450Y-33000
X50450Y-15000
X50450Y-16000
X50450Y-17000
X50450Y-18000
X50450Y-19000
X50450Y-20000
X50450Y-21000
X50450Y-22000
X50450Y-23000
X50450Y-24000
X50450Y-25000
X50450Y-26000
X50450Y-27000
X50450Y-28000
X50450Y-29000
X50450Y-30000
X50450Y-31000
X50450Y-32000
X50450Y-33000
X50450Y-34000
X50450Y-35000
X50450Y-36000
X50450Y-37000
X50450Y-38000
X15475Y-6875
X19475Y-6875
X32050Y-9500
X32050Y-13500
T8
X75450Y-49300
X77450Y-49300
X75450Y-60850
X77450Y-60850
X75450Y-55077
X77450Y-55077
X75450Y-57950
X77450Y-57950
X75450Y-40650
X77450Y-40650
X75450Y-52200
X77450Y-52200
X75450Y-43550
X77450Y-43550
X75450Y-46450
X77450Y-46450
T9
X84350Y-41450
X84350Y-43419
X84350Y-45387
X84350Y-47356
X84350Y-49324
X84350Y-26107
X84350Y-28076
X84350Y-30044
X84350Y-32013
X84350Y-33981
X84350Y-35950
X11150Y-31833
X11150Y-33802
X11150Y-35770
X11150Y-37739
X11150Y-39707
X11150Y-41676
X11150Y-43644
X11150Y-45613
X11150Y-47581
X11150Y-49550
X84350Y-53050
X84350Y-55019
X84350Y-56987
X84350Y-58956
X84350Y-60924
X57225Y-8583
X57225Y-16633
X11275Y-54525
X11275Y-56494
X11150Y-19707
X11150Y-21676
X11150Y-23644
X11150Y-25613
X11150Y-27581
X11150Y-29550
X11275Y-59800
X11275Y-61769
X11150Y-10950
X11150Y-12919
X11150Y-14887
X11150Y-16856
X84300Y-11407
X84300Y-13376
X84300Y-15344
X84300Y-17313
X84300Y-19281
X84300Y-21250
T10
X41299Y-61753
X47397Y-61753
T0
M30
