G04 #@! TF.GenerationSoftware,KiCad,Pcbnew,(5.1.7)-1*
G04 #@! TF.CreationDate,2022-10-24T17:50:45-04:00*
G04 #@! TF.ProjectId,plc_14in_14out,706c635f-3134-4696-9e5f-31346f75742e,rev?*
G04 #@! TF.SameCoordinates,Original*
G04 #@! TF.FileFunction,Soldermask,Bot*
G04 #@! TF.FilePolarity,Negative*
%FSLAX46Y46*%
G04 Gerber Fmt 4.6, Leading zero omitted, Abs format (unit mm)*
G04 Created by KiCad (PCBNEW (5.1.7)-1) date 2022-10-24 17:50:45*
%MOMM*%
%LPD*%
G01*
G04 APERTURE LIST*
%ADD10C,3.000000*%
%ADD11C,3.200000*%
%ADD12C,1.600000*%
%ADD13R,1.600000X1.600000*%
%ADD14R,1.700000X1.700000*%
%ADD15O,1.700000X1.700000*%
%ADD16R,3.000000X3.000000*%
%ADD17O,2.200000X2.200000*%
%ADD18R,2.200000X2.200000*%
%ADD19C,3.250000*%
%ADD20C,1.500000*%
%ADD21C,2.500000*%
%ADD22O,1.905000X2.000000*%
%ADD23R,1.905000X2.000000*%
%ADD24O,1.600000X1.600000*%
%ADD25C,1.778000*%
%ADD26R,1.778000X1.778000*%
%ADD27C,1.900000*%
G04 APERTURE END LIST*
D10*
G04 #@! TO.C,BT1*
X145351500Y-42248000D03*
X145351500Y-21801000D03*
G04 #@! TD*
D11*
G04 #@! TO.C,REF\u002A\u002A*
X207772000Y-164084000D03*
G04 #@! TD*
G04 #@! TO.C,REF\u002A\u002A*
X27749500Y-165036500D03*
G04 #@! TD*
G04 #@! TO.C,REF\u002A\u002A*
X27686000Y-19113500D03*
G04 #@! TD*
G04 #@! TO.C,REF\u002A\u002A*
X208153000Y-20320000D03*
G04 #@! TD*
D12*
G04 #@! TO.C,U19*
X121533000Y-39370000D03*
X119513000Y-39370000D03*
X123063000Y-53340000D03*
X123063000Y-55880000D03*
X123063000Y-58420000D03*
X123063000Y-60960000D03*
X120523000Y-60960000D03*
X120523000Y-58420000D03*
X120523000Y-53340000D03*
X120523000Y-55880000D03*
X120523000Y-76200000D03*
X123063000Y-76200000D03*
X120523000Y-78740000D03*
X123063000Y-78740000D03*
X120523000Y-81280000D03*
X123063000Y-81280000D03*
X120523000Y-96520000D03*
X123063000Y-96520000D03*
X120523000Y-86360000D03*
X120523000Y-88900000D03*
X120523000Y-91440000D03*
X120523000Y-93980000D03*
X123063000Y-93980000D03*
X123063000Y-91440000D03*
X123063000Y-88900000D03*
X123063000Y-86360000D03*
X115903000Y-54610000D03*
X115903000Y-52070000D03*
X115903000Y-49530000D03*
X115903000Y-46990000D03*
X115903000Y-44450000D03*
X125603000Y-48260000D03*
X125603000Y-45720000D03*
X125603000Y-40640000D03*
X128143000Y-38100000D03*
X128143000Y-40640000D03*
X128143000Y-43180000D03*
X128143000Y-45720000D03*
X128143000Y-48260000D03*
X128143000Y-50800000D03*
X128143000Y-53340000D03*
X128143000Y-55880000D03*
X128143000Y-58420000D03*
X128143000Y-60960000D03*
X128143000Y-63500000D03*
X128143000Y-66040000D03*
X128143000Y-68580000D03*
X128143000Y-71120000D03*
X128143000Y-73660000D03*
X128143000Y-76200000D03*
D13*
X112903000Y-38100000D03*
D12*
X112903000Y-40640000D03*
X112903000Y-43180000D03*
X112903000Y-45720000D03*
X112903000Y-48260000D03*
X112903000Y-50800000D03*
X112903000Y-53340000D03*
X112903000Y-55880000D03*
X112903000Y-58420000D03*
X112903000Y-60960000D03*
X112903000Y-63500000D03*
X112903000Y-66040000D03*
X112903000Y-68580000D03*
X128143000Y-78740000D03*
X128143000Y-81280000D03*
X128143000Y-83820000D03*
X128143000Y-86360000D03*
X128143000Y-88900000D03*
X128143000Y-91440000D03*
X128143000Y-93980000D03*
X128143000Y-96520000D03*
X125603000Y-83820000D03*
X123063000Y-83820000D03*
X120523000Y-83820000D03*
X117983000Y-83820000D03*
X115443000Y-83820000D03*
X112903000Y-96520000D03*
X112903000Y-93980000D03*
X112903000Y-91440000D03*
X112903000Y-88900000D03*
X112903000Y-71120000D03*
X112903000Y-73660000D03*
X112903000Y-76200000D03*
X112903000Y-86360000D03*
X112903000Y-83820000D03*
X112903000Y-81280000D03*
X112903000Y-78740000D03*
G04 #@! TD*
D14*
G04 #@! TO.C,J25*
X99978000Y-29337000D03*
G04 #@! TD*
G04 #@! TO.C,J24*
X89281000Y-29337000D03*
G04 #@! TD*
G04 #@! TO.C,J23*
X94615000Y-29337000D03*
G04 #@! TD*
G04 #@! TO.C,J22*
X137160000Y-73201000D03*
G04 #@! TD*
G04 #@! TO.C,J21*
X137160000Y-77851000D03*
G04 #@! TD*
G04 #@! TO.C,J20*
X123317000Y-104140000D03*
G04 #@! TD*
D15*
G04 #@! TO.C,J19*
X135890000Y-94361000D03*
X138430000Y-94361000D03*
X140970000Y-94361000D03*
D14*
X143510000Y-94361000D03*
G04 #@! TD*
G04 #@! TO.C,J18*
X112522000Y-104013000D03*
G04 #@! TD*
D15*
G04 #@! TO.C,J17*
X135890000Y-83185000D03*
X138430000Y-83185000D03*
X140970000Y-83185000D03*
D14*
X143510000Y-83185000D03*
G04 #@! TD*
D12*
G04 #@! TO.C,C25*
X64206000Y-35814000D03*
X60706000Y-35814000D03*
G04 #@! TD*
D15*
G04 #@! TO.C,J16*
X135890000Y-58039000D03*
X138430000Y-58039000D03*
X140970000Y-58039000D03*
D14*
X143510000Y-58039000D03*
G04 #@! TD*
D15*
G04 #@! TO.C,J15*
X107061000Y-40767000D03*
X104521000Y-40767000D03*
X101981000Y-40767000D03*
D14*
X99441000Y-40767000D03*
G04 #@! TD*
D15*
G04 #@! TO.C,J14*
X107061000Y-48260000D03*
X104521000Y-48260000D03*
X101981000Y-48260000D03*
D14*
X99441000Y-48260000D03*
G04 #@! TD*
D10*
G04 #@! TO.C,J13*
X28321000Y-42813000D03*
X28321000Y-37813000D03*
X28321000Y-32813000D03*
D16*
X28321000Y-27813000D03*
G04 #@! TD*
D17*
G04 #@! TO.C,D33*
X39306500Y-17462500D03*
D18*
X49466500Y-17462500D03*
G04 #@! TD*
D17*
G04 #@! TO.C,D32*
X81407000Y-34290000D03*
D18*
X81407000Y-24130000D03*
G04 #@! TD*
D19*
G04 #@! TO.C,J6*
X118359000Y-159903000D03*
X106929000Y-159903000D03*
G36*
G01*
X107454000Y-154042500D02*
X107454000Y-153043500D01*
G75*
G02*
X107704500Y-152793000I250500J0D01*
G01*
X108703500Y-152793000D01*
G75*
G02*
X108954000Y-153043500I0J-250500D01*
G01*
X108954000Y-154042500D01*
G75*
G02*
X108703500Y-154293000I-250500J0D01*
G01*
X107704500Y-154293000D01*
G75*
G02*
X107454000Y-154042500I0J250500D01*
G01*
G37*
D20*
X109464000Y-151003000D03*
X110744000Y-153543000D03*
X112004000Y-151003000D03*
X113284000Y-153543000D03*
X114544000Y-151003000D03*
X115824000Y-153543000D03*
D21*
X104899000Y-156853000D03*
D20*
X117084000Y-151003000D03*
D21*
X120389000Y-156853000D03*
D20*
X106019000Y-164803000D03*
X108559000Y-164803000D03*
X119269000Y-164803000D03*
X116729000Y-164803000D03*
G04 #@! TD*
D22*
G04 #@! TO.C,U36*
X50038000Y-41783000D03*
X47498000Y-41783000D03*
D23*
X44958000Y-41783000D03*
G04 #@! TD*
D10*
G04 #@! TO.C,J8*
X214122000Y-28975000D03*
X214122000Y-33975000D03*
X214122000Y-38975000D03*
X214122000Y-43975000D03*
X214122000Y-48975000D03*
D16*
X214122000Y-53975000D03*
G04 #@! TD*
D15*
G04 #@! TO.C,J12*
X112141000Y-110363000D03*
X109601000Y-110363000D03*
X107061000Y-110363000D03*
X104521000Y-110363000D03*
X101981000Y-110363000D03*
D14*
X99441000Y-110363000D03*
G04 #@! TD*
D24*
G04 #@! TO.C,SW6*
X39878000Y-155829000D03*
D13*
X39878000Y-163449000D03*
G04 #@! TD*
D10*
G04 #@! TO.C,J3*
X28321000Y-80857000D03*
X28321000Y-85857000D03*
X28321000Y-90857000D03*
X28321000Y-95857000D03*
X28321000Y-100857000D03*
X28321000Y-105857000D03*
X28321000Y-110857000D03*
X28321000Y-115857000D03*
X28321000Y-120857000D03*
D16*
X28321000Y-125857000D03*
G04 #@! TD*
D10*
G04 #@! TO.C,J11*
X28638500Y-143493500D03*
D16*
X28638500Y-138493500D03*
G04 #@! TD*
D15*
G04 #@! TO.C,J10*
X49784000Y-154178000D03*
X49784000Y-156718000D03*
X49784000Y-159258000D03*
X49784000Y-161798000D03*
X49784000Y-164338000D03*
D14*
X49784000Y-166878000D03*
G04 #@! TD*
D15*
G04 #@! TO.C,J9*
X49784000Y-133096000D03*
X49784000Y-135636000D03*
X49784000Y-138176000D03*
X49784000Y-140716000D03*
X49784000Y-143256000D03*
D14*
X49784000Y-145796000D03*
G04 #@! TD*
D15*
G04 #@! TO.C,SW5*
X154178000Y-72390000D03*
D14*
X151638000Y-72390000D03*
G04 #@! TD*
D10*
G04 #@! TO.C,J7*
X214249000Y-66313000D03*
X214249000Y-71313000D03*
X214249000Y-76313000D03*
X214249000Y-81313000D03*
X214249000Y-86313000D03*
D16*
X214249000Y-91313000D03*
G04 #@! TD*
D14*
G04 #@! TO.C,SW4*
X92710000Y-40386000D03*
D15*
X92710000Y-42926000D03*
G04 #@! TD*
D20*
G04 #@! TO.C,Y1*
X124587000Y-136071000D03*
X124587000Y-131191000D03*
G04 #@! TD*
D25*
G04 #@! TO.C,K8*
X181483000Y-103251000D03*
D26*
X178943000Y-103251000D03*
D27*
X191643000Y-103251000D03*
X196723000Y-103251000D03*
G04 #@! TD*
D25*
G04 #@! TO.C,K7*
X181483000Y-110617000D03*
D26*
X178943000Y-110617000D03*
D27*
X191643000Y-110617000D03*
X196723000Y-110617000D03*
G04 #@! TD*
D25*
G04 #@! TO.C,K6*
X181483000Y-117983000D03*
D26*
X178943000Y-117983000D03*
D27*
X191643000Y-117983000D03*
X196723000Y-117983000D03*
G04 #@! TD*
D25*
G04 #@! TO.C,K5*
X181483000Y-125222000D03*
D26*
X178943000Y-125222000D03*
D27*
X191643000Y-125222000D03*
X196723000Y-125222000D03*
G04 #@! TD*
D25*
G04 #@! TO.C,K4*
X181483000Y-132588000D03*
D26*
X178943000Y-132588000D03*
D27*
X191643000Y-132588000D03*
X196723000Y-132588000D03*
G04 #@! TD*
D25*
G04 #@! TO.C,K3*
X181483000Y-139895001D03*
D26*
X178943000Y-139895001D03*
D27*
X191643000Y-139895001D03*
X196723000Y-139895001D03*
G04 #@! TD*
D25*
G04 #@! TO.C,K2*
X181483000Y-147193000D03*
D26*
X178943000Y-147193000D03*
D27*
X191643000Y-147193000D03*
X196723000Y-147193000D03*
G04 #@! TD*
D10*
G04 #@! TO.C,J5*
X214249000Y-154747000D03*
X214249000Y-149747000D03*
X214249000Y-144747000D03*
X214249000Y-139747000D03*
D16*
X214249000Y-134747000D03*
G04 #@! TD*
D10*
G04 #@! TO.C,J4*
X214249000Y-125283000D03*
X214249000Y-120283000D03*
X214249000Y-115283000D03*
X214249000Y-110283000D03*
D16*
X214249000Y-105283000D03*
G04 #@! TD*
D25*
G04 #@! TO.C,K1*
X181483000Y-154559000D03*
D26*
X178943000Y-154559000D03*
D27*
X191643000Y-154559000D03*
X196723000Y-154559000D03*
G04 #@! TD*
D15*
G04 #@! TO.C,SW3*
X139954000Y-130556000D03*
D14*
X137414000Y-130556000D03*
G04 #@! TD*
D15*
G04 #@! TO.C,SW1*
X75946000Y-75565000D03*
D14*
X73406000Y-75565000D03*
G04 #@! TD*
D15*
G04 #@! TO.C,SW2*
X76581000Y-110236000D03*
D14*
X74041000Y-110236000D03*
G04 #@! TD*
D10*
G04 #@! TO.C,J2*
X28321000Y-50057000D03*
X28321000Y-55057000D03*
X28321000Y-60057000D03*
X28321000Y-65057000D03*
X28321000Y-70057000D03*
D16*
X28321000Y-75057000D03*
G04 #@! TD*
D10*
G04 #@! TO.C,J1*
X28638500Y-156892000D03*
D16*
X28638500Y-151892000D03*
G04 #@! TD*
M02*
